%TF.GenerationSoftware,KiCad,Pcbnew,no-vcs-found-c6d0075~61~ubuntu17.10.1*%
%TF.CreationDate,2018-02-07T09:42:23+01:00*%
%TF.ProjectId,noname,6E6F6E616D652E6B696361645F706362,rev?*%
%TF.SameCoordinates,Original*%
%TF.FileFunction,Soldermask,Top*%
%TF.FilePolarity,Negative*%
%FSLAX46Y46*%
G04 Gerber Fmt 4.6, Leading zero omitted, Abs format (unit mm)*
G04 Created by KiCad (PCBNEW no-vcs-found-c6d0075~61~ubuntu17.10.1) date Wed Feb  7 09:42:23 2018*
%MOMM*%
%LPD*%
G01*
G04 APERTURE LIST*
%ADD10R,2.100000X2.100000*%
%ADD11O,2.100000X2.100000*%
%ADD12R,1.900000X2.900000*%
%ADD13O,1.900000X2.900000*%
%ADD14O,2.600000X3.900000*%
%ADD15C,4.400000*%
%ADD16R,3.900000X3.900000*%
%ADD17C,3.900000*%
%ADD18C,5.400000*%
%ADD19C,1.000000*%
%ADD20R,3.500000X2.450000*%
%ADD21R,1.250000X0.680000*%
%ADD22R,0.680000X1.250000*%
%ADD23C,0.100000*%
%ADD24C,1.400000*%
%ADD25R,1.900000X0.900000*%
%ADD26O,0.700000X1.150000*%
%ADD27O,1.150000X0.700000*%
%ADD28R,2.200000X2.200000*%
%ADD29R,1.050000X1.620000*%
%ADD30R,0.910000X1.100000*%
%ADD31R,1.400000X1.070000*%
%ADD32R,1.070000X1.400000*%
%ADD33R,1.900000X1.370000*%
%ADD34R,1.370000X1.900000*%
%ADD35R,2.200000X1.470000*%
%ADD36R,1.470000X2.200000*%
%ADD37C,3.400000*%
%ADD38R,1.600000X1.300000*%
%ADD39R,1.300000X1.600000*%
%ADD40R,2.800000X1.900000*%
%ADD41R,1.900000X2.600000*%
%ADD42R,0.900000X1.900000*%
%ADD43R,1.570000X3.100000*%
%ADD44C,0.680000*%
%ADD45R,1.460000X1.050000*%
%ADD46O,1.750000X1.750000*%
%ADD47R,1.750000X1.750000*%
%ADD48R,1.000000X0.900000*%
%ADD49R,0.900000X1.000000*%
%ADD50C,2.500000*%
%ADD51C,2.150000*%
%ADD52C,1.900000*%
%ADD53R,0.850000X1.000000*%
%ADD54R,0.800000X1.050000*%
%ADD55R,0.798780X1.746200*%
%ADD56R,0.798780X1.748740*%
%ADD57R,2.297380X2.297380*%
%ADD58C,2.100000*%
G04 APERTURE END LIST*
D10*
%TO.C,J10*%
X190677384Y-51742766D03*
D11*
X190677384Y-54282766D03*
%TD*%
%TO.C,J9*%
X237667384Y-50726766D03*
D10*
X237667384Y-53266766D03*
%TD*%
%TO.C,J8*%
X212775384Y-100002766D03*
D11*
X212775384Y-102542766D03*
%TD*%
D12*
%TO.C,SW1*%
X207949384Y-14658766D03*
D13*
X205949384Y-14658766D03*
X203949384Y-14658766D03*
D14*
X210049384Y-14658766D03*
X201849384Y-14658766D03*
%TD*%
D15*
%TO.C,BT1*%
X193207142Y-86038622D03*
X193207142Y-30038622D03*
D16*
X193207142Y-22038622D03*
D17*
X193207142Y-94038622D03*
%TD*%
D18*
%TO.C,J7*%
X197281384Y-15674766D03*
X231281384Y-15674766D03*
X231281384Y-100674766D03*
X197281384Y-100674766D03*
D11*
X184991384Y-88734766D03*
X187531384Y-88734766D03*
X184991384Y-86194766D03*
X187531384Y-86194766D03*
X184991384Y-83654766D03*
X187531384Y-83654766D03*
X184991384Y-81114766D03*
X187531384Y-81114766D03*
X184991384Y-78574766D03*
X187531384Y-78574766D03*
X184991384Y-76034766D03*
X187531384Y-76034766D03*
X184991384Y-73494766D03*
X187531384Y-73494766D03*
X184991384Y-70954766D03*
X187531384Y-70954766D03*
X184991384Y-68414766D03*
X187531384Y-68414766D03*
X184991384Y-65874766D03*
D10*
X187531384Y-65874766D03*
D11*
X184991384Y-61934766D03*
X187531384Y-61934766D03*
X184991384Y-59394766D03*
X187531384Y-59394766D03*
X184991384Y-56854766D03*
X187531384Y-56854766D03*
X184991384Y-54314766D03*
X187531384Y-54314766D03*
X184991384Y-51774766D03*
X187531384Y-51774766D03*
X184991384Y-49234766D03*
X187531384Y-49234766D03*
X184991384Y-46694766D03*
X187531384Y-46694766D03*
X184991384Y-44154766D03*
X187531384Y-44154766D03*
X184991384Y-41614766D03*
X187531384Y-41614766D03*
X184991384Y-39074766D03*
X187531384Y-39074766D03*
X184991384Y-36534766D03*
X187531384Y-36534766D03*
X184991384Y-33994766D03*
X187531384Y-33994766D03*
X184991384Y-31454766D03*
X187531384Y-31454766D03*
X184991384Y-28914766D03*
X187531384Y-28914766D03*
X184991384Y-26374766D03*
D10*
X187531384Y-26374766D03*
D11*
X240691384Y-88734766D03*
X243231384Y-88734766D03*
X240691384Y-86194766D03*
X243231384Y-86194766D03*
X240691384Y-83654766D03*
X243231384Y-83654766D03*
X240691384Y-81114766D03*
X243231384Y-81114766D03*
X240691384Y-78574766D03*
X243231384Y-78574766D03*
X240691384Y-76034766D03*
X243231384Y-76034766D03*
X240691384Y-73494766D03*
X243231384Y-73494766D03*
X240691384Y-70954766D03*
X243231384Y-70954766D03*
X240691384Y-68414766D03*
X243231384Y-68414766D03*
X240691384Y-65874766D03*
X243231384Y-65874766D03*
X240691384Y-63334766D03*
X243231384Y-63334766D03*
X240691384Y-60794766D03*
X243231384Y-60794766D03*
X240691384Y-58254766D03*
X243231384Y-58254766D03*
X240691384Y-55714766D03*
X243231384Y-55714766D03*
X240691384Y-53174766D03*
X243231384Y-53174766D03*
X240691384Y-50634766D03*
X243231384Y-50634766D03*
X240691384Y-48094766D03*
X243231384Y-48094766D03*
X240691384Y-45554766D03*
X243231384Y-45554766D03*
X240691384Y-43014766D03*
X243231384Y-43014766D03*
X240691384Y-40474766D03*
X243231384Y-40474766D03*
X240691384Y-37934766D03*
X243231384Y-37934766D03*
X240691384Y-35394766D03*
X243231384Y-35394766D03*
X240691384Y-32854766D03*
X243231384Y-32854766D03*
X240691384Y-30314766D03*
X243231384Y-30314766D03*
X240691384Y-27774766D03*
D10*
X243231384Y-27774766D03*
%TD*%
D19*
%TO.C,U1*%
X224094384Y-61386766D03*
X225094384Y-61386766D03*
X226094384Y-61386766D03*
X226094384Y-60386766D03*
X225094384Y-60386766D03*
X224094384Y-60386766D03*
D20*
X225094384Y-60886766D03*
D21*
X227819384Y-61636766D03*
X227819384Y-60136766D03*
X222369384Y-60136766D03*
X222369384Y-61636766D03*
D22*
X227344384Y-62611766D03*
X226844384Y-62611766D03*
X226344384Y-62611766D03*
X225844384Y-62611766D03*
X225344384Y-62611766D03*
X224844384Y-62611766D03*
X224344384Y-62611766D03*
X223844384Y-62611766D03*
X223344384Y-62611766D03*
X222844384Y-62611766D03*
X227344384Y-59161766D03*
X226844384Y-59161766D03*
X226344384Y-59161766D03*
X225844384Y-59161766D03*
X225344384Y-59161766D03*
X224844384Y-59161766D03*
X224344384Y-59161766D03*
X223844384Y-59161766D03*
X223344384Y-59161766D03*
X222844384Y-59161766D03*
%TD*%
D23*
%TO.C,J6*%
G36*
X204965996Y-48110136D02*
X205033947Y-48120215D01*
X205100583Y-48136907D01*
X205165262Y-48160049D01*
X205227362Y-48189420D01*
X205286283Y-48224736D01*
X205341459Y-48265658D01*
X205392359Y-48311790D01*
X205438491Y-48362690D01*
X205479413Y-48417866D01*
X205514729Y-48476787D01*
X205544100Y-48538887D01*
X205567242Y-48603566D01*
X205583934Y-48670202D01*
X205594013Y-48738153D01*
X205597384Y-48806765D01*
X205597384Y-48806767D01*
X205594013Y-48875379D01*
X205583934Y-48943330D01*
X205567242Y-49009966D01*
X205544100Y-49074645D01*
X205514729Y-49136745D01*
X205479413Y-49195666D01*
X205438491Y-49250842D01*
X205392359Y-49301742D01*
X205341459Y-49347874D01*
X205286283Y-49388796D01*
X205227362Y-49424112D01*
X205165262Y-49453483D01*
X205100583Y-49476625D01*
X205033947Y-49493317D01*
X204965996Y-49503396D01*
X204897384Y-49506767D01*
X204397384Y-49506767D01*
X204328772Y-49503396D01*
X204260821Y-49493317D01*
X204194185Y-49476625D01*
X204129506Y-49453483D01*
X204067406Y-49424112D01*
X204008485Y-49388796D01*
X203953309Y-49347874D01*
X203902409Y-49301742D01*
X203856277Y-49250842D01*
X203815355Y-49195666D01*
X203780039Y-49136745D01*
X203750668Y-49074645D01*
X203727526Y-49009966D01*
X203710834Y-48943330D01*
X203700755Y-48875379D01*
X203697384Y-48806767D01*
X203697384Y-48806765D01*
X203700755Y-48738153D01*
X203710834Y-48670202D01*
X203727526Y-48603566D01*
X203750668Y-48538887D01*
X203780039Y-48476787D01*
X203815355Y-48417866D01*
X203856277Y-48362690D01*
X203902409Y-48311790D01*
X203953309Y-48265658D01*
X204008485Y-48224736D01*
X204067406Y-48189420D01*
X204129506Y-48160049D01*
X204194185Y-48136907D01*
X204260821Y-48120215D01*
X204328772Y-48110136D01*
X204397384Y-48106765D01*
X204897384Y-48106765D01*
X204965996Y-48110136D01*
X204965996Y-48110136D01*
G37*
D24*
X204647384Y-48806766D03*
D23*
G36*
X204965996Y-49410136D02*
X205033947Y-49420215D01*
X205100583Y-49436907D01*
X205165262Y-49460049D01*
X205227362Y-49489420D01*
X205286283Y-49524736D01*
X205341459Y-49565658D01*
X205392359Y-49611790D01*
X205438491Y-49662690D01*
X205479413Y-49717866D01*
X205514729Y-49776787D01*
X205544100Y-49838887D01*
X205567242Y-49903566D01*
X205583934Y-49970202D01*
X205594013Y-50038153D01*
X205597384Y-50106765D01*
X205597384Y-50106767D01*
X205594013Y-50175379D01*
X205583934Y-50243330D01*
X205567242Y-50309966D01*
X205544100Y-50374645D01*
X205514729Y-50436745D01*
X205479413Y-50495666D01*
X205438491Y-50550842D01*
X205392359Y-50601742D01*
X205341459Y-50647874D01*
X205286283Y-50688796D01*
X205227362Y-50724112D01*
X205165262Y-50753483D01*
X205100583Y-50776625D01*
X205033947Y-50793317D01*
X204965996Y-50803396D01*
X204897384Y-50806767D01*
X204397384Y-50806767D01*
X204328772Y-50803396D01*
X204260821Y-50793317D01*
X204194185Y-50776625D01*
X204129506Y-50753483D01*
X204067406Y-50724112D01*
X204008485Y-50688796D01*
X203953309Y-50647874D01*
X203902409Y-50601742D01*
X203856277Y-50550842D01*
X203815355Y-50495666D01*
X203780039Y-50436745D01*
X203750668Y-50374645D01*
X203727526Y-50309966D01*
X203710834Y-50243330D01*
X203700755Y-50175379D01*
X203697384Y-50106767D01*
X203697384Y-50106765D01*
X203700755Y-50038153D01*
X203710834Y-49970202D01*
X203727526Y-49903566D01*
X203750668Y-49838887D01*
X203780039Y-49776787D01*
X203815355Y-49717866D01*
X203856277Y-49662690D01*
X203902409Y-49611790D01*
X203953309Y-49565658D01*
X204008485Y-49524736D01*
X204067406Y-49489420D01*
X204129506Y-49460049D01*
X204194185Y-49436907D01*
X204260821Y-49420215D01*
X204328772Y-49410136D01*
X204397384Y-49406765D01*
X204897384Y-49406765D01*
X204965996Y-49410136D01*
X204965996Y-49410136D01*
G37*
D24*
X204647384Y-50106766D03*
D25*
X204647384Y-49856766D03*
X204647384Y-49056766D03*
%TD*%
D15*
%TO.C,BT3*%
X234792143Y-86038622D03*
X234792143Y-30038622D03*
D16*
X234792143Y-22038622D03*
D17*
X234792143Y-94038622D03*
%TD*%
D15*
%TO.C,BT2*%
X214035142Y-30051621D03*
X214035142Y-86051621D03*
D16*
X214035142Y-94051621D03*
D17*
X214035142Y-22051621D03*
%TD*%
D26*
%TO.C,U2*%
X201909046Y-58677707D03*
X202409046Y-58677707D03*
X202909046Y-58677707D03*
X203409046Y-58677707D03*
D27*
X204134046Y-57952707D03*
X204134046Y-57452707D03*
X204134046Y-56952707D03*
X204134046Y-56452707D03*
D26*
X203409046Y-55727707D03*
X202909046Y-55727707D03*
X202409046Y-55727707D03*
X201909046Y-55727707D03*
D27*
X201184046Y-56452707D03*
X201184046Y-56952707D03*
X201184046Y-57452707D03*
X201184046Y-57952707D03*
D28*
X202659046Y-57202707D03*
%TD*%
D29*
%TO.C,Q3*%
X208645384Y-48146766D03*
X207695384Y-48146766D03*
X206745384Y-48146766D03*
X206745384Y-50766766D03*
X207695384Y-50766766D03*
X208645384Y-50766766D03*
%TD*%
D30*
%TO.C,Q1*%
X220969384Y-77921766D03*
X221919384Y-77921766D03*
X222869384Y-77921766D03*
X222869384Y-75601766D03*
X221919384Y-75601766D03*
X220969384Y-75601766D03*
%TD*%
%TO.C,Q2*%
X229224384Y-75601766D03*
X230174384Y-75601766D03*
X231124384Y-75601766D03*
X231124384Y-77921766D03*
X230174384Y-77921766D03*
X229224384Y-77921766D03*
%TD*%
D31*
%TO.C,C19*%
X217474384Y-75886766D03*
X217474384Y-77636766D03*
%TD*%
%TO.C,C3*%
X233095384Y-61888766D03*
X233095384Y-60138766D03*
%TD*%
D32*
%TO.C,C5*%
X222540384Y-51869766D03*
X220790384Y-51869766D03*
%TD*%
%TO.C,C7*%
X227747384Y-55425766D03*
X225997384Y-55425766D03*
%TD*%
%TO.C,C8*%
X227747384Y-57203766D03*
X225997384Y-57203766D03*
%TD*%
D31*
%TO.C,C12*%
X224332384Y-66760793D03*
X224332384Y-68510793D03*
%TD*%
%TO.C,C13*%
X226237384Y-66742766D03*
X226237384Y-68492766D03*
%TD*%
%TO.C,C20*%
X225094384Y-75886766D03*
X225094384Y-77636766D03*
%TD*%
%TO.C,C15*%
X207695384Y-58313766D03*
X207695384Y-56563766D03*
%TD*%
%TO.C,C16*%
X205917384Y-58313766D03*
X205917384Y-56563766D03*
%TD*%
D32*
%TO.C,C18*%
X225997384Y-53520766D03*
X227747384Y-53520766D03*
%TD*%
%TO.C,C11*%
X225969384Y-65077766D03*
X224219384Y-65077766D03*
%TD*%
D33*
%TO.C,Cin1*%
X229031384Y-85336766D03*
X229031384Y-83426766D03*
%TD*%
%TO.C,C1*%
X230428384Y-63995766D03*
X230428384Y-65905766D03*
%TD*%
%TO.C,C2*%
X230428384Y-60058766D03*
X230428384Y-61968766D03*
%TD*%
%TO.C,C6*%
X222046384Y-54724766D03*
X222046384Y-56634766D03*
%TD*%
D34*
%TO.C,C21*%
X221477384Y-65585766D03*
X219567384Y-65585766D03*
%TD*%
%TO.C,C22*%
X216171894Y-43215578D03*
X214261894Y-43215578D03*
%TD*%
D35*
%TO.C,C17*%
X197281384Y-58562766D03*
X197281384Y-55552766D03*
%TD*%
D36*
%TO.C,C10*%
X213711894Y-45755578D03*
X216721894Y-45755578D03*
%TD*%
%TO.C,C9*%
X216721894Y-48295578D03*
X213711894Y-48295578D03*
%TD*%
%TO.C,C4*%
X221519384Y-68379766D03*
X218509384Y-68379766D03*
%TD*%
%TO.C,C14*%
X198062384Y-52739766D03*
X201072384Y-52739766D03*
%TD*%
D16*
%TO.C,J1*%
X221665384Y-90350766D03*
D23*
G36*
X222848699Y-94654859D02*
X222931211Y-94667099D01*
X223012126Y-94687367D01*
X223090665Y-94715468D01*
X223166071Y-94751133D01*
X223237619Y-94794017D01*
X223304618Y-94843707D01*
X223366425Y-94899725D01*
X223422443Y-94961532D01*
X223472133Y-95028531D01*
X223515017Y-95100079D01*
X223550682Y-95175485D01*
X223578783Y-95254024D01*
X223599051Y-95334939D01*
X223611291Y-95417451D01*
X223615384Y-95500766D01*
X223615384Y-97200766D01*
X223611291Y-97284081D01*
X223599051Y-97366593D01*
X223578783Y-97447508D01*
X223550682Y-97526047D01*
X223515017Y-97601453D01*
X223472133Y-97673001D01*
X223422443Y-97740000D01*
X223366425Y-97801807D01*
X223304618Y-97857825D01*
X223237619Y-97907515D01*
X223166071Y-97950399D01*
X223090665Y-97986064D01*
X223012126Y-98014165D01*
X222931211Y-98034433D01*
X222848699Y-98046673D01*
X222765384Y-98050766D01*
X220565384Y-98050766D01*
X220482069Y-98046673D01*
X220399557Y-98034433D01*
X220318642Y-98014165D01*
X220240103Y-97986064D01*
X220164697Y-97950399D01*
X220093149Y-97907515D01*
X220026150Y-97857825D01*
X219964343Y-97801807D01*
X219908325Y-97740000D01*
X219858635Y-97673001D01*
X219815751Y-97601453D01*
X219780086Y-97526047D01*
X219751985Y-97447508D01*
X219731717Y-97366593D01*
X219719477Y-97284081D01*
X219715384Y-97200766D01*
X219715384Y-95500766D01*
X219719477Y-95417451D01*
X219731717Y-95334939D01*
X219751985Y-95254024D01*
X219780086Y-95175485D01*
X219815751Y-95100079D01*
X219858635Y-95028531D01*
X219908325Y-94961532D01*
X219964343Y-94899725D01*
X220026150Y-94843707D01*
X220093149Y-94794017D01*
X220164697Y-94751133D01*
X220240103Y-94715468D01*
X220318642Y-94687367D01*
X220399557Y-94667099D01*
X220482069Y-94654859D01*
X220565384Y-94650766D01*
X222765384Y-94650766D01*
X222848699Y-94654859D01*
X222848699Y-94654859D01*
G37*
D37*
X221665384Y-96350766D03*
D23*
G36*
X227435951Y-91405461D02*
X227530597Y-91419500D01*
X227623412Y-91442749D01*
X227713500Y-91474983D01*
X227799996Y-91515893D01*
X227882065Y-91565083D01*
X227958917Y-91622081D01*
X228029813Y-91686337D01*
X228094069Y-91757233D01*
X228151067Y-91834085D01*
X228200257Y-91916154D01*
X228241167Y-92002650D01*
X228273401Y-92092738D01*
X228296650Y-92185553D01*
X228310689Y-92280199D01*
X228315384Y-92375766D01*
X228315384Y-94325766D01*
X228310689Y-94421333D01*
X228296650Y-94515979D01*
X228273401Y-94608794D01*
X228241167Y-94698882D01*
X228200257Y-94785378D01*
X228151067Y-94867447D01*
X228094069Y-94944299D01*
X228029813Y-95015195D01*
X227958917Y-95079451D01*
X227882065Y-95136449D01*
X227799996Y-95185639D01*
X227713500Y-95226549D01*
X227623412Y-95258783D01*
X227530597Y-95282032D01*
X227435951Y-95296071D01*
X227340384Y-95300766D01*
X225390384Y-95300766D01*
X225294817Y-95296071D01*
X225200171Y-95282032D01*
X225107356Y-95258783D01*
X225017268Y-95226549D01*
X224930772Y-95185639D01*
X224848703Y-95136449D01*
X224771851Y-95079451D01*
X224700955Y-95015195D01*
X224636699Y-94944299D01*
X224579701Y-94867447D01*
X224530511Y-94785378D01*
X224489601Y-94698882D01*
X224457367Y-94608794D01*
X224434118Y-94515979D01*
X224420079Y-94421333D01*
X224415384Y-94325766D01*
X224415384Y-92375766D01*
X224420079Y-92280199D01*
X224434118Y-92185553D01*
X224457367Y-92092738D01*
X224489601Y-92002650D01*
X224530511Y-91916154D01*
X224579701Y-91834085D01*
X224636699Y-91757233D01*
X224700955Y-91686337D01*
X224771851Y-91622081D01*
X224848703Y-91565083D01*
X224930772Y-91515893D01*
X225017268Y-91474983D01*
X225107356Y-91442749D01*
X225200171Y-91419500D01*
X225294817Y-91405461D01*
X225390384Y-91400766D01*
X227340384Y-91400766D01*
X227435951Y-91405461D01*
X227435951Y-91405461D01*
G37*
D17*
X226365384Y-93350766D03*
%TD*%
D33*
%TO.C,D3*%
X235381384Y-65011766D03*
X235381384Y-66921766D03*
%TD*%
D38*
%TO.C,D2*%
X212902384Y-65586766D03*
X212902384Y-68886766D03*
%TD*%
D39*
%TO.C,D1*%
X215949384Y-71681766D03*
X212649384Y-71681766D03*
%TD*%
D40*
%TO.C,L2*%
X192709384Y-61165766D03*
X192709384Y-66665766D03*
%TD*%
D41*
%TO.C,L1*%
X220039384Y-59616766D03*
X213639384Y-59616766D03*
%TD*%
D25*
%TO.C,J2*%
X232968384Y-56930766D03*
X232968384Y-57730766D03*
D23*
G36*
X233286996Y-57284136D02*
X233354947Y-57294215D01*
X233421583Y-57310907D01*
X233486262Y-57334049D01*
X233548362Y-57363420D01*
X233607283Y-57398736D01*
X233662459Y-57439658D01*
X233713359Y-57485790D01*
X233759491Y-57536690D01*
X233800413Y-57591866D01*
X233835729Y-57650787D01*
X233865100Y-57712887D01*
X233888242Y-57777566D01*
X233904934Y-57844202D01*
X233915013Y-57912153D01*
X233918384Y-57980765D01*
X233918384Y-57980767D01*
X233915013Y-58049379D01*
X233904934Y-58117330D01*
X233888242Y-58183966D01*
X233865100Y-58248645D01*
X233835729Y-58310745D01*
X233800413Y-58369666D01*
X233759491Y-58424842D01*
X233713359Y-58475742D01*
X233662459Y-58521874D01*
X233607283Y-58562796D01*
X233548362Y-58598112D01*
X233486262Y-58627483D01*
X233421583Y-58650625D01*
X233354947Y-58667317D01*
X233286996Y-58677396D01*
X233218384Y-58680767D01*
X232718384Y-58680767D01*
X232649772Y-58677396D01*
X232581821Y-58667317D01*
X232515185Y-58650625D01*
X232450506Y-58627483D01*
X232388406Y-58598112D01*
X232329485Y-58562796D01*
X232274309Y-58521874D01*
X232223409Y-58475742D01*
X232177277Y-58424842D01*
X232136355Y-58369666D01*
X232101039Y-58310745D01*
X232071668Y-58248645D01*
X232048526Y-58183966D01*
X232031834Y-58117330D01*
X232021755Y-58049379D01*
X232018384Y-57980767D01*
X232018384Y-57980765D01*
X232021755Y-57912153D01*
X232031834Y-57844202D01*
X232048526Y-57777566D01*
X232071668Y-57712887D01*
X232101039Y-57650787D01*
X232136355Y-57591866D01*
X232177277Y-57536690D01*
X232223409Y-57485790D01*
X232274309Y-57439658D01*
X232329485Y-57398736D01*
X232388406Y-57363420D01*
X232450506Y-57334049D01*
X232515185Y-57310907D01*
X232581821Y-57294215D01*
X232649772Y-57284136D01*
X232718384Y-57280765D01*
X233218384Y-57280765D01*
X233286996Y-57284136D01*
X233286996Y-57284136D01*
G37*
D24*
X232968384Y-57980766D03*
D23*
G36*
X233286996Y-55984136D02*
X233354947Y-55994215D01*
X233421583Y-56010907D01*
X233486262Y-56034049D01*
X233548362Y-56063420D01*
X233607283Y-56098736D01*
X233662459Y-56139658D01*
X233713359Y-56185790D01*
X233759491Y-56236690D01*
X233800413Y-56291866D01*
X233835729Y-56350787D01*
X233865100Y-56412887D01*
X233888242Y-56477566D01*
X233904934Y-56544202D01*
X233915013Y-56612153D01*
X233918384Y-56680765D01*
X233918384Y-56680767D01*
X233915013Y-56749379D01*
X233904934Y-56817330D01*
X233888242Y-56883966D01*
X233865100Y-56948645D01*
X233835729Y-57010745D01*
X233800413Y-57069666D01*
X233759491Y-57124842D01*
X233713359Y-57175742D01*
X233662459Y-57221874D01*
X233607283Y-57262796D01*
X233548362Y-57298112D01*
X233486262Y-57327483D01*
X233421583Y-57350625D01*
X233354947Y-57367317D01*
X233286996Y-57377396D01*
X233218384Y-57380767D01*
X232718384Y-57380767D01*
X232649772Y-57377396D01*
X232581821Y-57367317D01*
X232515185Y-57350625D01*
X232450506Y-57327483D01*
X232388406Y-57298112D01*
X232329485Y-57262796D01*
X232274309Y-57221874D01*
X232223409Y-57175742D01*
X232177277Y-57124842D01*
X232136355Y-57069666D01*
X232101039Y-57010745D01*
X232071668Y-56948645D01*
X232048526Y-56883966D01*
X232031834Y-56817330D01*
X232021755Y-56749379D01*
X232018384Y-56680767D01*
X232018384Y-56680765D01*
X232021755Y-56612153D01*
X232031834Y-56544202D01*
X232048526Y-56477566D01*
X232071668Y-56412887D01*
X232101039Y-56350787D01*
X232136355Y-56291866D01*
X232177277Y-56236690D01*
X232223409Y-56185790D01*
X232274309Y-56139658D01*
X232329485Y-56098736D01*
X232388406Y-56063420D01*
X232450506Y-56034049D01*
X232515185Y-56010907D01*
X232581821Y-55994215D01*
X232649772Y-55984136D01*
X232718384Y-55980765D01*
X233218384Y-55980765D01*
X233286996Y-55984136D01*
X233286996Y-55984136D01*
G37*
D24*
X232968384Y-56680766D03*
%TD*%
D23*
%TO.C,J3*%
G36*
X230746996Y-57284136D02*
X230814947Y-57294215D01*
X230881583Y-57310907D01*
X230946262Y-57334049D01*
X231008362Y-57363420D01*
X231067283Y-57398736D01*
X231122459Y-57439658D01*
X231173359Y-57485790D01*
X231219491Y-57536690D01*
X231260413Y-57591866D01*
X231295729Y-57650787D01*
X231325100Y-57712887D01*
X231348242Y-57777566D01*
X231364934Y-57844202D01*
X231375013Y-57912153D01*
X231378384Y-57980765D01*
X231378384Y-57980767D01*
X231375013Y-58049379D01*
X231364934Y-58117330D01*
X231348242Y-58183966D01*
X231325100Y-58248645D01*
X231295729Y-58310745D01*
X231260413Y-58369666D01*
X231219491Y-58424842D01*
X231173359Y-58475742D01*
X231122459Y-58521874D01*
X231067283Y-58562796D01*
X231008362Y-58598112D01*
X230946262Y-58627483D01*
X230881583Y-58650625D01*
X230814947Y-58667317D01*
X230746996Y-58677396D01*
X230678384Y-58680767D01*
X230178384Y-58680767D01*
X230109772Y-58677396D01*
X230041821Y-58667317D01*
X229975185Y-58650625D01*
X229910506Y-58627483D01*
X229848406Y-58598112D01*
X229789485Y-58562796D01*
X229734309Y-58521874D01*
X229683409Y-58475742D01*
X229637277Y-58424842D01*
X229596355Y-58369666D01*
X229561039Y-58310745D01*
X229531668Y-58248645D01*
X229508526Y-58183966D01*
X229491834Y-58117330D01*
X229481755Y-58049379D01*
X229478384Y-57980767D01*
X229478384Y-57980765D01*
X229481755Y-57912153D01*
X229491834Y-57844202D01*
X229508526Y-57777566D01*
X229531668Y-57712887D01*
X229561039Y-57650787D01*
X229596355Y-57591866D01*
X229637277Y-57536690D01*
X229683409Y-57485790D01*
X229734309Y-57439658D01*
X229789485Y-57398736D01*
X229848406Y-57363420D01*
X229910506Y-57334049D01*
X229975185Y-57310907D01*
X230041821Y-57294215D01*
X230109772Y-57284136D01*
X230178384Y-57280765D01*
X230678384Y-57280765D01*
X230746996Y-57284136D01*
X230746996Y-57284136D01*
G37*
D24*
X230428384Y-57980766D03*
D23*
G36*
X230746996Y-55984136D02*
X230814947Y-55994215D01*
X230881583Y-56010907D01*
X230946262Y-56034049D01*
X231008362Y-56063420D01*
X231067283Y-56098736D01*
X231122459Y-56139658D01*
X231173359Y-56185790D01*
X231219491Y-56236690D01*
X231260413Y-56291866D01*
X231295729Y-56350787D01*
X231325100Y-56412887D01*
X231348242Y-56477566D01*
X231364934Y-56544202D01*
X231375013Y-56612153D01*
X231378384Y-56680765D01*
X231378384Y-56680767D01*
X231375013Y-56749379D01*
X231364934Y-56817330D01*
X231348242Y-56883966D01*
X231325100Y-56948645D01*
X231295729Y-57010745D01*
X231260413Y-57069666D01*
X231219491Y-57124842D01*
X231173359Y-57175742D01*
X231122459Y-57221874D01*
X231067283Y-57262796D01*
X231008362Y-57298112D01*
X230946262Y-57327483D01*
X230881583Y-57350625D01*
X230814947Y-57367317D01*
X230746996Y-57377396D01*
X230678384Y-57380767D01*
X230178384Y-57380767D01*
X230109772Y-57377396D01*
X230041821Y-57367317D01*
X229975185Y-57350625D01*
X229910506Y-57327483D01*
X229848406Y-57298112D01*
X229789485Y-57262796D01*
X229734309Y-57221874D01*
X229683409Y-57175742D01*
X229637277Y-57124842D01*
X229596355Y-57069666D01*
X229561039Y-57010745D01*
X229531668Y-56948645D01*
X229508526Y-56883966D01*
X229491834Y-56817330D01*
X229481755Y-56749379D01*
X229478384Y-56680767D01*
X229478384Y-56680765D01*
X229481755Y-56612153D01*
X229491834Y-56544202D01*
X229508526Y-56477566D01*
X229531668Y-56412887D01*
X229561039Y-56350787D01*
X229596355Y-56291866D01*
X229637277Y-56236690D01*
X229683409Y-56185790D01*
X229734309Y-56139658D01*
X229789485Y-56098736D01*
X229848406Y-56063420D01*
X229910506Y-56034049D01*
X229975185Y-56010907D01*
X230041821Y-55994215D01*
X230109772Y-55984136D01*
X230178384Y-55980765D01*
X230678384Y-55980765D01*
X230746996Y-55984136D01*
X230746996Y-55984136D01*
G37*
D24*
X230428384Y-56680766D03*
D25*
X230428384Y-56930766D03*
X230428384Y-57730766D03*
%TD*%
%TO.C,J4*%
X198043384Y-94541766D03*
X198043384Y-93741766D03*
D23*
G36*
X198361996Y-92795136D02*
X198429947Y-92805215D01*
X198496583Y-92821907D01*
X198561262Y-92845049D01*
X198623362Y-92874420D01*
X198682283Y-92909736D01*
X198737459Y-92950658D01*
X198788359Y-92996790D01*
X198834491Y-93047690D01*
X198875413Y-93102866D01*
X198910729Y-93161787D01*
X198940100Y-93223887D01*
X198963242Y-93288566D01*
X198979934Y-93355202D01*
X198990013Y-93423153D01*
X198993384Y-93491765D01*
X198993384Y-93491767D01*
X198990013Y-93560379D01*
X198979934Y-93628330D01*
X198963242Y-93694966D01*
X198940100Y-93759645D01*
X198910729Y-93821745D01*
X198875413Y-93880666D01*
X198834491Y-93935842D01*
X198788359Y-93986742D01*
X198737459Y-94032874D01*
X198682283Y-94073796D01*
X198623362Y-94109112D01*
X198561262Y-94138483D01*
X198496583Y-94161625D01*
X198429947Y-94178317D01*
X198361996Y-94188396D01*
X198293384Y-94191767D01*
X197793384Y-94191767D01*
X197724772Y-94188396D01*
X197656821Y-94178317D01*
X197590185Y-94161625D01*
X197525506Y-94138483D01*
X197463406Y-94109112D01*
X197404485Y-94073796D01*
X197349309Y-94032874D01*
X197298409Y-93986742D01*
X197252277Y-93935842D01*
X197211355Y-93880666D01*
X197176039Y-93821745D01*
X197146668Y-93759645D01*
X197123526Y-93694966D01*
X197106834Y-93628330D01*
X197096755Y-93560379D01*
X197093384Y-93491767D01*
X197093384Y-93491765D01*
X197096755Y-93423153D01*
X197106834Y-93355202D01*
X197123526Y-93288566D01*
X197146668Y-93223887D01*
X197176039Y-93161787D01*
X197211355Y-93102866D01*
X197252277Y-93047690D01*
X197298409Y-92996790D01*
X197349309Y-92950658D01*
X197404485Y-92909736D01*
X197463406Y-92874420D01*
X197525506Y-92845049D01*
X197590185Y-92821907D01*
X197656821Y-92805215D01*
X197724772Y-92795136D01*
X197793384Y-92791765D01*
X198293384Y-92791765D01*
X198361996Y-92795136D01*
X198361996Y-92795136D01*
G37*
D24*
X198043384Y-93491766D03*
D23*
G36*
X198361996Y-94095136D02*
X198429947Y-94105215D01*
X198496583Y-94121907D01*
X198561262Y-94145049D01*
X198623362Y-94174420D01*
X198682283Y-94209736D01*
X198737459Y-94250658D01*
X198788359Y-94296790D01*
X198834491Y-94347690D01*
X198875413Y-94402866D01*
X198910729Y-94461787D01*
X198940100Y-94523887D01*
X198963242Y-94588566D01*
X198979934Y-94655202D01*
X198990013Y-94723153D01*
X198993384Y-94791765D01*
X198993384Y-94791767D01*
X198990013Y-94860379D01*
X198979934Y-94928330D01*
X198963242Y-94994966D01*
X198940100Y-95059645D01*
X198910729Y-95121745D01*
X198875413Y-95180666D01*
X198834491Y-95235842D01*
X198788359Y-95286742D01*
X198737459Y-95332874D01*
X198682283Y-95373796D01*
X198623362Y-95409112D01*
X198561262Y-95438483D01*
X198496583Y-95461625D01*
X198429947Y-95478317D01*
X198361996Y-95488396D01*
X198293384Y-95491767D01*
X197793384Y-95491767D01*
X197724772Y-95488396D01*
X197656821Y-95478317D01*
X197590185Y-95461625D01*
X197525506Y-95438483D01*
X197463406Y-95409112D01*
X197404485Y-95373796D01*
X197349309Y-95332874D01*
X197298409Y-95286742D01*
X197252277Y-95235842D01*
X197211355Y-95180666D01*
X197176039Y-95121745D01*
X197146668Y-95059645D01*
X197123526Y-94994966D01*
X197106834Y-94928330D01*
X197096755Y-94860379D01*
X197093384Y-94791767D01*
X197093384Y-94791765D01*
X197096755Y-94723153D01*
X197106834Y-94655202D01*
X197123526Y-94588566D01*
X197146668Y-94523887D01*
X197176039Y-94461787D01*
X197211355Y-94402866D01*
X197252277Y-94347690D01*
X197298409Y-94296790D01*
X197349309Y-94250658D01*
X197404485Y-94209736D01*
X197463406Y-94174420D01*
X197525506Y-94145049D01*
X197590185Y-94121907D01*
X197656821Y-94105215D01*
X197724772Y-94095136D01*
X197793384Y-94091765D01*
X198293384Y-94091765D01*
X198361996Y-94095136D01*
X198361996Y-94095136D01*
G37*
D24*
X198043384Y-94791766D03*
%TD*%
D23*
%TO.C,J5*%
G36*
X208510997Y-21078137D02*
X208578948Y-21088216D01*
X208645584Y-21104908D01*
X208710263Y-21128050D01*
X208772363Y-21157421D01*
X208831284Y-21192737D01*
X208886460Y-21233659D01*
X208937360Y-21279791D01*
X208983492Y-21330691D01*
X209024414Y-21385867D01*
X209059730Y-21444788D01*
X209089101Y-21506888D01*
X209112243Y-21571567D01*
X209128935Y-21638203D01*
X209139014Y-21706154D01*
X209142385Y-21774766D01*
X209142385Y-22274766D01*
X209139014Y-22343378D01*
X209128935Y-22411329D01*
X209112243Y-22477965D01*
X209089101Y-22542644D01*
X209059730Y-22604744D01*
X209024414Y-22663665D01*
X208983492Y-22718841D01*
X208937360Y-22769741D01*
X208886460Y-22815873D01*
X208831284Y-22856795D01*
X208772363Y-22892111D01*
X208710263Y-22921482D01*
X208645584Y-22944624D01*
X208578948Y-22961316D01*
X208510997Y-22971395D01*
X208442385Y-22974766D01*
X208442383Y-22974766D01*
X208373771Y-22971395D01*
X208305820Y-22961316D01*
X208239184Y-22944624D01*
X208174505Y-22921482D01*
X208112405Y-22892111D01*
X208053484Y-22856795D01*
X207998308Y-22815873D01*
X207947408Y-22769741D01*
X207901276Y-22718841D01*
X207860354Y-22663665D01*
X207825038Y-22604744D01*
X207795667Y-22542644D01*
X207772525Y-22477965D01*
X207755833Y-22411329D01*
X207745754Y-22343378D01*
X207742383Y-22274766D01*
X207742383Y-21774766D01*
X207745754Y-21706154D01*
X207755833Y-21638203D01*
X207772525Y-21571567D01*
X207795667Y-21506888D01*
X207825038Y-21444788D01*
X207860354Y-21385867D01*
X207901276Y-21330691D01*
X207947408Y-21279791D01*
X207998308Y-21233659D01*
X208053484Y-21192737D01*
X208112405Y-21157421D01*
X208174505Y-21128050D01*
X208239184Y-21104908D01*
X208305820Y-21088216D01*
X208373771Y-21078137D01*
X208442383Y-21074766D01*
X208442385Y-21074766D01*
X208510997Y-21078137D01*
X208510997Y-21078137D01*
G37*
D24*
X208442384Y-22024766D03*
D23*
G36*
X209810997Y-21078137D02*
X209878948Y-21088216D01*
X209945584Y-21104908D01*
X210010263Y-21128050D01*
X210072363Y-21157421D01*
X210131284Y-21192737D01*
X210186460Y-21233659D01*
X210237360Y-21279791D01*
X210283492Y-21330691D01*
X210324414Y-21385867D01*
X210359730Y-21444788D01*
X210389101Y-21506888D01*
X210412243Y-21571567D01*
X210428935Y-21638203D01*
X210439014Y-21706154D01*
X210442385Y-21774766D01*
X210442385Y-22274766D01*
X210439014Y-22343378D01*
X210428935Y-22411329D01*
X210412243Y-22477965D01*
X210389101Y-22542644D01*
X210359730Y-22604744D01*
X210324414Y-22663665D01*
X210283492Y-22718841D01*
X210237360Y-22769741D01*
X210186460Y-22815873D01*
X210131284Y-22856795D01*
X210072363Y-22892111D01*
X210010263Y-22921482D01*
X209945584Y-22944624D01*
X209878948Y-22961316D01*
X209810997Y-22971395D01*
X209742385Y-22974766D01*
X209742383Y-22974766D01*
X209673771Y-22971395D01*
X209605820Y-22961316D01*
X209539184Y-22944624D01*
X209474505Y-22921482D01*
X209412405Y-22892111D01*
X209353484Y-22856795D01*
X209298308Y-22815873D01*
X209247408Y-22769741D01*
X209201276Y-22718841D01*
X209160354Y-22663665D01*
X209125038Y-22604744D01*
X209095667Y-22542644D01*
X209072525Y-22477965D01*
X209055833Y-22411329D01*
X209045754Y-22343378D01*
X209042383Y-22274766D01*
X209042383Y-21774766D01*
X209045754Y-21706154D01*
X209055833Y-21638203D01*
X209072525Y-21571567D01*
X209095667Y-21506888D01*
X209125038Y-21444788D01*
X209160354Y-21385867D01*
X209201276Y-21330691D01*
X209247408Y-21279791D01*
X209298308Y-21233659D01*
X209353484Y-21192737D01*
X209412405Y-21157421D01*
X209474505Y-21128050D01*
X209539184Y-21104908D01*
X209605820Y-21088216D01*
X209673771Y-21078137D01*
X209742383Y-21074766D01*
X209742385Y-21074766D01*
X209810997Y-21078137D01*
X209810997Y-21078137D01*
G37*
D24*
X209742384Y-22024766D03*
D42*
X209492384Y-22024766D03*
X208692384Y-22024766D03*
%TD*%
D32*
%TO.C,R8*%
X237272384Y-58981766D03*
X235522384Y-58981766D03*
%TD*%
D31*
%TO.C,R2*%
X231571384Y-52899766D03*
X231571384Y-54649766D03*
%TD*%
%TO.C,R3*%
X229666384Y-54649766D03*
X229666384Y-52899766D03*
%TD*%
%TO.C,R4*%
X230174384Y-49597766D03*
X230174384Y-51347766D03*
%TD*%
%TO.C,R5*%
X228269384Y-51347766D03*
X228269384Y-49597766D03*
%TD*%
%TO.C,R6*%
X226237384Y-51855766D03*
X226237384Y-50105766D03*
%TD*%
%TO.C,R7*%
X224332384Y-50105766D03*
X224332384Y-51855766D03*
%TD*%
D32*
%TO.C,R9*%
X235522384Y-61013766D03*
X237272384Y-61013766D03*
%TD*%
D31*
%TO.C,R11*%
X215569384Y-75886766D03*
X215569384Y-77636766D03*
%TD*%
%TO.C,R12*%
X233222384Y-77636766D03*
X233222384Y-75886766D03*
%TD*%
D32*
%TO.C,R13*%
X205903384Y-62029766D03*
X204153384Y-62029766D03*
%TD*%
D31*
%TO.C,R14*%
X224205384Y-56808766D03*
X224205384Y-55058766D03*
%TD*%
%TO.C,R15*%
X227126384Y-77636766D03*
X227126384Y-75886766D03*
%TD*%
%TO.C,R10*%
X232968384Y-66714766D03*
X232968384Y-64964766D03*
%TD*%
D35*
%TO.C,R1*%
X215950384Y-65985766D03*
X215950384Y-68995766D03*
%TD*%
D36*
%TO.C,Rac1*%
X226091384Y-71935766D03*
X223081384Y-71935766D03*
%TD*%
D35*
%TO.C,Rsr1*%
X213664384Y-50872766D03*
X213664384Y-53882766D03*
%TD*%
D43*
%TO.C,Rin1*%
X225533384Y-80317766D03*
X230243384Y-80317766D03*
%TD*%
D10*
%TO.C,J2*%
X178608384Y-88573234D03*
D11*
X176068384Y-88573234D03*
X178608384Y-86033234D03*
X176068384Y-86033234D03*
X178608384Y-83493234D03*
X176068384Y-83493234D03*
X178608384Y-80953234D03*
X176068384Y-80953234D03*
X178608384Y-78413234D03*
X176068384Y-78413234D03*
X178608384Y-75873234D03*
X176068384Y-75873234D03*
X178608384Y-73333234D03*
X176068384Y-73333234D03*
X178608384Y-70793234D03*
X176068384Y-70793234D03*
X178608384Y-68253234D03*
X176068384Y-68253234D03*
X178608384Y-65713234D03*
X176068384Y-65713234D03*
X178608384Y-63173234D03*
X176068384Y-63173234D03*
X178608384Y-60633234D03*
X176068384Y-60633234D03*
X178608384Y-58093234D03*
X176068384Y-58093234D03*
X178608384Y-55553234D03*
X176068384Y-55553234D03*
X178608384Y-53013234D03*
X176068384Y-53013234D03*
X178608384Y-50473234D03*
X176068384Y-50473234D03*
X178608384Y-47933234D03*
X176068384Y-47933234D03*
X178608384Y-45393234D03*
X176068384Y-45393234D03*
X178608384Y-42853234D03*
X176068384Y-42853234D03*
X178608384Y-40313234D03*
X176068384Y-40313234D03*
X178608384Y-37773234D03*
X176068384Y-37773234D03*
X178608384Y-35233234D03*
X176068384Y-35233234D03*
X178608384Y-32693234D03*
X176068384Y-32693234D03*
X178608384Y-30153234D03*
X176068384Y-30153234D03*
X178608384Y-27613234D03*
X176068384Y-27613234D03*
D10*
X122908384Y-89973234D03*
D11*
X120368384Y-89973234D03*
X122908384Y-87433234D03*
X120368384Y-87433234D03*
X122908384Y-84893234D03*
X120368384Y-84893234D03*
X122908384Y-82353234D03*
X120368384Y-82353234D03*
X122908384Y-79813234D03*
X120368384Y-79813234D03*
X122908384Y-77273234D03*
X120368384Y-77273234D03*
X122908384Y-74733234D03*
X120368384Y-74733234D03*
X122908384Y-72193234D03*
X120368384Y-72193234D03*
X122908384Y-69653234D03*
X120368384Y-69653234D03*
X122908384Y-67113234D03*
X120368384Y-67113234D03*
X122908384Y-64573234D03*
X120368384Y-64573234D03*
X122908384Y-62033234D03*
X120368384Y-62033234D03*
X122908384Y-59493234D03*
X120368384Y-59493234D03*
X122908384Y-56953234D03*
X120368384Y-56953234D03*
X122908384Y-54413234D03*
X120368384Y-54413234D03*
D10*
X122932923Y-49173009D03*
D11*
X120392923Y-49173009D03*
X122932923Y-46633009D03*
X120392923Y-46633009D03*
X122932923Y-44093009D03*
X120392923Y-44093009D03*
X122932923Y-41553009D03*
X120392923Y-41553009D03*
X122932923Y-39013009D03*
X120392923Y-39013009D03*
X122932923Y-36473009D03*
X120392923Y-36473009D03*
X122932923Y-33933009D03*
X120392923Y-33933009D03*
X122932923Y-31393009D03*
X120392923Y-31393009D03*
X122932923Y-28853009D03*
X120392923Y-28853009D03*
X122932923Y-26313009D03*
X120392923Y-26313009D03*
D18*
X132658384Y-15673234D03*
X166658384Y-15673234D03*
X166658384Y-100673234D03*
X132658384Y-100673234D03*
%TD*%
D44*
%TO.C,U1*%
X148004381Y-67986017D03*
D23*
G36*
X148435716Y-67073849D02*
X148916549Y-67554682D01*
X147573046Y-68898185D01*
X147092213Y-68417352D01*
X148435716Y-67073849D01*
X148435716Y-67073849D01*
G37*
D44*
X147650828Y-67632464D03*
D23*
G36*
X148082163Y-66720296D02*
X148562996Y-67201129D01*
X147219493Y-68544632D01*
X146738660Y-68063799D01*
X148082163Y-66720296D01*
X148082163Y-66720296D01*
G37*
D44*
X147297274Y-67278910D03*
D23*
G36*
X147728609Y-66366742D02*
X148209442Y-66847575D01*
X146865939Y-68191078D01*
X146385106Y-67710245D01*
X147728609Y-66366742D01*
X147728609Y-66366742D01*
G37*
D44*
X146943721Y-66925357D03*
D23*
G36*
X147375056Y-66013189D02*
X147855889Y-66494022D01*
X146512386Y-67837525D01*
X146031553Y-67356692D01*
X147375056Y-66013189D01*
X147375056Y-66013189D01*
G37*
D44*
X146590168Y-66571804D03*
D23*
G36*
X147021503Y-65659636D02*
X147502336Y-66140469D01*
X146158833Y-67483972D01*
X145678000Y-67003139D01*
X147021503Y-65659636D01*
X147021503Y-65659636D01*
G37*
D44*
X146236614Y-66218250D03*
D23*
G36*
X146667949Y-65306082D02*
X147148782Y-65786915D01*
X145805279Y-67130418D01*
X145324446Y-66649585D01*
X146667949Y-65306082D01*
X146667949Y-65306082D01*
G37*
D44*
X145883061Y-65864697D03*
D23*
G36*
X146314396Y-64952529D02*
X146795229Y-65433362D01*
X145451726Y-66776865D01*
X144970893Y-66296032D01*
X146314396Y-64952529D01*
X146314396Y-64952529D01*
G37*
D44*
X145529507Y-65511144D03*
D23*
G36*
X145960842Y-64598976D02*
X146441675Y-65079809D01*
X145098172Y-66423312D01*
X144617339Y-65942479D01*
X145960842Y-64598976D01*
X145960842Y-64598976D01*
G37*
D44*
X145175954Y-65157590D03*
D23*
G36*
X145607289Y-64245422D02*
X146088122Y-64726255D01*
X144744619Y-66069758D01*
X144263786Y-65588925D01*
X145607289Y-64245422D01*
X145607289Y-64245422D01*
G37*
D44*
X144822401Y-64804037D03*
D23*
G36*
X145253736Y-63891869D02*
X145734569Y-64372702D01*
X144391066Y-65716205D01*
X143910233Y-65235372D01*
X145253736Y-63891869D01*
X145253736Y-63891869D01*
G37*
D44*
X144468847Y-64450483D03*
D23*
G36*
X144900182Y-63538315D02*
X145381015Y-64019148D01*
X144037512Y-65362651D01*
X143556679Y-64881818D01*
X144900182Y-63538315D01*
X144900182Y-63538315D01*
G37*
D44*
X144115294Y-64096930D03*
D23*
G36*
X144546629Y-63184762D02*
X145027462Y-63665595D01*
X143683959Y-65009098D01*
X143203126Y-64528265D01*
X144546629Y-63184762D01*
X144546629Y-63184762D01*
G37*
D44*
X143761740Y-63743377D03*
D23*
G36*
X144193075Y-62831209D02*
X144673908Y-63312042D01*
X143330405Y-64655545D01*
X142849572Y-64174712D01*
X144193075Y-62831209D01*
X144193075Y-62831209D01*
G37*
D44*
X143408187Y-63389823D03*
D23*
G36*
X143839522Y-62477655D02*
X144320355Y-62958488D01*
X142976852Y-64301991D01*
X142496019Y-63821158D01*
X143839522Y-62477655D01*
X143839522Y-62477655D01*
G37*
D44*
X143054634Y-63036270D03*
D23*
G36*
X143485969Y-62124102D02*
X143966802Y-62604935D01*
X142623299Y-63948438D01*
X142142466Y-63467605D01*
X143485969Y-62124102D01*
X143485969Y-62124102D01*
G37*
D44*
X142701080Y-62682716D03*
D23*
G36*
X143132415Y-61770548D02*
X143613248Y-62251381D01*
X142269745Y-63594884D01*
X141788912Y-63114051D01*
X143132415Y-61770548D01*
X143132415Y-61770548D01*
G37*
D44*
X142347527Y-62329163D03*
D23*
G36*
X142778862Y-61416995D02*
X143259695Y-61897828D01*
X141916192Y-63241331D01*
X141435359Y-62760498D01*
X142778862Y-61416995D01*
X142778862Y-61416995D01*
G37*
D44*
X141993973Y-61975610D03*
D23*
G36*
X142425308Y-61063442D02*
X142906141Y-61544275D01*
X141562638Y-62887778D01*
X141081805Y-62406945D01*
X142425308Y-61063442D01*
X142425308Y-61063442D01*
G37*
D44*
X141640420Y-61622056D03*
D23*
G36*
X142071755Y-60709888D02*
X142552588Y-61190721D01*
X141209085Y-62534224D01*
X140728252Y-62053391D01*
X142071755Y-60709888D01*
X142071755Y-60709888D01*
G37*
D44*
X141286867Y-61268503D03*
D23*
G36*
X141718202Y-60356335D02*
X142199035Y-60837168D01*
X140855532Y-62180671D01*
X140374699Y-61699838D01*
X141718202Y-60356335D01*
X141718202Y-60356335D01*
G37*
D44*
X140933313Y-60914949D03*
D23*
G36*
X141364648Y-60002781D02*
X141845481Y-60483614D01*
X140501978Y-61827117D01*
X140021145Y-61346284D01*
X141364648Y-60002781D01*
X141364648Y-60002781D01*
G37*
D44*
X140579760Y-60561396D03*
D23*
G36*
X141011095Y-59649228D02*
X141491928Y-60130061D01*
X140148425Y-61473564D01*
X139667592Y-60992731D01*
X141011095Y-59649228D01*
X141011095Y-59649228D01*
G37*
D44*
X140226207Y-60207843D03*
D23*
G36*
X140657542Y-59295675D02*
X141138375Y-59776508D01*
X139794872Y-61120011D01*
X139314039Y-60639178D01*
X140657542Y-59295675D01*
X140657542Y-59295675D01*
G37*
D44*
X139872653Y-59854289D03*
D23*
G36*
X140303988Y-58942121D02*
X140784821Y-59422954D01*
X139441318Y-60766457D01*
X138960485Y-60285624D01*
X140303988Y-58942121D01*
X140303988Y-58942121D01*
G37*
D44*
X139519100Y-59500736D03*
D23*
G36*
X139950435Y-58588568D02*
X140431268Y-59069401D01*
X139087765Y-60412904D01*
X138606932Y-59932071D01*
X139950435Y-58588568D01*
X139950435Y-58588568D01*
G37*
D44*
X139519100Y-56813730D03*
D23*
G36*
X140431268Y-57245065D02*
X139950435Y-57725898D01*
X138606932Y-56382395D01*
X139087765Y-55901562D01*
X140431268Y-57245065D01*
X140431268Y-57245065D01*
G37*
D44*
X139872653Y-56460177D03*
D23*
G36*
X140784821Y-56891512D02*
X140303988Y-57372345D01*
X138960485Y-56028842D01*
X139441318Y-55548009D01*
X140784821Y-56891512D01*
X140784821Y-56891512D01*
G37*
D44*
X140226207Y-56106623D03*
D23*
G36*
X141138375Y-56537958D02*
X140657542Y-57018791D01*
X139314039Y-55675288D01*
X139794872Y-55194455D01*
X141138375Y-56537958D01*
X141138375Y-56537958D01*
G37*
D44*
X140579760Y-55753070D03*
D23*
G36*
X141491928Y-56184405D02*
X141011095Y-56665238D01*
X139667592Y-55321735D01*
X140148425Y-54840902D01*
X141491928Y-56184405D01*
X141491928Y-56184405D01*
G37*
D44*
X140933313Y-55399517D03*
D23*
G36*
X141845481Y-55830852D02*
X141364648Y-56311685D01*
X140021145Y-54968182D01*
X140501978Y-54487349D01*
X141845481Y-55830852D01*
X141845481Y-55830852D01*
G37*
D44*
X141286867Y-55045963D03*
D23*
G36*
X142199035Y-55477298D02*
X141718202Y-55958131D01*
X140374699Y-54614628D01*
X140855532Y-54133795D01*
X142199035Y-55477298D01*
X142199035Y-55477298D01*
G37*
D44*
X141640420Y-54692410D03*
D23*
G36*
X142552588Y-55123745D02*
X142071755Y-55604578D01*
X140728252Y-54261075D01*
X141209085Y-53780242D01*
X142552588Y-55123745D01*
X142552588Y-55123745D01*
G37*
D44*
X141993973Y-54338856D03*
D23*
G36*
X142906141Y-54770191D02*
X142425308Y-55251024D01*
X141081805Y-53907521D01*
X141562638Y-53426688D01*
X142906141Y-54770191D01*
X142906141Y-54770191D01*
G37*
D44*
X142347527Y-53985303D03*
D23*
G36*
X143259695Y-54416638D02*
X142778862Y-54897471D01*
X141435359Y-53553968D01*
X141916192Y-53073135D01*
X143259695Y-54416638D01*
X143259695Y-54416638D01*
G37*
D44*
X142701080Y-53631750D03*
D23*
G36*
X143613248Y-54063085D02*
X143132415Y-54543918D01*
X141788912Y-53200415D01*
X142269745Y-52719582D01*
X143613248Y-54063085D01*
X143613248Y-54063085D01*
G37*
D44*
X143054634Y-53278196D03*
D23*
G36*
X143966802Y-53709531D02*
X143485969Y-54190364D01*
X142142466Y-52846861D01*
X142623299Y-52366028D01*
X143966802Y-53709531D01*
X143966802Y-53709531D01*
G37*
D44*
X143408187Y-52924643D03*
D23*
G36*
X144320355Y-53355978D02*
X143839522Y-53836811D01*
X142496019Y-52493308D01*
X142976852Y-52012475D01*
X144320355Y-53355978D01*
X144320355Y-53355978D01*
G37*
D44*
X143761740Y-52571089D03*
D23*
G36*
X144673908Y-53002424D02*
X144193075Y-53483257D01*
X142849572Y-52139754D01*
X143330405Y-51658921D01*
X144673908Y-53002424D01*
X144673908Y-53002424D01*
G37*
D44*
X144115294Y-52217536D03*
D23*
G36*
X145027462Y-52648871D02*
X144546629Y-53129704D01*
X143203126Y-51786201D01*
X143683959Y-51305368D01*
X145027462Y-52648871D01*
X145027462Y-52648871D01*
G37*
D44*
X144468847Y-51863983D03*
D23*
G36*
X145381015Y-52295318D02*
X144900182Y-52776151D01*
X143556679Y-51432648D01*
X144037512Y-50951815D01*
X145381015Y-52295318D01*
X145381015Y-52295318D01*
G37*
D44*
X144822401Y-51510429D03*
D23*
G36*
X145734569Y-51941764D02*
X145253736Y-52422597D01*
X143910233Y-51079094D01*
X144391066Y-50598261D01*
X145734569Y-51941764D01*
X145734569Y-51941764D01*
G37*
D44*
X145175954Y-51156876D03*
D23*
G36*
X146088122Y-51588211D02*
X145607289Y-52069044D01*
X144263786Y-50725541D01*
X144744619Y-50244708D01*
X146088122Y-51588211D01*
X146088122Y-51588211D01*
G37*
D44*
X145529507Y-50803322D03*
D23*
G36*
X146441675Y-51234657D02*
X145960842Y-51715490D01*
X144617339Y-50371987D01*
X145098172Y-49891154D01*
X146441675Y-51234657D01*
X146441675Y-51234657D01*
G37*
D44*
X145883061Y-50449769D03*
D23*
G36*
X146795229Y-50881104D02*
X146314396Y-51361937D01*
X144970893Y-50018434D01*
X145451726Y-49537601D01*
X146795229Y-50881104D01*
X146795229Y-50881104D01*
G37*
D44*
X146236614Y-50096216D03*
D23*
G36*
X147148782Y-50527551D02*
X146667949Y-51008384D01*
X145324446Y-49664881D01*
X145805279Y-49184048D01*
X147148782Y-50527551D01*
X147148782Y-50527551D01*
G37*
D44*
X146590168Y-49742662D03*
D23*
G36*
X147502336Y-50173997D02*
X147021503Y-50654830D01*
X145678000Y-49311327D01*
X146158833Y-48830494D01*
X147502336Y-50173997D01*
X147502336Y-50173997D01*
G37*
D44*
X146943721Y-49389109D03*
D23*
G36*
X147855889Y-49820444D02*
X147375056Y-50301277D01*
X146031553Y-48957774D01*
X146512386Y-48476941D01*
X147855889Y-49820444D01*
X147855889Y-49820444D01*
G37*
D44*
X147297274Y-49035556D03*
D23*
G36*
X148209442Y-49466891D02*
X147728609Y-49947724D01*
X146385106Y-48604221D01*
X146865939Y-48123388D01*
X148209442Y-49466891D01*
X148209442Y-49466891D01*
G37*
D44*
X147650828Y-48682002D03*
D23*
G36*
X148562996Y-49113337D02*
X148082163Y-49594170D01*
X146738660Y-48250667D01*
X147219493Y-47769834D01*
X148562996Y-49113337D01*
X148562996Y-49113337D01*
G37*
D44*
X148004381Y-48328449D03*
D23*
G36*
X148916549Y-48759784D02*
X148435716Y-49240617D01*
X147092213Y-47897114D01*
X147573046Y-47416281D01*
X148916549Y-48759784D01*
X148916549Y-48759784D01*
G37*
D44*
X150691387Y-48328449D03*
D23*
G36*
X151122722Y-47416281D02*
X151603555Y-47897114D01*
X150260052Y-49240617D01*
X149779219Y-48759784D01*
X151122722Y-47416281D01*
X151122722Y-47416281D01*
G37*
D44*
X151044940Y-48682002D03*
D23*
G36*
X151476275Y-47769834D02*
X151957108Y-48250667D01*
X150613605Y-49594170D01*
X150132772Y-49113337D01*
X151476275Y-47769834D01*
X151476275Y-47769834D01*
G37*
D44*
X151398494Y-49035556D03*
D23*
G36*
X151829829Y-48123388D02*
X152310662Y-48604221D01*
X150967159Y-49947724D01*
X150486326Y-49466891D01*
X151829829Y-48123388D01*
X151829829Y-48123388D01*
G37*
D44*
X151752047Y-49389109D03*
D23*
G36*
X152183382Y-48476941D02*
X152664215Y-48957774D01*
X151320712Y-50301277D01*
X150839879Y-49820444D01*
X152183382Y-48476941D01*
X152183382Y-48476941D01*
G37*
D44*
X152105600Y-49742662D03*
D23*
G36*
X152536935Y-48830494D02*
X153017768Y-49311327D01*
X151674265Y-50654830D01*
X151193432Y-50173997D01*
X152536935Y-48830494D01*
X152536935Y-48830494D01*
G37*
D44*
X152459154Y-50096216D03*
D23*
G36*
X152890489Y-49184048D02*
X153371322Y-49664881D01*
X152027819Y-51008384D01*
X151546986Y-50527551D01*
X152890489Y-49184048D01*
X152890489Y-49184048D01*
G37*
D44*
X152812707Y-50449769D03*
D23*
G36*
X153244042Y-49537601D02*
X153724875Y-50018434D01*
X152381372Y-51361937D01*
X151900539Y-50881104D01*
X153244042Y-49537601D01*
X153244042Y-49537601D01*
G37*
D44*
X153166261Y-50803322D03*
D23*
G36*
X153597596Y-49891154D02*
X154078429Y-50371987D01*
X152734926Y-51715490D01*
X152254093Y-51234657D01*
X153597596Y-49891154D01*
X153597596Y-49891154D01*
G37*
D44*
X153519814Y-51156876D03*
D23*
G36*
X153951149Y-50244708D02*
X154431982Y-50725541D01*
X153088479Y-52069044D01*
X152607646Y-51588211D01*
X153951149Y-50244708D01*
X153951149Y-50244708D01*
G37*
D44*
X153873367Y-51510429D03*
D23*
G36*
X154304702Y-50598261D02*
X154785535Y-51079094D01*
X153442032Y-52422597D01*
X152961199Y-51941764D01*
X154304702Y-50598261D01*
X154304702Y-50598261D01*
G37*
D44*
X154226921Y-51863983D03*
D23*
G36*
X154658256Y-50951815D02*
X155139089Y-51432648D01*
X153795586Y-52776151D01*
X153314753Y-52295318D01*
X154658256Y-50951815D01*
X154658256Y-50951815D01*
G37*
D44*
X154580474Y-52217536D03*
D23*
G36*
X155011809Y-51305368D02*
X155492642Y-51786201D01*
X154149139Y-53129704D01*
X153668306Y-52648871D01*
X155011809Y-51305368D01*
X155011809Y-51305368D01*
G37*
D44*
X154934028Y-52571089D03*
D23*
G36*
X155365363Y-51658921D02*
X155846196Y-52139754D01*
X154502693Y-53483257D01*
X154021860Y-53002424D01*
X155365363Y-51658921D01*
X155365363Y-51658921D01*
G37*
D44*
X155287581Y-52924643D03*
D23*
G36*
X155718916Y-52012475D02*
X156199749Y-52493308D01*
X154856246Y-53836811D01*
X154375413Y-53355978D01*
X155718916Y-52012475D01*
X155718916Y-52012475D01*
G37*
D44*
X155641134Y-53278196D03*
D23*
G36*
X156072469Y-52366028D02*
X156553302Y-52846861D01*
X155209799Y-54190364D01*
X154728966Y-53709531D01*
X156072469Y-52366028D01*
X156072469Y-52366028D01*
G37*
D44*
X155994688Y-53631750D03*
D23*
G36*
X156426023Y-52719582D02*
X156906856Y-53200415D01*
X155563353Y-54543918D01*
X155082520Y-54063085D01*
X156426023Y-52719582D01*
X156426023Y-52719582D01*
G37*
D44*
X156348241Y-53985303D03*
D23*
G36*
X156779576Y-53073135D02*
X157260409Y-53553968D01*
X155916906Y-54897471D01*
X155436073Y-54416638D01*
X156779576Y-53073135D01*
X156779576Y-53073135D01*
G37*
D44*
X156701795Y-54338856D03*
D23*
G36*
X157133130Y-53426688D02*
X157613963Y-53907521D01*
X156270460Y-55251024D01*
X155789627Y-54770191D01*
X157133130Y-53426688D01*
X157133130Y-53426688D01*
G37*
D44*
X157055348Y-54692410D03*
D23*
G36*
X157486683Y-53780242D02*
X157967516Y-54261075D01*
X156624013Y-55604578D01*
X156143180Y-55123745D01*
X157486683Y-53780242D01*
X157486683Y-53780242D01*
G37*
D44*
X157408901Y-55045963D03*
D23*
G36*
X157840236Y-54133795D02*
X158321069Y-54614628D01*
X156977566Y-55958131D01*
X156496733Y-55477298D01*
X157840236Y-54133795D01*
X157840236Y-54133795D01*
G37*
D44*
X157762455Y-55399517D03*
D23*
G36*
X158193790Y-54487349D02*
X158674623Y-54968182D01*
X157331120Y-56311685D01*
X156850287Y-55830852D01*
X158193790Y-54487349D01*
X158193790Y-54487349D01*
G37*
D44*
X158116008Y-55753070D03*
D23*
G36*
X158547343Y-54840902D02*
X159028176Y-55321735D01*
X157684673Y-56665238D01*
X157203840Y-56184405D01*
X158547343Y-54840902D01*
X158547343Y-54840902D01*
G37*
D44*
X158469561Y-56106623D03*
D23*
G36*
X158900896Y-55194455D02*
X159381729Y-55675288D01*
X158038226Y-57018791D01*
X157557393Y-56537958D01*
X158900896Y-55194455D01*
X158900896Y-55194455D01*
G37*
D44*
X158823115Y-56460177D03*
D23*
G36*
X159254450Y-55548009D02*
X159735283Y-56028842D01*
X158391780Y-57372345D01*
X157910947Y-56891512D01*
X159254450Y-55548009D01*
X159254450Y-55548009D01*
G37*
D44*
X159176668Y-56813730D03*
D23*
G36*
X159608003Y-55901562D02*
X160088836Y-56382395D01*
X158745333Y-57725898D01*
X158264500Y-57245065D01*
X159608003Y-55901562D01*
X159608003Y-55901562D01*
G37*
D44*
X159176668Y-59500736D03*
D23*
G36*
X160088836Y-59932071D02*
X159608003Y-60412904D01*
X158264500Y-59069401D01*
X158745333Y-58588568D01*
X160088836Y-59932071D01*
X160088836Y-59932071D01*
G37*
D44*
X158823115Y-59854289D03*
D23*
G36*
X159735283Y-60285624D02*
X159254450Y-60766457D01*
X157910947Y-59422954D01*
X158391780Y-58942121D01*
X159735283Y-60285624D01*
X159735283Y-60285624D01*
G37*
D44*
X158469561Y-60207843D03*
D23*
G36*
X159381729Y-60639178D02*
X158900896Y-61120011D01*
X157557393Y-59776508D01*
X158038226Y-59295675D01*
X159381729Y-60639178D01*
X159381729Y-60639178D01*
G37*
D44*
X158116008Y-60561396D03*
D23*
G36*
X159028176Y-60992731D02*
X158547343Y-61473564D01*
X157203840Y-60130061D01*
X157684673Y-59649228D01*
X159028176Y-60992731D01*
X159028176Y-60992731D01*
G37*
D44*
X157762455Y-60914949D03*
D23*
G36*
X158674623Y-61346284D02*
X158193790Y-61827117D01*
X156850287Y-60483614D01*
X157331120Y-60002781D01*
X158674623Y-61346284D01*
X158674623Y-61346284D01*
G37*
D44*
X157408901Y-61268503D03*
D23*
G36*
X158321069Y-61699838D02*
X157840236Y-62180671D01*
X156496733Y-60837168D01*
X156977566Y-60356335D01*
X158321069Y-61699838D01*
X158321069Y-61699838D01*
G37*
D44*
X157055348Y-61622056D03*
D23*
G36*
X157967516Y-62053391D02*
X157486683Y-62534224D01*
X156143180Y-61190721D01*
X156624013Y-60709888D01*
X157967516Y-62053391D01*
X157967516Y-62053391D01*
G37*
D44*
X156701795Y-61975610D03*
D23*
G36*
X157613963Y-62406945D02*
X157133130Y-62887778D01*
X155789627Y-61544275D01*
X156270460Y-61063442D01*
X157613963Y-62406945D01*
X157613963Y-62406945D01*
G37*
D44*
X156348241Y-62329163D03*
D23*
G36*
X157260409Y-62760498D02*
X156779576Y-63241331D01*
X155436073Y-61897828D01*
X155916906Y-61416995D01*
X157260409Y-62760498D01*
X157260409Y-62760498D01*
G37*
D44*
X155994688Y-62682716D03*
D23*
G36*
X156906856Y-63114051D02*
X156426023Y-63594884D01*
X155082520Y-62251381D01*
X155563353Y-61770548D01*
X156906856Y-63114051D01*
X156906856Y-63114051D01*
G37*
D44*
X155641134Y-63036270D03*
D23*
G36*
X156553302Y-63467605D02*
X156072469Y-63948438D01*
X154728966Y-62604935D01*
X155209799Y-62124102D01*
X156553302Y-63467605D01*
X156553302Y-63467605D01*
G37*
D44*
X155287581Y-63389823D03*
D23*
G36*
X156199749Y-63821158D02*
X155718916Y-64301991D01*
X154375413Y-62958488D01*
X154856246Y-62477655D01*
X156199749Y-63821158D01*
X156199749Y-63821158D01*
G37*
D44*
X154934028Y-63743377D03*
D23*
G36*
X155846196Y-64174712D02*
X155365363Y-64655545D01*
X154021860Y-63312042D01*
X154502693Y-62831209D01*
X155846196Y-64174712D01*
X155846196Y-64174712D01*
G37*
D44*
X154580474Y-64096930D03*
D23*
G36*
X155492642Y-64528265D02*
X155011809Y-65009098D01*
X153668306Y-63665595D01*
X154149139Y-63184762D01*
X155492642Y-64528265D01*
X155492642Y-64528265D01*
G37*
D44*
X154226921Y-64450483D03*
D23*
G36*
X155139089Y-64881818D02*
X154658256Y-65362651D01*
X153314753Y-64019148D01*
X153795586Y-63538315D01*
X155139089Y-64881818D01*
X155139089Y-64881818D01*
G37*
D44*
X153873367Y-64804037D03*
D23*
G36*
X154785535Y-65235372D02*
X154304702Y-65716205D01*
X152961199Y-64372702D01*
X153442032Y-63891869D01*
X154785535Y-65235372D01*
X154785535Y-65235372D01*
G37*
D44*
X153519814Y-65157590D03*
D23*
G36*
X154431982Y-65588925D02*
X153951149Y-66069758D01*
X152607646Y-64726255D01*
X153088479Y-64245422D01*
X154431982Y-65588925D01*
X154431982Y-65588925D01*
G37*
D44*
X153166261Y-65511144D03*
D23*
G36*
X154078429Y-65942479D02*
X153597596Y-66423312D01*
X152254093Y-65079809D01*
X152734926Y-64598976D01*
X154078429Y-65942479D01*
X154078429Y-65942479D01*
G37*
D44*
X152812707Y-65864697D03*
D23*
G36*
X153724875Y-66296032D02*
X153244042Y-66776865D01*
X151900539Y-65433362D01*
X152381372Y-64952529D01*
X153724875Y-66296032D01*
X153724875Y-66296032D01*
G37*
D44*
X152459154Y-66218250D03*
D23*
G36*
X153371322Y-66649585D02*
X152890489Y-67130418D01*
X151546986Y-65786915D01*
X152027819Y-65306082D01*
X153371322Y-66649585D01*
X153371322Y-66649585D01*
G37*
D44*
X152105600Y-66571804D03*
D23*
G36*
X153017768Y-67003139D02*
X152536935Y-67483972D01*
X151193432Y-66140469D01*
X151674265Y-65659636D01*
X153017768Y-67003139D01*
X153017768Y-67003139D01*
G37*
D44*
X151752047Y-66925357D03*
D23*
G36*
X152664215Y-67356692D02*
X152183382Y-67837525D01*
X150839879Y-66494022D01*
X151320712Y-66013189D01*
X152664215Y-67356692D01*
X152664215Y-67356692D01*
G37*
D44*
X151398494Y-67278910D03*
D23*
G36*
X152310662Y-67710245D02*
X151829829Y-68191078D01*
X150486326Y-66847575D01*
X150967159Y-66366742D01*
X152310662Y-67710245D01*
X152310662Y-67710245D01*
G37*
D44*
X151044940Y-67632464D03*
D23*
G36*
X151957108Y-68063799D02*
X151476275Y-68544632D01*
X150132772Y-67201129D01*
X150613605Y-66720296D01*
X151957108Y-68063799D01*
X151957108Y-68063799D01*
G37*
D44*
X150691387Y-67986017D03*
D23*
G36*
X151603555Y-68417352D02*
X151122722Y-68898185D01*
X149779219Y-67554682D01*
X150260052Y-67073849D01*
X151603555Y-68417352D01*
X151603555Y-68417352D01*
G37*
%TD*%
D45*
%TO.C,U4*%
X135395384Y-36268234D03*
X135395384Y-38168234D03*
X133195384Y-38168234D03*
X133195384Y-37218234D03*
X133195384Y-36268234D03*
%TD*%
D46*
%TO.C,J1*%
X133725384Y-84208234D03*
X135725384Y-84208234D03*
X137725384Y-84208234D03*
X139725384Y-84208234D03*
X141725384Y-84208234D03*
X143725384Y-84208234D03*
D47*
X145725384Y-84208234D03*
%TD*%
D25*
%TO.C,JP4*%
X134803384Y-80394234D03*
X134803384Y-81194234D03*
D23*
G36*
X135121996Y-80747604D02*
X135189947Y-80757683D01*
X135256583Y-80774375D01*
X135321262Y-80797517D01*
X135383362Y-80826888D01*
X135442283Y-80862204D01*
X135497459Y-80903126D01*
X135548359Y-80949258D01*
X135594491Y-81000158D01*
X135635413Y-81055334D01*
X135670729Y-81114255D01*
X135700100Y-81176355D01*
X135723242Y-81241034D01*
X135739934Y-81307670D01*
X135750013Y-81375621D01*
X135753384Y-81444233D01*
X135753384Y-81444235D01*
X135750013Y-81512847D01*
X135739934Y-81580798D01*
X135723242Y-81647434D01*
X135700100Y-81712113D01*
X135670729Y-81774213D01*
X135635413Y-81833134D01*
X135594491Y-81888310D01*
X135548359Y-81939210D01*
X135497459Y-81985342D01*
X135442283Y-82026264D01*
X135383362Y-82061580D01*
X135321262Y-82090951D01*
X135256583Y-82114093D01*
X135189947Y-82130785D01*
X135121996Y-82140864D01*
X135053384Y-82144235D01*
X134553384Y-82144235D01*
X134484772Y-82140864D01*
X134416821Y-82130785D01*
X134350185Y-82114093D01*
X134285506Y-82090951D01*
X134223406Y-82061580D01*
X134164485Y-82026264D01*
X134109309Y-81985342D01*
X134058409Y-81939210D01*
X134012277Y-81888310D01*
X133971355Y-81833134D01*
X133936039Y-81774213D01*
X133906668Y-81712113D01*
X133883526Y-81647434D01*
X133866834Y-81580798D01*
X133856755Y-81512847D01*
X133853384Y-81444235D01*
X133853384Y-81444233D01*
X133856755Y-81375621D01*
X133866834Y-81307670D01*
X133883526Y-81241034D01*
X133906668Y-81176355D01*
X133936039Y-81114255D01*
X133971355Y-81055334D01*
X134012277Y-81000158D01*
X134058409Y-80949258D01*
X134109309Y-80903126D01*
X134164485Y-80862204D01*
X134223406Y-80826888D01*
X134285506Y-80797517D01*
X134350185Y-80774375D01*
X134416821Y-80757683D01*
X134484772Y-80747604D01*
X134553384Y-80744233D01*
X135053384Y-80744233D01*
X135121996Y-80747604D01*
X135121996Y-80747604D01*
G37*
D24*
X134803384Y-81444234D03*
D23*
G36*
X135121996Y-79447604D02*
X135189947Y-79457683D01*
X135256583Y-79474375D01*
X135321262Y-79497517D01*
X135383362Y-79526888D01*
X135442283Y-79562204D01*
X135497459Y-79603126D01*
X135548359Y-79649258D01*
X135594491Y-79700158D01*
X135635413Y-79755334D01*
X135670729Y-79814255D01*
X135700100Y-79876355D01*
X135723242Y-79941034D01*
X135739934Y-80007670D01*
X135750013Y-80075621D01*
X135753384Y-80144233D01*
X135753384Y-80144235D01*
X135750013Y-80212847D01*
X135739934Y-80280798D01*
X135723242Y-80347434D01*
X135700100Y-80412113D01*
X135670729Y-80474213D01*
X135635413Y-80533134D01*
X135594491Y-80588310D01*
X135548359Y-80639210D01*
X135497459Y-80685342D01*
X135442283Y-80726264D01*
X135383362Y-80761580D01*
X135321262Y-80790951D01*
X135256583Y-80814093D01*
X135189947Y-80830785D01*
X135121996Y-80840864D01*
X135053384Y-80844235D01*
X134553384Y-80844235D01*
X134484772Y-80840864D01*
X134416821Y-80830785D01*
X134350185Y-80814093D01*
X134285506Y-80790951D01*
X134223406Y-80761580D01*
X134164485Y-80726264D01*
X134109309Y-80685342D01*
X134058409Y-80639210D01*
X134012277Y-80588310D01*
X133971355Y-80533134D01*
X133936039Y-80474213D01*
X133906668Y-80412113D01*
X133883526Y-80347434D01*
X133866834Y-80280798D01*
X133856755Y-80212847D01*
X133853384Y-80144235D01*
X133853384Y-80144233D01*
X133856755Y-80075621D01*
X133866834Y-80007670D01*
X133883526Y-79941034D01*
X133906668Y-79876355D01*
X133936039Y-79814255D01*
X133971355Y-79755334D01*
X134012277Y-79700158D01*
X134058409Y-79649258D01*
X134109309Y-79603126D01*
X134164485Y-79562204D01*
X134223406Y-79526888D01*
X134285506Y-79497517D01*
X134350185Y-79474375D01*
X134416821Y-79457683D01*
X134484772Y-79447604D01*
X134553384Y-79444233D01*
X135053384Y-79444233D01*
X135121996Y-79447604D01*
X135121996Y-79447604D01*
G37*
D24*
X134803384Y-80144234D03*
D48*
X134803384Y-80794234D03*
%TD*%
D49*
%TO.C,JP12*%
X163251384Y-66174234D03*
D23*
G36*
X163969997Y-65227605D02*
X164037948Y-65237684D01*
X164104584Y-65254376D01*
X164169263Y-65277518D01*
X164231363Y-65306889D01*
X164290284Y-65342205D01*
X164345460Y-65383127D01*
X164396360Y-65429259D01*
X164442492Y-65480159D01*
X164483414Y-65535335D01*
X164518730Y-65594256D01*
X164548101Y-65656356D01*
X164571243Y-65721035D01*
X164587935Y-65787671D01*
X164598014Y-65855622D01*
X164601385Y-65924234D01*
X164601385Y-66424234D01*
X164598014Y-66492846D01*
X164587935Y-66560797D01*
X164571243Y-66627433D01*
X164548101Y-66692112D01*
X164518730Y-66754212D01*
X164483414Y-66813133D01*
X164442492Y-66868309D01*
X164396360Y-66919209D01*
X164345460Y-66965341D01*
X164290284Y-67006263D01*
X164231363Y-67041579D01*
X164169263Y-67070950D01*
X164104584Y-67094092D01*
X164037948Y-67110784D01*
X163969997Y-67120863D01*
X163901385Y-67124234D01*
X163901383Y-67124234D01*
X163832771Y-67120863D01*
X163764820Y-67110784D01*
X163698184Y-67094092D01*
X163633505Y-67070950D01*
X163571405Y-67041579D01*
X163512484Y-67006263D01*
X163457308Y-66965341D01*
X163406408Y-66919209D01*
X163360276Y-66868309D01*
X163319354Y-66813133D01*
X163284038Y-66754212D01*
X163254667Y-66692112D01*
X163231525Y-66627433D01*
X163214833Y-66560797D01*
X163204754Y-66492846D01*
X163201383Y-66424234D01*
X163201383Y-65924234D01*
X163204754Y-65855622D01*
X163214833Y-65787671D01*
X163231525Y-65721035D01*
X163254667Y-65656356D01*
X163284038Y-65594256D01*
X163319354Y-65535335D01*
X163360276Y-65480159D01*
X163406408Y-65429259D01*
X163457308Y-65383127D01*
X163512484Y-65342205D01*
X163571405Y-65306889D01*
X163633505Y-65277518D01*
X163698184Y-65254376D01*
X163764820Y-65237684D01*
X163832771Y-65227605D01*
X163901383Y-65224234D01*
X163901385Y-65224234D01*
X163969997Y-65227605D01*
X163969997Y-65227605D01*
G37*
D24*
X163901384Y-66174234D03*
D23*
G36*
X162669997Y-65227605D02*
X162737948Y-65237684D01*
X162804584Y-65254376D01*
X162869263Y-65277518D01*
X162931363Y-65306889D01*
X162990284Y-65342205D01*
X163045460Y-65383127D01*
X163096360Y-65429259D01*
X163142492Y-65480159D01*
X163183414Y-65535335D01*
X163218730Y-65594256D01*
X163248101Y-65656356D01*
X163271243Y-65721035D01*
X163287935Y-65787671D01*
X163298014Y-65855622D01*
X163301385Y-65924234D01*
X163301385Y-66424234D01*
X163298014Y-66492846D01*
X163287935Y-66560797D01*
X163271243Y-66627433D01*
X163248101Y-66692112D01*
X163218730Y-66754212D01*
X163183414Y-66813133D01*
X163142492Y-66868309D01*
X163096360Y-66919209D01*
X163045460Y-66965341D01*
X162990284Y-67006263D01*
X162931363Y-67041579D01*
X162869263Y-67070950D01*
X162804584Y-67094092D01*
X162737948Y-67110784D01*
X162669997Y-67120863D01*
X162601385Y-67124234D01*
X162601383Y-67124234D01*
X162532771Y-67120863D01*
X162464820Y-67110784D01*
X162398184Y-67094092D01*
X162333505Y-67070950D01*
X162271405Y-67041579D01*
X162212484Y-67006263D01*
X162157308Y-66965341D01*
X162106408Y-66919209D01*
X162060276Y-66868309D01*
X162019354Y-66813133D01*
X161984038Y-66754212D01*
X161954667Y-66692112D01*
X161931525Y-66627433D01*
X161914833Y-66560797D01*
X161904754Y-66492846D01*
X161901383Y-66424234D01*
X161901383Y-65924234D01*
X161904754Y-65855622D01*
X161914833Y-65787671D01*
X161931525Y-65721035D01*
X161954667Y-65656356D01*
X161984038Y-65594256D01*
X162019354Y-65535335D01*
X162060276Y-65480159D01*
X162106408Y-65429259D01*
X162157308Y-65383127D01*
X162212484Y-65342205D01*
X162271405Y-65306889D01*
X162333505Y-65277518D01*
X162398184Y-65254376D01*
X162464820Y-65237684D01*
X162532771Y-65227605D01*
X162601383Y-65224234D01*
X162601385Y-65224234D01*
X162669997Y-65227605D01*
X162669997Y-65227605D01*
G37*
D24*
X162601384Y-66174234D03*
D42*
X162851384Y-66174234D03*
X163651384Y-66174234D03*
%TD*%
D25*
%TO.C,JP6*%
X137597384Y-80506234D03*
X137597384Y-81306234D03*
D23*
G36*
X137915996Y-80859604D02*
X137983947Y-80869683D01*
X138050583Y-80886375D01*
X138115262Y-80909517D01*
X138177362Y-80938888D01*
X138236283Y-80974204D01*
X138291459Y-81015126D01*
X138342359Y-81061258D01*
X138388491Y-81112158D01*
X138429413Y-81167334D01*
X138464729Y-81226255D01*
X138494100Y-81288355D01*
X138517242Y-81353034D01*
X138533934Y-81419670D01*
X138544013Y-81487621D01*
X138547384Y-81556233D01*
X138547384Y-81556235D01*
X138544013Y-81624847D01*
X138533934Y-81692798D01*
X138517242Y-81759434D01*
X138494100Y-81824113D01*
X138464729Y-81886213D01*
X138429413Y-81945134D01*
X138388491Y-82000310D01*
X138342359Y-82051210D01*
X138291459Y-82097342D01*
X138236283Y-82138264D01*
X138177362Y-82173580D01*
X138115262Y-82202951D01*
X138050583Y-82226093D01*
X137983947Y-82242785D01*
X137915996Y-82252864D01*
X137847384Y-82256235D01*
X137347384Y-82256235D01*
X137278772Y-82252864D01*
X137210821Y-82242785D01*
X137144185Y-82226093D01*
X137079506Y-82202951D01*
X137017406Y-82173580D01*
X136958485Y-82138264D01*
X136903309Y-82097342D01*
X136852409Y-82051210D01*
X136806277Y-82000310D01*
X136765355Y-81945134D01*
X136730039Y-81886213D01*
X136700668Y-81824113D01*
X136677526Y-81759434D01*
X136660834Y-81692798D01*
X136650755Y-81624847D01*
X136647384Y-81556235D01*
X136647384Y-81556233D01*
X136650755Y-81487621D01*
X136660834Y-81419670D01*
X136677526Y-81353034D01*
X136700668Y-81288355D01*
X136730039Y-81226255D01*
X136765355Y-81167334D01*
X136806277Y-81112158D01*
X136852409Y-81061258D01*
X136903309Y-81015126D01*
X136958485Y-80974204D01*
X137017406Y-80938888D01*
X137079506Y-80909517D01*
X137144185Y-80886375D01*
X137210821Y-80869683D01*
X137278772Y-80859604D01*
X137347384Y-80856233D01*
X137847384Y-80856233D01*
X137915996Y-80859604D01*
X137915996Y-80859604D01*
G37*
D24*
X137597384Y-81556234D03*
D23*
G36*
X137915996Y-79559604D02*
X137983947Y-79569683D01*
X138050583Y-79586375D01*
X138115262Y-79609517D01*
X138177362Y-79638888D01*
X138236283Y-79674204D01*
X138291459Y-79715126D01*
X138342359Y-79761258D01*
X138388491Y-79812158D01*
X138429413Y-79867334D01*
X138464729Y-79926255D01*
X138494100Y-79988355D01*
X138517242Y-80053034D01*
X138533934Y-80119670D01*
X138544013Y-80187621D01*
X138547384Y-80256233D01*
X138547384Y-80256235D01*
X138544013Y-80324847D01*
X138533934Y-80392798D01*
X138517242Y-80459434D01*
X138494100Y-80524113D01*
X138464729Y-80586213D01*
X138429413Y-80645134D01*
X138388491Y-80700310D01*
X138342359Y-80751210D01*
X138291459Y-80797342D01*
X138236283Y-80838264D01*
X138177362Y-80873580D01*
X138115262Y-80902951D01*
X138050583Y-80926093D01*
X137983947Y-80942785D01*
X137915996Y-80952864D01*
X137847384Y-80956235D01*
X137347384Y-80956235D01*
X137278772Y-80952864D01*
X137210821Y-80942785D01*
X137144185Y-80926093D01*
X137079506Y-80902951D01*
X137017406Y-80873580D01*
X136958485Y-80838264D01*
X136903309Y-80797342D01*
X136852409Y-80751210D01*
X136806277Y-80700310D01*
X136765355Y-80645134D01*
X136730039Y-80586213D01*
X136700668Y-80524113D01*
X136677526Y-80459434D01*
X136660834Y-80392798D01*
X136650755Y-80324847D01*
X136647384Y-80256235D01*
X136647384Y-80256233D01*
X136650755Y-80187621D01*
X136660834Y-80119670D01*
X136677526Y-80053034D01*
X136700668Y-79988355D01*
X136730039Y-79926255D01*
X136765355Y-79867334D01*
X136806277Y-79812158D01*
X136852409Y-79761258D01*
X136903309Y-79715126D01*
X136958485Y-79674204D01*
X137017406Y-79638888D01*
X137079506Y-79609517D01*
X137144185Y-79586375D01*
X137210821Y-79569683D01*
X137278772Y-79559604D01*
X137347384Y-79556233D01*
X137847384Y-79556233D01*
X137915996Y-79559604D01*
X137915996Y-79559604D01*
G37*
D24*
X137597384Y-80256234D03*
D48*
X137597384Y-80906234D03*
%TD*%
%TO.C,JP7*%
X148265384Y-24264234D03*
D23*
G36*
X148583996Y-24217604D02*
X148651947Y-24227683D01*
X148718583Y-24244375D01*
X148783262Y-24267517D01*
X148845362Y-24296888D01*
X148904283Y-24332204D01*
X148959459Y-24373126D01*
X149010359Y-24419258D01*
X149056491Y-24470158D01*
X149097413Y-24525334D01*
X149132729Y-24584255D01*
X149162100Y-24646355D01*
X149185242Y-24711034D01*
X149201934Y-24777670D01*
X149212013Y-24845621D01*
X149215384Y-24914233D01*
X149215384Y-24914235D01*
X149212013Y-24982847D01*
X149201934Y-25050798D01*
X149185242Y-25117434D01*
X149162100Y-25182113D01*
X149132729Y-25244213D01*
X149097413Y-25303134D01*
X149056491Y-25358310D01*
X149010359Y-25409210D01*
X148959459Y-25455342D01*
X148904283Y-25496264D01*
X148845362Y-25531580D01*
X148783262Y-25560951D01*
X148718583Y-25584093D01*
X148651947Y-25600785D01*
X148583996Y-25610864D01*
X148515384Y-25614235D01*
X148015384Y-25614235D01*
X147946772Y-25610864D01*
X147878821Y-25600785D01*
X147812185Y-25584093D01*
X147747506Y-25560951D01*
X147685406Y-25531580D01*
X147626485Y-25496264D01*
X147571309Y-25455342D01*
X147520409Y-25409210D01*
X147474277Y-25358310D01*
X147433355Y-25303134D01*
X147398039Y-25244213D01*
X147368668Y-25182113D01*
X147345526Y-25117434D01*
X147328834Y-25050798D01*
X147318755Y-24982847D01*
X147315384Y-24914235D01*
X147315384Y-24914233D01*
X147318755Y-24845621D01*
X147328834Y-24777670D01*
X147345526Y-24711034D01*
X147368668Y-24646355D01*
X147398039Y-24584255D01*
X147433355Y-24525334D01*
X147474277Y-24470158D01*
X147520409Y-24419258D01*
X147571309Y-24373126D01*
X147626485Y-24332204D01*
X147685406Y-24296888D01*
X147747506Y-24267517D01*
X147812185Y-24244375D01*
X147878821Y-24227683D01*
X147946772Y-24217604D01*
X148015384Y-24214233D01*
X148515384Y-24214233D01*
X148583996Y-24217604D01*
X148583996Y-24217604D01*
G37*
D24*
X148265384Y-24914234D03*
D23*
G36*
X148583996Y-22917604D02*
X148651947Y-22927683D01*
X148718583Y-22944375D01*
X148783262Y-22967517D01*
X148845362Y-22996888D01*
X148904283Y-23032204D01*
X148959459Y-23073126D01*
X149010359Y-23119258D01*
X149056491Y-23170158D01*
X149097413Y-23225334D01*
X149132729Y-23284255D01*
X149162100Y-23346355D01*
X149185242Y-23411034D01*
X149201934Y-23477670D01*
X149212013Y-23545621D01*
X149215384Y-23614233D01*
X149215384Y-23614235D01*
X149212013Y-23682847D01*
X149201934Y-23750798D01*
X149185242Y-23817434D01*
X149162100Y-23882113D01*
X149132729Y-23944213D01*
X149097413Y-24003134D01*
X149056491Y-24058310D01*
X149010359Y-24109210D01*
X148959459Y-24155342D01*
X148904283Y-24196264D01*
X148845362Y-24231580D01*
X148783262Y-24260951D01*
X148718583Y-24284093D01*
X148651947Y-24300785D01*
X148583996Y-24310864D01*
X148515384Y-24314235D01*
X148015384Y-24314235D01*
X147946772Y-24310864D01*
X147878821Y-24300785D01*
X147812185Y-24284093D01*
X147747506Y-24260951D01*
X147685406Y-24231580D01*
X147626485Y-24196264D01*
X147571309Y-24155342D01*
X147520409Y-24109210D01*
X147474277Y-24058310D01*
X147433355Y-24003134D01*
X147398039Y-23944213D01*
X147368668Y-23882113D01*
X147345526Y-23817434D01*
X147328834Y-23750798D01*
X147318755Y-23682847D01*
X147315384Y-23614235D01*
X147315384Y-23614233D01*
X147318755Y-23545621D01*
X147328834Y-23477670D01*
X147345526Y-23411034D01*
X147368668Y-23346355D01*
X147398039Y-23284255D01*
X147433355Y-23225334D01*
X147474277Y-23170158D01*
X147520409Y-23119258D01*
X147571309Y-23073126D01*
X147626485Y-23032204D01*
X147685406Y-22996888D01*
X147747506Y-22967517D01*
X147812185Y-22944375D01*
X147878821Y-22927683D01*
X147946772Y-22917604D01*
X148015384Y-22914233D01*
X148515384Y-22914233D01*
X148583996Y-22917604D01*
X148583996Y-22917604D01*
G37*
D24*
X148265384Y-23614234D03*
D25*
X148265384Y-23864234D03*
X148265384Y-24664234D03*
%TD*%
%TO.C,JP8*%
X150805384Y-24664234D03*
X150805384Y-23864234D03*
D23*
G36*
X151123996Y-22917604D02*
X151191947Y-22927683D01*
X151258583Y-22944375D01*
X151323262Y-22967517D01*
X151385362Y-22996888D01*
X151444283Y-23032204D01*
X151499459Y-23073126D01*
X151550359Y-23119258D01*
X151596491Y-23170158D01*
X151637413Y-23225334D01*
X151672729Y-23284255D01*
X151702100Y-23346355D01*
X151725242Y-23411034D01*
X151741934Y-23477670D01*
X151752013Y-23545621D01*
X151755384Y-23614233D01*
X151755384Y-23614235D01*
X151752013Y-23682847D01*
X151741934Y-23750798D01*
X151725242Y-23817434D01*
X151702100Y-23882113D01*
X151672729Y-23944213D01*
X151637413Y-24003134D01*
X151596491Y-24058310D01*
X151550359Y-24109210D01*
X151499459Y-24155342D01*
X151444283Y-24196264D01*
X151385362Y-24231580D01*
X151323262Y-24260951D01*
X151258583Y-24284093D01*
X151191947Y-24300785D01*
X151123996Y-24310864D01*
X151055384Y-24314235D01*
X150555384Y-24314235D01*
X150486772Y-24310864D01*
X150418821Y-24300785D01*
X150352185Y-24284093D01*
X150287506Y-24260951D01*
X150225406Y-24231580D01*
X150166485Y-24196264D01*
X150111309Y-24155342D01*
X150060409Y-24109210D01*
X150014277Y-24058310D01*
X149973355Y-24003134D01*
X149938039Y-23944213D01*
X149908668Y-23882113D01*
X149885526Y-23817434D01*
X149868834Y-23750798D01*
X149858755Y-23682847D01*
X149855384Y-23614235D01*
X149855384Y-23614233D01*
X149858755Y-23545621D01*
X149868834Y-23477670D01*
X149885526Y-23411034D01*
X149908668Y-23346355D01*
X149938039Y-23284255D01*
X149973355Y-23225334D01*
X150014277Y-23170158D01*
X150060409Y-23119258D01*
X150111309Y-23073126D01*
X150166485Y-23032204D01*
X150225406Y-22996888D01*
X150287506Y-22967517D01*
X150352185Y-22944375D01*
X150418821Y-22927683D01*
X150486772Y-22917604D01*
X150555384Y-22914233D01*
X151055384Y-22914233D01*
X151123996Y-22917604D01*
X151123996Y-22917604D01*
G37*
D24*
X150805384Y-23614234D03*
D23*
G36*
X151123996Y-24217604D02*
X151191947Y-24227683D01*
X151258583Y-24244375D01*
X151323262Y-24267517D01*
X151385362Y-24296888D01*
X151444283Y-24332204D01*
X151499459Y-24373126D01*
X151550359Y-24419258D01*
X151596491Y-24470158D01*
X151637413Y-24525334D01*
X151672729Y-24584255D01*
X151702100Y-24646355D01*
X151725242Y-24711034D01*
X151741934Y-24777670D01*
X151752013Y-24845621D01*
X151755384Y-24914233D01*
X151755384Y-24914235D01*
X151752013Y-24982847D01*
X151741934Y-25050798D01*
X151725242Y-25117434D01*
X151702100Y-25182113D01*
X151672729Y-25244213D01*
X151637413Y-25303134D01*
X151596491Y-25358310D01*
X151550359Y-25409210D01*
X151499459Y-25455342D01*
X151444283Y-25496264D01*
X151385362Y-25531580D01*
X151323262Y-25560951D01*
X151258583Y-25584093D01*
X151191947Y-25600785D01*
X151123996Y-25610864D01*
X151055384Y-25614235D01*
X150555384Y-25614235D01*
X150486772Y-25610864D01*
X150418821Y-25600785D01*
X150352185Y-25584093D01*
X150287506Y-25560951D01*
X150225406Y-25531580D01*
X150166485Y-25496264D01*
X150111309Y-25455342D01*
X150060409Y-25409210D01*
X150014277Y-25358310D01*
X149973355Y-25303134D01*
X149938039Y-25244213D01*
X149908668Y-25182113D01*
X149885526Y-25117434D01*
X149868834Y-25050798D01*
X149858755Y-24982847D01*
X149855384Y-24914235D01*
X149855384Y-24914233D01*
X149858755Y-24845621D01*
X149868834Y-24777670D01*
X149885526Y-24711034D01*
X149908668Y-24646355D01*
X149938039Y-24584255D01*
X149973355Y-24525334D01*
X150014277Y-24470158D01*
X150060409Y-24419258D01*
X150111309Y-24373126D01*
X150166485Y-24332204D01*
X150225406Y-24296888D01*
X150287506Y-24267517D01*
X150352185Y-24244375D01*
X150418821Y-24227683D01*
X150486772Y-24217604D01*
X150555384Y-24214233D01*
X151055384Y-24214233D01*
X151123996Y-24217604D01*
X151123996Y-24217604D01*
G37*
D24*
X150805384Y-24914234D03*
D48*
X150805384Y-24264234D03*
%TD*%
D23*
%TO.C,JP11*%
G36*
X155811997Y-69545605D02*
X155879948Y-69555684D01*
X155946584Y-69572376D01*
X156011263Y-69595518D01*
X156073363Y-69624889D01*
X156132284Y-69660205D01*
X156187460Y-69701127D01*
X156238360Y-69747259D01*
X156284492Y-69798159D01*
X156325414Y-69853335D01*
X156360730Y-69912256D01*
X156390101Y-69974356D01*
X156413243Y-70039035D01*
X156429935Y-70105671D01*
X156440014Y-70173622D01*
X156443385Y-70242234D01*
X156443385Y-70742234D01*
X156440014Y-70810846D01*
X156429935Y-70878797D01*
X156413243Y-70945433D01*
X156390101Y-71010112D01*
X156360730Y-71072212D01*
X156325414Y-71131133D01*
X156284492Y-71186309D01*
X156238360Y-71237209D01*
X156187460Y-71283341D01*
X156132284Y-71324263D01*
X156073363Y-71359579D01*
X156011263Y-71388950D01*
X155946584Y-71412092D01*
X155879948Y-71428784D01*
X155811997Y-71438863D01*
X155743385Y-71442234D01*
X155743383Y-71442234D01*
X155674771Y-71438863D01*
X155606820Y-71428784D01*
X155540184Y-71412092D01*
X155475505Y-71388950D01*
X155413405Y-71359579D01*
X155354484Y-71324263D01*
X155299308Y-71283341D01*
X155248408Y-71237209D01*
X155202276Y-71186309D01*
X155161354Y-71131133D01*
X155126038Y-71072212D01*
X155096667Y-71010112D01*
X155073525Y-70945433D01*
X155056833Y-70878797D01*
X155046754Y-70810846D01*
X155043383Y-70742234D01*
X155043383Y-70242234D01*
X155046754Y-70173622D01*
X155056833Y-70105671D01*
X155073525Y-70039035D01*
X155096667Y-69974356D01*
X155126038Y-69912256D01*
X155161354Y-69853335D01*
X155202276Y-69798159D01*
X155248408Y-69747259D01*
X155299308Y-69701127D01*
X155354484Y-69660205D01*
X155413405Y-69624889D01*
X155475505Y-69595518D01*
X155540184Y-69572376D01*
X155606820Y-69555684D01*
X155674771Y-69545605D01*
X155743383Y-69542234D01*
X155743385Y-69542234D01*
X155811997Y-69545605D01*
X155811997Y-69545605D01*
G37*
D24*
X155743384Y-70492234D03*
D23*
G36*
X157111997Y-69545605D02*
X157179948Y-69555684D01*
X157246584Y-69572376D01*
X157311263Y-69595518D01*
X157373363Y-69624889D01*
X157432284Y-69660205D01*
X157487460Y-69701127D01*
X157538360Y-69747259D01*
X157584492Y-69798159D01*
X157625414Y-69853335D01*
X157660730Y-69912256D01*
X157690101Y-69974356D01*
X157713243Y-70039035D01*
X157729935Y-70105671D01*
X157740014Y-70173622D01*
X157743385Y-70242234D01*
X157743385Y-70742234D01*
X157740014Y-70810846D01*
X157729935Y-70878797D01*
X157713243Y-70945433D01*
X157690101Y-71010112D01*
X157660730Y-71072212D01*
X157625414Y-71131133D01*
X157584492Y-71186309D01*
X157538360Y-71237209D01*
X157487460Y-71283341D01*
X157432284Y-71324263D01*
X157373363Y-71359579D01*
X157311263Y-71388950D01*
X157246584Y-71412092D01*
X157179948Y-71428784D01*
X157111997Y-71438863D01*
X157043385Y-71442234D01*
X157043383Y-71442234D01*
X156974771Y-71438863D01*
X156906820Y-71428784D01*
X156840184Y-71412092D01*
X156775505Y-71388950D01*
X156713405Y-71359579D01*
X156654484Y-71324263D01*
X156599308Y-71283341D01*
X156548408Y-71237209D01*
X156502276Y-71186309D01*
X156461354Y-71131133D01*
X156426038Y-71072212D01*
X156396667Y-71010112D01*
X156373525Y-70945433D01*
X156356833Y-70878797D01*
X156346754Y-70810846D01*
X156343383Y-70742234D01*
X156343383Y-70242234D01*
X156346754Y-70173622D01*
X156356833Y-70105671D01*
X156373525Y-70039035D01*
X156396667Y-69974356D01*
X156426038Y-69912256D01*
X156461354Y-69853335D01*
X156502276Y-69798159D01*
X156548408Y-69747259D01*
X156599308Y-69701127D01*
X156654484Y-69660205D01*
X156713405Y-69624889D01*
X156775505Y-69595518D01*
X156840184Y-69572376D01*
X156906820Y-69555684D01*
X156974771Y-69545605D01*
X157043383Y-69542234D01*
X157043385Y-69542234D01*
X157111997Y-69545605D01*
X157111997Y-69545605D01*
G37*
D24*
X157043384Y-70492234D03*
D42*
X156793384Y-70492234D03*
X155993384Y-70492234D03*
%TD*%
%TO.C,JP13*%
X160095384Y-70492234D03*
X159295384Y-70492234D03*
D23*
G36*
X159113997Y-69545605D02*
X159181948Y-69555684D01*
X159248584Y-69572376D01*
X159313263Y-69595518D01*
X159375363Y-69624889D01*
X159434284Y-69660205D01*
X159489460Y-69701127D01*
X159540360Y-69747259D01*
X159586492Y-69798159D01*
X159627414Y-69853335D01*
X159662730Y-69912256D01*
X159692101Y-69974356D01*
X159715243Y-70039035D01*
X159731935Y-70105671D01*
X159742014Y-70173622D01*
X159745385Y-70242234D01*
X159745385Y-70742234D01*
X159742014Y-70810846D01*
X159731935Y-70878797D01*
X159715243Y-70945433D01*
X159692101Y-71010112D01*
X159662730Y-71072212D01*
X159627414Y-71131133D01*
X159586492Y-71186309D01*
X159540360Y-71237209D01*
X159489460Y-71283341D01*
X159434284Y-71324263D01*
X159375363Y-71359579D01*
X159313263Y-71388950D01*
X159248584Y-71412092D01*
X159181948Y-71428784D01*
X159113997Y-71438863D01*
X159045385Y-71442234D01*
X159045383Y-71442234D01*
X158976771Y-71438863D01*
X158908820Y-71428784D01*
X158842184Y-71412092D01*
X158777505Y-71388950D01*
X158715405Y-71359579D01*
X158656484Y-71324263D01*
X158601308Y-71283341D01*
X158550408Y-71237209D01*
X158504276Y-71186309D01*
X158463354Y-71131133D01*
X158428038Y-71072212D01*
X158398667Y-71010112D01*
X158375525Y-70945433D01*
X158358833Y-70878797D01*
X158348754Y-70810846D01*
X158345383Y-70742234D01*
X158345383Y-70242234D01*
X158348754Y-70173622D01*
X158358833Y-70105671D01*
X158375525Y-70039035D01*
X158398667Y-69974356D01*
X158428038Y-69912256D01*
X158463354Y-69853335D01*
X158504276Y-69798159D01*
X158550408Y-69747259D01*
X158601308Y-69701127D01*
X158656484Y-69660205D01*
X158715405Y-69624889D01*
X158777505Y-69595518D01*
X158842184Y-69572376D01*
X158908820Y-69555684D01*
X158976771Y-69545605D01*
X159045383Y-69542234D01*
X159045385Y-69542234D01*
X159113997Y-69545605D01*
X159113997Y-69545605D01*
G37*
D24*
X159045384Y-70492234D03*
D23*
G36*
X160413997Y-69545605D02*
X160481948Y-69555684D01*
X160548584Y-69572376D01*
X160613263Y-69595518D01*
X160675363Y-69624889D01*
X160734284Y-69660205D01*
X160789460Y-69701127D01*
X160840360Y-69747259D01*
X160886492Y-69798159D01*
X160927414Y-69853335D01*
X160962730Y-69912256D01*
X160992101Y-69974356D01*
X161015243Y-70039035D01*
X161031935Y-70105671D01*
X161042014Y-70173622D01*
X161045385Y-70242234D01*
X161045385Y-70742234D01*
X161042014Y-70810846D01*
X161031935Y-70878797D01*
X161015243Y-70945433D01*
X160992101Y-71010112D01*
X160962730Y-71072212D01*
X160927414Y-71131133D01*
X160886492Y-71186309D01*
X160840360Y-71237209D01*
X160789460Y-71283341D01*
X160734284Y-71324263D01*
X160675363Y-71359579D01*
X160613263Y-71388950D01*
X160548584Y-71412092D01*
X160481948Y-71428784D01*
X160413997Y-71438863D01*
X160345385Y-71442234D01*
X160345383Y-71442234D01*
X160276771Y-71438863D01*
X160208820Y-71428784D01*
X160142184Y-71412092D01*
X160077505Y-71388950D01*
X160015405Y-71359579D01*
X159956484Y-71324263D01*
X159901308Y-71283341D01*
X159850408Y-71237209D01*
X159804276Y-71186309D01*
X159763354Y-71131133D01*
X159728038Y-71072212D01*
X159698667Y-71010112D01*
X159675525Y-70945433D01*
X159658833Y-70878797D01*
X159648754Y-70810846D01*
X159645383Y-70742234D01*
X159645383Y-70242234D01*
X159648754Y-70173622D01*
X159658833Y-70105671D01*
X159675525Y-70039035D01*
X159698667Y-69974356D01*
X159728038Y-69912256D01*
X159763354Y-69853335D01*
X159804276Y-69798159D01*
X159850408Y-69747259D01*
X159901308Y-69701127D01*
X159956484Y-69660205D01*
X160015405Y-69624889D01*
X160077505Y-69595518D01*
X160142184Y-69572376D01*
X160208820Y-69555684D01*
X160276771Y-69545605D01*
X160345383Y-69542234D01*
X160345385Y-69542234D01*
X160413997Y-69545605D01*
X160413997Y-69545605D01*
G37*
D24*
X160345384Y-70492234D03*
%TD*%
D50*
%TO.C,SW1*%
X153554384Y-98863234D03*
D51*
X154814384Y-101353234D03*
X159314384Y-101353234D03*
D50*
X160564384Y-98863234D03*
%TD*%
D32*
%TO.C,C11*%
X167174384Y-73794234D03*
X165424384Y-73794234D03*
%TD*%
%TO.C,C2*%
X140504384Y-74556234D03*
X138754384Y-74556234D03*
%TD*%
D31*
%TO.C,C10*%
X161219384Y-72411234D03*
X161219384Y-74161234D03*
%TD*%
%TO.C,C9*%
X154615384Y-74161234D03*
X154615384Y-72411234D03*
%TD*%
D32*
%TO.C,C8*%
X167174384Y-75826234D03*
X165424384Y-75826234D03*
%TD*%
%TO.C,C7*%
X165424384Y-77858234D03*
X167174384Y-77858234D03*
%TD*%
%TO.C,C6*%
X167174384Y-79890234D03*
X165424384Y-79890234D03*
%TD*%
%TO.C,C4*%
X140504384Y-70492234D03*
X138754384Y-70492234D03*
%TD*%
%TO.C,C3*%
X138754384Y-72524234D03*
X140504384Y-72524234D03*
%TD*%
%TO.C,C1*%
X140504384Y-76588234D03*
X138754384Y-76588234D03*
%TD*%
%TO.C,C22*%
X162376384Y-58808234D03*
X164126384Y-58808234D03*
%TD*%
%TO.C,C21*%
X162376384Y-60586234D03*
X164126384Y-60586234D03*
%TD*%
%TO.C,C19*%
X138500384Y-44076234D03*
X140250384Y-44076234D03*
%TD*%
%TO.C,C18*%
X140250384Y-46108234D03*
X138500384Y-46108234D03*
%TD*%
%TO.C,C17*%
X159836384Y-38996234D03*
X161586384Y-38996234D03*
%TD*%
%TO.C,C16*%
X161586384Y-41028234D03*
X159836384Y-41028234D03*
%TD*%
%TO.C,C15*%
X159836384Y-43060234D03*
X161586384Y-43060234D03*
%TD*%
%TO.C,C14*%
X161586384Y-45092234D03*
X159836384Y-45092234D03*
%TD*%
%TO.C,C13*%
X164126384Y-62364234D03*
X162376384Y-62364234D03*
%TD*%
%TO.C,C5*%
X140504384Y-68460234D03*
X138754384Y-68460234D03*
%TD*%
%TO.C,C12*%
X164126384Y-68460234D03*
X162376384Y-68460234D03*
%TD*%
D34*
%TO.C,C25*%
X135504384Y-40774234D03*
X133594384Y-40774234D03*
%TD*%
%TO.C,C26*%
X133594384Y-33662234D03*
X135504384Y-33662234D03*
%TD*%
D36*
%TO.C,C20*%
X137870384Y-41536234D03*
X140880384Y-41536234D03*
%TD*%
D35*
%TO.C,C23*%
X151313384Y-44311234D03*
X151313384Y-41301234D03*
%TD*%
D36*
%TO.C,C24*%
X136054384Y-54490234D03*
X133044384Y-54490234D03*
%TD*%
D24*
%TO.C,Y1*%
X158801384Y-72778234D03*
X156901384Y-72778234D03*
%TD*%
D52*
%TO.C,Y2*%
X167823384Y-60786234D03*
X167823384Y-65666234D03*
%TD*%
D53*
%TO.C,D2*%
X141661384Y-17880234D03*
X141661384Y-19980234D03*
%TD*%
D23*
%TO.C,JP2*%
G36*
X144519996Y-71431604D02*
X144587947Y-71441683D01*
X144654583Y-71458375D01*
X144719262Y-71481517D01*
X144781362Y-71510888D01*
X144840283Y-71546204D01*
X144895459Y-71587126D01*
X144946359Y-71633258D01*
X144992491Y-71684158D01*
X145033413Y-71739334D01*
X145068729Y-71798255D01*
X145098100Y-71860355D01*
X145121242Y-71925034D01*
X145137934Y-71991670D01*
X145148013Y-72059621D01*
X145151384Y-72128233D01*
X145151384Y-72128235D01*
X145148013Y-72196847D01*
X145137934Y-72264798D01*
X145121242Y-72331434D01*
X145098100Y-72396113D01*
X145068729Y-72458213D01*
X145033413Y-72517134D01*
X144992491Y-72572310D01*
X144946359Y-72623210D01*
X144895459Y-72669342D01*
X144840283Y-72710264D01*
X144781362Y-72745580D01*
X144719262Y-72774951D01*
X144654583Y-72798093D01*
X144587947Y-72814785D01*
X144519996Y-72824864D01*
X144451384Y-72828235D01*
X143951384Y-72828235D01*
X143882772Y-72824864D01*
X143814821Y-72814785D01*
X143748185Y-72798093D01*
X143683506Y-72774951D01*
X143621406Y-72745580D01*
X143562485Y-72710264D01*
X143507309Y-72669342D01*
X143456409Y-72623210D01*
X143410277Y-72572310D01*
X143369355Y-72517134D01*
X143334039Y-72458213D01*
X143304668Y-72396113D01*
X143281526Y-72331434D01*
X143264834Y-72264798D01*
X143254755Y-72196847D01*
X143251384Y-72128235D01*
X143251384Y-72128233D01*
X143254755Y-72059621D01*
X143264834Y-71991670D01*
X143281526Y-71925034D01*
X143304668Y-71860355D01*
X143334039Y-71798255D01*
X143369355Y-71739334D01*
X143410277Y-71684158D01*
X143456409Y-71633258D01*
X143507309Y-71587126D01*
X143562485Y-71546204D01*
X143621406Y-71510888D01*
X143683506Y-71481517D01*
X143748185Y-71458375D01*
X143814821Y-71441683D01*
X143882772Y-71431604D01*
X143951384Y-71428233D01*
X144451384Y-71428233D01*
X144519996Y-71431604D01*
X144519996Y-71431604D01*
G37*
D24*
X144201384Y-72128234D03*
D23*
G36*
X144519996Y-72731604D02*
X144587947Y-72741683D01*
X144654583Y-72758375D01*
X144719262Y-72781517D01*
X144781362Y-72810888D01*
X144840283Y-72846204D01*
X144895459Y-72887126D01*
X144946359Y-72933258D01*
X144992491Y-72984158D01*
X145033413Y-73039334D01*
X145068729Y-73098255D01*
X145098100Y-73160355D01*
X145121242Y-73225034D01*
X145137934Y-73291670D01*
X145148013Y-73359621D01*
X145151384Y-73428233D01*
X145151384Y-73428235D01*
X145148013Y-73496847D01*
X145137934Y-73564798D01*
X145121242Y-73631434D01*
X145098100Y-73696113D01*
X145068729Y-73758213D01*
X145033413Y-73817134D01*
X144992491Y-73872310D01*
X144946359Y-73923210D01*
X144895459Y-73969342D01*
X144840283Y-74010264D01*
X144781362Y-74045580D01*
X144719262Y-74074951D01*
X144654583Y-74098093D01*
X144587947Y-74114785D01*
X144519996Y-74124864D01*
X144451384Y-74128235D01*
X143951384Y-74128235D01*
X143882772Y-74124864D01*
X143814821Y-74114785D01*
X143748185Y-74098093D01*
X143683506Y-74074951D01*
X143621406Y-74045580D01*
X143562485Y-74010264D01*
X143507309Y-73969342D01*
X143456409Y-73923210D01*
X143410277Y-73872310D01*
X143369355Y-73817134D01*
X143334039Y-73758213D01*
X143304668Y-73696113D01*
X143281526Y-73631434D01*
X143264834Y-73564798D01*
X143254755Y-73496847D01*
X143251384Y-73428235D01*
X143251384Y-73428233D01*
X143254755Y-73359621D01*
X143264834Y-73291670D01*
X143281526Y-73225034D01*
X143304668Y-73160355D01*
X143334039Y-73098255D01*
X143369355Y-73039334D01*
X143410277Y-72984158D01*
X143456409Y-72933258D01*
X143507309Y-72887126D01*
X143562485Y-72846204D01*
X143621406Y-72810888D01*
X143683506Y-72781517D01*
X143748185Y-72758375D01*
X143814821Y-72741683D01*
X143882772Y-72731604D01*
X143951384Y-72728233D01*
X144451384Y-72728233D01*
X144519996Y-72731604D01*
X144519996Y-72731604D01*
G37*
D24*
X144201384Y-73428234D03*
D25*
X144201384Y-73178234D03*
X144201384Y-72378234D03*
%TD*%
%TO.C,JP1*%
X140899384Y-94006234D03*
X140899384Y-93206234D03*
D23*
G36*
X141217996Y-92259604D02*
X141285947Y-92269683D01*
X141352583Y-92286375D01*
X141417262Y-92309517D01*
X141479362Y-92338888D01*
X141538283Y-92374204D01*
X141593459Y-92415126D01*
X141644359Y-92461258D01*
X141690491Y-92512158D01*
X141731413Y-92567334D01*
X141766729Y-92626255D01*
X141796100Y-92688355D01*
X141819242Y-92753034D01*
X141835934Y-92819670D01*
X141846013Y-92887621D01*
X141849384Y-92956233D01*
X141849384Y-92956235D01*
X141846013Y-93024847D01*
X141835934Y-93092798D01*
X141819242Y-93159434D01*
X141796100Y-93224113D01*
X141766729Y-93286213D01*
X141731413Y-93345134D01*
X141690491Y-93400310D01*
X141644359Y-93451210D01*
X141593459Y-93497342D01*
X141538283Y-93538264D01*
X141479362Y-93573580D01*
X141417262Y-93602951D01*
X141352583Y-93626093D01*
X141285947Y-93642785D01*
X141217996Y-93652864D01*
X141149384Y-93656235D01*
X140649384Y-93656235D01*
X140580772Y-93652864D01*
X140512821Y-93642785D01*
X140446185Y-93626093D01*
X140381506Y-93602951D01*
X140319406Y-93573580D01*
X140260485Y-93538264D01*
X140205309Y-93497342D01*
X140154409Y-93451210D01*
X140108277Y-93400310D01*
X140067355Y-93345134D01*
X140032039Y-93286213D01*
X140002668Y-93224113D01*
X139979526Y-93159434D01*
X139962834Y-93092798D01*
X139952755Y-93024847D01*
X139949384Y-92956235D01*
X139949384Y-92956233D01*
X139952755Y-92887621D01*
X139962834Y-92819670D01*
X139979526Y-92753034D01*
X140002668Y-92688355D01*
X140032039Y-92626255D01*
X140067355Y-92567334D01*
X140108277Y-92512158D01*
X140154409Y-92461258D01*
X140205309Y-92415126D01*
X140260485Y-92374204D01*
X140319406Y-92338888D01*
X140381506Y-92309517D01*
X140446185Y-92286375D01*
X140512821Y-92269683D01*
X140580772Y-92259604D01*
X140649384Y-92256233D01*
X141149384Y-92256233D01*
X141217996Y-92259604D01*
X141217996Y-92259604D01*
G37*
D24*
X140899384Y-92956234D03*
D23*
G36*
X141217996Y-93559604D02*
X141285947Y-93569683D01*
X141352583Y-93586375D01*
X141417262Y-93609517D01*
X141479362Y-93638888D01*
X141538283Y-93674204D01*
X141593459Y-93715126D01*
X141644359Y-93761258D01*
X141690491Y-93812158D01*
X141731413Y-93867334D01*
X141766729Y-93926255D01*
X141796100Y-93988355D01*
X141819242Y-94053034D01*
X141835934Y-94119670D01*
X141846013Y-94187621D01*
X141849384Y-94256233D01*
X141849384Y-94256235D01*
X141846013Y-94324847D01*
X141835934Y-94392798D01*
X141819242Y-94459434D01*
X141796100Y-94524113D01*
X141766729Y-94586213D01*
X141731413Y-94645134D01*
X141690491Y-94700310D01*
X141644359Y-94751210D01*
X141593459Y-94797342D01*
X141538283Y-94838264D01*
X141479362Y-94873580D01*
X141417262Y-94902951D01*
X141352583Y-94926093D01*
X141285947Y-94942785D01*
X141217996Y-94952864D01*
X141149384Y-94956235D01*
X140649384Y-94956235D01*
X140580772Y-94952864D01*
X140512821Y-94942785D01*
X140446185Y-94926093D01*
X140381506Y-94902951D01*
X140319406Y-94873580D01*
X140260485Y-94838264D01*
X140205309Y-94797342D01*
X140154409Y-94751210D01*
X140108277Y-94700310D01*
X140067355Y-94645134D01*
X140032039Y-94586213D01*
X140002668Y-94524113D01*
X139979526Y-94459434D01*
X139962834Y-94392798D01*
X139952755Y-94324847D01*
X139949384Y-94256235D01*
X139949384Y-94256233D01*
X139952755Y-94187621D01*
X139962834Y-94119670D01*
X139979526Y-94053034D01*
X140002668Y-93988355D01*
X140032039Y-93926255D01*
X140067355Y-93867334D01*
X140108277Y-93812158D01*
X140154409Y-93761258D01*
X140205309Y-93715126D01*
X140260485Y-93674204D01*
X140319406Y-93638888D01*
X140381506Y-93609517D01*
X140446185Y-93586375D01*
X140512821Y-93569683D01*
X140580772Y-93559604D01*
X140649384Y-93556233D01*
X141149384Y-93556233D01*
X141217996Y-93559604D01*
X141217996Y-93559604D01*
G37*
D24*
X140899384Y-94256234D03*
%TD*%
D23*
%TO.C,JP3*%
G36*
X160129997Y-48463605D02*
X160197948Y-48473684D01*
X160264584Y-48490376D01*
X160329263Y-48513518D01*
X160391363Y-48542889D01*
X160450284Y-48578205D01*
X160505460Y-48619127D01*
X160556360Y-48665259D01*
X160602492Y-48716159D01*
X160643414Y-48771335D01*
X160678730Y-48830256D01*
X160708101Y-48892356D01*
X160731243Y-48957035D01*
X160747935Y-49023671D01*
X160758014Y-49091622D01*
X160761385Y-49160234D01*
X160761385Y-49660234D01*
X160758014Y-49728846D01*
X160747935Y-49796797D01*
X160731243Y-49863433D01*
X160708101Y-49928112D01*
X160678730Y-49990212D01*
X160643414Y-50049133D01*
X160602492Y-50104309D01*
X160556360Y-50155209D01*
X160505460Y-50201341D01*
X160450284Y-50242263D01*
X160391363Y-50277579D01*
X160329263Y-50306950D01*
X160264584Y-50330092D01*
X160197948Y-50346784D01*
X160129997Y-50356863D01*
X160061385Y-50360234D01*
X160061383Y-50360234D01*
X159992771Y-50356863D01*
X159924820Y-50346784D01*
X159858184Y-50330092D01*
X159793505Y-50306950D01*
X159731405Y-50277579D01*
X159672484Y-50242263D01*
X159617308Y-50201341D01*
X159566408Y-50155209D01*
X159520276Y-50104309D01*
X159479354Y-50049133D01*
X159444038Y-49990212D01*
X159414667Y-49928112D01*
X159391525Y-49863433D01*
X159374833Y-49796797D01*
X159364754Y-49728846D01*
X159361383Y-49660234D01*
X159361383Y-49160234D01*
X159364754Y-49091622D01*
X159374833Y-49023671D01*
X159391525Y-48957035D01*
X159414667Y-48892356D01*
X159444038Y-48830256D01*
X159479354Y-48771335D01*
X159520276Y-48716159D01*
X159566408Y-48665259D01*
X159617308Y-48619127D01*
X159672484Y-48578205D01*
X159731405Y-48542889D01*
X159793505Y-48513518D01*
X159858184Y-48490376D01*
X159924820Y-48473684D01*
X159992771Y-48463605D01*
X160061383Y-48460234D01*
X160061385Y-48460234D01*
X160129997Y-48463605D01*
X160129997Y-48463605D01*
G37*
D24*
X160061384Y-49410234D03*
D23*
G36*
X161429997Y-48463605D02*
X161497948Y-48473684D01*
X161564584Y-48490376D01*
X161629263Y-48513518D01*
X161691363Y-48542889D01*
X161750284Y-48578205D01*
X161805460Y-48619127D01*
X161856360Y-48665259D01*
X161902492Y-48716159D01*
X161943414Y-48771335D01*
X161978730Y-48830256D01*
X162008101Y-48892356D01*
X162031243Y-48957035D01*
X162047935Y-49023671D01*
X162058014Y-49091622D01*
X162061385Y-49160234D01*
X162061385Y-49660234D01*
X162058014Y-49728846D01*
X162047935Y-49796797D01*
X162031243Y-49863433D01*
X162008101Y-49928112D01*
X161978730Y-49990212D01*
X161943414Y-50049133D01*
X161902492Y-50104309D01*
X161856360Y-50155209D01*
X161805460Y-50201341D01*
X161750284Y-50242263D01*
X161691363Y-50277579D01*
X161629263Y-50306950D01*
X161564584Y-50330092D01*
X161497948Y-50346784D01*
X161429997Y-50356863D01*
X161361385Y-50360234D01*
X161361383Y-50360234D01*
X161292771Y-50356863D01*
X161224820Y-50346784D01*
X161158184Y-50330092D01*
X161093505Y-50306950D01*
X161031405Y-50277579D01*
X160972484Y-50242263D01*
X160917308Y-50201341D01*
X160866408Y-50155209D01*
X160820276Y-50104309D01*
X160779354Y-50049133D01*
X160744038Y-49990212D01*
X160714667Y-49928112D01*
X160691525Y-49863433D01*
X160674833Y-49796797D01*
X160664754Y-49728846D01*
X160661383Y-49660234D01*
X160661383Y-49160234D01*
X160664754Y-49091622D01*
X160674833Y-49023671D01*
X160691525Y-48957035D01*
X160714667Y-48892356D01*
X160744038Y-48830256D01*
X160779354Y-48771335D01*
X160820276Y-48716159D01*
X160866408Y-48665259D01*
X160917308Y-48619127D01*
X160972484Y-48578205D01*
X161031405Y-48542889D01*
X161093505Y-48513518D01*
X161158184Y-48490376D01*
X161224820Y-48473684D01*
X161292771Y-48463605D01*
X161361383Y-48460234D01*
X161361385Y-48460234D01*
X161429997Y-48463605D01*
X161429997Y-48463605D01*
G37*
D24*
X161361384Y-49410234D03*
D42*
X161111384Y-49410234D03*
X160311384Y-49410234D03*
%TD*%
%TO.C,JP5*%
X160311384Y-51950234D03*
X161111384Y-51950234D03*
D23*
G36*
X161429997Y-51003605D02*
X161497948Y-51013684D01*
X161564584Y-51030376D01*
X161629263Y-51053518D01*
X161691363Y-51082889D01*
X161750284Y-51118205D01*
X161805460Y-51159127D01*
X161856360Y-51205259D01*
X161902492Y-51256159D01*
X161943414Y-51311335D01*
X161978730Y-51370256D01*
X162008101Y-51432356D01*
X162031243Y-51497035D01*
X162047935Y-51563671D01*
X162058014Y-51631622D01*
X162061385Y-51700234D01*
X162061385Y-52200234D01*
X162058014Y-52268846D01*
X162047935Y-52336797D01*
X162031243Y-52403433D01*
X162008101Y-52468112D01*
X161978730Y-52530212D01*
X161943414Y-52589133D01*
X161902492Y-52644309D01*
X161856360Y-52695209D01*
X161805460Y-52741341D01*
X161750284Y-52782263D01*
X161691363Y-52817579D01*
X161629263Y-52846950D01*
X161564584Y-52870092D01*
X161497948Y-52886784D01*
X161429997Y-52896863D01*
X161361385Y-52900234D01*
X161361383Y-52900234D01*
X161292771Y-52896863D01*
X161224820Y-52886784D01*
X161158184Y-52870092D01*
X161093505Y-52846950D01*
X161031405Y-52817579D01*
X160972484Y-52782263D01*
X160917308Y-52741341D01*
X160866408Y-52695209D01*
X160820276Y-52644309D01*
X160779354Y-52589133D01*
X160744038Y-52530212D01*
X160714667Y-52468112D01*
X160691525Y-52403433D01*
X160674833Y-52336797D01*
X160664754Y-52268846D01*
X160661383Y-52200234D01*
X160661383Y-51700234D01*
X160664754Y-51631622D01*
X160674833Y-51563671D01*
X160691525Y-51497035D01*
X160714667Y-51432356D01*
X160744038Y-51370256D01*
X160779354Y-51311335D01*
X160820276Y-51256159D01*
X160866408Y-51205259D01*
X160917308Y-51159127D01*
X160972484Y-51118205D01*
X161031405Y-51082889D01*
X161093505Y-51053518D01*
X161158184Y-51030376D01*
X161224820Y-51013684D01*
X161292771Y-51003605D01*
X161361383Y-51000234D01*
X161361385Y-51000234D01*
X161429997Y-51003605D01*
X161429997Y-51003605D01*
G37*
D24*
X161361384Y-51950234D03*
D23*
G36*
X160129997Y-51003605D02*
X160197948Y-51013684D01*
X160264584Y-51030376D01*
X160329263Y-51053518D01*
X160391363Y-51082889D01*
X160450284Y-51118205D01*
X160505460Y-51159127D01*
X160556360Y-51205259D01*
X160602492Y-51256159D01*
X160643414Y-51311335D01*
X160678730Y-51370256D01*
X160708101Y-51432356D01*
X160731243Y-51497035D01*
X160747935Y-51563671D01*
X160758014Y-51631622D01*
X160761385Y-51700234D01*
X160761385Y-52200234D01*
X160758014Y-52268846D01*
X160747935Y-52336797D01*
X160731243Y-52403433D01*
X160708101Y-52468112D01*
X160678730Y-52530212D01*
X160643414Y-52589133D01*
X160602492Y-52644309D01*
X160556360Y-52695209D01*
X160505460Y-52741341D01*
X160450284Y-52782263D01*
X160391363Y-52817579D01*
X160329263Y-52846950D01*
X160264584Y-52870092D01*
X160197948Y-52886784D01*
X160129997Y-52896863D01*
X160061385Y-52900234D01*
X160061383Y-52900234D01*
X159992771Y-52896863D01*
X159924820Y-52886784D01*
X159858184Y-52870092D01*
X159793505Y-52846950D01*
X159731405Y-52817579D01*
X159672484Y-52782263D01*
X159617308Y-52741341D01*
X159566408Y-52695209D01*
X159520276Y-52644309D01*
X159479354Y-52589133D01*
X159444038Y-52530212D01*
X159414667Y-52468112D01*
X159391525Y-52403433D01*
X159374833Y-52336797D01*
X159364754Y-52268846D01*
X159361383Y-52200234D01*
X159361383Y-51700234D01*
X159364754Y-51631622D01*
X159374833Y-51563671D01*
X159391525Y-51497035D01*
X159414667Y-51432356D01*
X159444038Y-51370256D01*
X159479354Y-51311335D01*
X159520276Y-51256159D01*
X159566408Y-51205259D01*
X159617308Y-51159127D01*
X159672484Y-51118205D01*
X159731405Y-51082889D01*
X159793505Y-51053518D01*
X159858184Y-51030376D01*
X159924820Y-51013684D01*
X159992771Y-51003605D01*
X160061383Y-51000234D01*
X160061385Y-51000234D01*
X160129997Y-51003605D01*
X160129997Y-51003605D01*
G37*
D24*
X160061384Y-51950234D03*
%TD*%
D25*
%TO.C,JP9*%
X145725384Y-24664234D03*
X145725384Y-23864234D03*
D23*
G36*
X146043996Y-22917604D02*
X146111947Y-22927683D01*
X146178583Y-22944375D01*
X146243262Y-22967517D01*
X146305362Y-22996888D01*
X146364283Y-23032204D01*
X146419459Y-23073126D01*
X146470359Y-23119258D01*
X146516491Y-23170158D01*
X146557413Y-23225334D01*
X146592729Y-23284255D01*
X146622100Y-23346355D01*
X146645242Y-23411034D01*
X146661934Y-23477670D01*
X146672013Y-23545621D01*
X146675384Y-23614233D01*
X146675384Y-23614235D01*
X146672013Y-23682847D01*
X146661934Y-23750798D01*
X146645242Y-23817434D01*
X146622100Y-23882113D01*
X146592729Y-23944213D01*
X146557413Y-24003134D01*
X146516491Y-24058310D01*
X146470359Y-24109210D01*
X146419459Y-24155342D01*
X146364283Y-24196264D01*
X146305362Y-24231580D01*
X146243262Y-24260951D01*
X146178583Y-24284093D01*
X146111947Y-24300785D01*
X146043996Y-24310864D01*
X145975384Y-24314235D01*
X145475384Y-24314235D01*
X145406772Y-24310864D01*
X145338821Y-24300785D01*
X145272185Y-24284093D01*
X145207506Y-24260951D01*
X145145406Y-24231580D01*
X145086485Y-24196264D01*
X145031309Y-24155342D01*
X144980409Y-24109210D01*
X144934277Y-24058310D01*
X144893355Y-24003134D01*
X144858039Y-23944213D01*
X144828668Y-23882113D01*
X144805526Y-23817434D01*
X144788834Y-23750798D01*
X144778755Y-23682847D01*
X144775384Y-23614235D01*
X144775384Y-23614233D01*
X144778755Y-23545621D01*
X144788834Y-23477670D01*
X144805526Y-23411034D01*
X144828668Y-23346355D01*
X144858039Y-23284255D01*
X144893355Y-23225334D01*
X144934277Y-23170158D01*
X144980409Y-23119258D01*
X145031309Y-23073126D01*
X145086485Y-23032204D01*
X145145406Y-22996888D01*
X145207506Y-22967517D01*
X145272185Y-22944375D01*
X145338821Y-22927683D01*
X145406772Y-22917604D01*
X145475384Y-22914233D01*
X145975384Y-22914233D01*
X146043996Y-22917604D01*
X146043996Y-22917604D01*
G37*
D24*
X145725384Y-23614234D03*
D23*
G36*
X146043996Y-24217604D02*
X146111947Y-24227683D01*
X146178583Y-24244375D01*
X146243262Y-24267517D01*
X146305362Y-24296888D01*
X146364283Y-24332204D01*
X146419459Y-24373126D01*
X146470359Y-24419258D01*
X146516491Y-24470158D01*
X146557413Y-24525334D01*
X146592729Y-24584255D01*
X146622100Y-24646355D01*
X146645242Y-24711034D01*
X146661934Y-24777670D01*
X146672013Y-24845621D01*
X146675384Y-24914233D01*
X146675384Y-24914235D01*
X146672013Y-24982847D01*
X146661934Y-25050798D01*
X146645242Y-25117434D01*
X146622100Y-25182113D01*
X146592729Y-25244213D01*
X146557413Y-25303134D01*
X146516491Y-25358310D01*
X146470359Y-25409210D01*
X146419459Y-25455342D01*
X146364283Y-25496264D01*
X146305362Y-25531580D01*
X146243262Y-25560951D01*
X146178583Y-25584093D01*
X146111947Y-25600785D01*
X146043996Y-25610864D01*
X145975384Y-25614235D01*
X145475384Y-25614235D01*
X145406772Y-25610864D01*
X145338821Y-25600785D01*
X145272185Y-25584093D01*
X145207506Y-25560951D01*
X145145406Y-25531580D01*
X145086485Y-25496264D01*
X145031309Y-25455342D01*
X144980409Y-25409210D01*
X144934277Y-25358310D01*
X144893355Y-25303134D01*
X144858039Y-25244213D01*
X144828668Y-25182113D01*
X144805526Y-25117434D01*
X144788834Y-25050798D01*
X144778755Y-24982847D01*
X144775384Y-24914235D01*
X144775384Y-24914233D01*
X144778755Y-24845621D01*
X144788834Y-24777670D01*
X144805526Y-24711034D01*
X144828668Y-24646355D01*
X144858039Y-24584255D01*
X144893355Y-24525334D01*
X144934277Y-24470158D01*
X144980409Y-24419258D01*
X145031309Y-24373126D01*
X145086485Y-24332204D01*
X145145406Y-24296888D01*
X145207506Y-24267517D01*
X145272185Y-24244375D01*
X145338821Y-24227683D01*
X145406772Y-24217604D01*
X145475384Y-24214233D01*
X145975384Y-24214233D01*
X146043996Y-24217604D01*
X146043996Y-24217604D01*
G37*
D24*
X145725384Y-24914234D03*
%TD*%
D23*
%TO.C,JP10*%
G36*
X153663996Y-24217604D02*
X153731947Y-24227683D01*
X153798583Y-24244375D01*
X153863262Y-24267517D01*
X153925362Y-24296888D01*
X153984283Y-24332204D01*
X154039459Y-24373126D01*
X154090359Y-24419258D01*
X154136491Y-24470158D01*
X154177413Y-24525334D01*
X154212729Y-24584255D01*
X154242100Y-24646355D01*
X154265242Y-24711034D01*
X154281934Y-24777670D01*
X154292013Y-24845621D01*
X154295384Y-24914233D01*
X154295384Y-24914235D01*
X154292013Y-24982847D01*
X154281934Y-25050798D01*
X154265242Y-25117434D01*
X154242100Y-25182113D01*
X154212729Y-25244213D01*
X154177413Y-25303134D01*
X154136491Y-25358310D01*
X154090359Y-25409210D01*
X154039459Y-25455342D01*
X153984283Y-25496264D01*
X153925362Y-25531580D01*
X153863262Y-25560951D01*
X153798583Y-25584093D01*
X153731947Y-25600785D01*
X153663996Y-25610864D01*
X153595384Y-25614235D01*
X153095384Y-25614235D01*
X153026772Y-25610864D01*
X152958821Y-25600785D01*
X152892185Y-25584093D01*
X152827506Y-25560951D01*
X152765406Y-25531580D01*
X152706485Y-25496264D01*
X152651309Y-25455342D01*
X152600409Y-25409210D01*
X152554277Y-25358310D01*
X152513355Y-25303134D01*
X152478039Y-25244213D01*
X152448668Y-25182113D01*
X152425526Y-25117434D01*
X152408834Y-25050798D01*
X152398755Y-24982847D01*
X152395384Y-24914235D01*
X152395384Y-24914233D01*
X152398755Y-24845621D01*
X152408834Y-24777670D01*
X152425526Y-24711034D01*
X152448668Y-24646355D01*
X152478039Y-24584255D01*
X152513355Y-24525334D01*
X152554277Y-24470158D01*
X152600409Y-24419258D01*
X152651309Y-24373126D01*
X152706485Y-24332204D01*
X152765406Y-24296888D01*
X152827506Y-24267517D01*
X152892185Y-24244375D01*
X152958821Y-24227683D01*
X153026772Y-24217604D01*
X153095384Y-24214233D01*
X153595384Y-24214233D01*
X153663996Y-24217604D01*
X153663996Y-24217604D01*
G37*
D24*
X153345384Y-24914234D03*
D23*
G36*
X153663996Y-22917604D02*
X153731947Y-22927683D01*
X153798583Y-22944375D01*
X153863262Y-22967517D01*
X153925362Y-22996888D01*
X153984283Y-23032204D01*
X154039459Y-23073126D01*
X154090359Y-23119258D01*
X154136491Y-23170158D01*
X154177413Y-23225334D01*
X154212729Y-23284255D01*
X154242100Y-23346355D01*
X154265242Y-23411034D01*
X154281934Y-23477670D01*
X154292013Y-23545621D01*
X154295384Y-23614233D01*
X154295384Y-23614235D01*
X154292013Y-23682847D01*
X154281934Y-23750798D01*
X154265242Y-23817434D01*
X154242100Y-23882113D01*
X154212729Y-23944213D01*
X154177413Y-24003134D01*
X154136491Y-24058310D01*
X154090359Y-24109210D01*
X154039459Y-24155342D01*
X153984283Y-24196264D01*
X153925362Y-24231580D01*
X153863262Y-24260951D01*
X153798583Y-24284093D01*
X153731947Y-24300785D01*
X153663996Y-24310864D01*
X153595384Y-24314235D01*
X153095384Y-24314235D01*
X153026772Y-24310864D01*
X152958821Y-24300785D01*
X152892185Y-24284093D01*
X152827506Y-24260951D01*
X152765406Y-24231580D01*
X152706485Y-24196264D01*
X152651309Y-24155342D01*
X152600409Y-24109210D01*
X152554277Y-24058310D01*
X152513355Y-24003134D01*
X152478039Y-23944213D01*
X152448668Y-23882113D01*
X152425526Y-23817434D01*
X152408834Y-23750798D01*
X152398755Y-23682847D01*
X152395384Y-23614235D01*
X152395384Y-23614233D01*
X152398755Y-23545621D01*
X152408834Y-23477670D01*
X152425526Y-23411034D01*
X152448668Y-23346355D01*
X152478039Y-23284255D01*
X152513355Y-23225334D01*
X152554277Y-23170158D01*
X152600409Y-23119258D01*
X152651309Y-23073126D01*
X152706485Y-23032204D01*
X152765406Y-22996888D01*
X152827506Y-22967517D01*
X152892185Y-22944375D01*
X152958821Y-22927683D01*
X153026772Y-22917604D01*
X153095384Y-22914233D01*
X153595384Y-22914233D01*
X153663996Y-22917604D01*
X153663996Y-22917604D01*
G37*
D24*
X153345384Y-23614234D03*
D25*
X153345384Y-23864234D03*
X153345384Y-24664234D03*
%TD*%
D33*
%TO.C,D1*%
X140899384Y-96461234D03*
X140899384Y-98371234D03*
%TD*%
D54*
%TO.C,U2*%
X145359384Y-20134234D03*
X144059384Y-20134234D03*
X144709384Y-18234234D03*
X144709384Y-20134234D03*
X144059384Y-18234234D03*
X145359384Y-18234234D03*
%TD*%
D31*
%TO.C,R7*%
X150805384Y-21075234D03*
X150805384Y-19325234D03*
%TD*%
%TO.C,R2*%
X140899384Y-102101234D03*
X140899384Y-100351234D03*
%TD*%
%TO.C,R10*%
X139883384Y-80031234D03*
X139883384Y-81781234D03*
%TD*%
%TO.C,R9*%
X143947384Y-81781234D03*
X143947384Y-80031234D03*
%TD*%
%TO.C,R8*%
X148265384Y-21075234D03*
X148265384Y-19325234D03*
%TD*%
D32*
%TO.C,R6*%
X163138384Y-51950234D03*
X164888384Y-51950234D03*
%TD*%
%TO.C,R5*%
X164888384Y-49410234D03*
X163138384Y-49410234D03*
%TD*%
D31*
%TO.C,R4*%
X144201384Y-77209234D03*
X144201384Y-75459234D03*
%TD*%
%TO.C,R3*%
X146487384Y-71903234D03*
X146487384Y-73653234D03*
%TD*%
D32*
%TO.C,R1*%
X164126384Y-64142234D03*
X162376384Y-64142234D03*
%TD*%
D55*
%TO.C,U3*%
X147980904Y-16778854D03*
X148633684Y-16778854D03*
X149281384Y-16778854D03*
X149929084Y-16778854D03*
D56*
X150581864Y-16778854D03*
D57*
X153231084Y-14104234D03*
X145331684Y-14104234D03*
X148082504Y-14104234D03*
X150480264Y-14104234D03*
%TD*%
D10*
%TO.C,J2*%
X92905384Y-23880234D03*
%TD*%
%TO.C,J101*%
X67505384Y-28960234D03*
%TD*%
%TO.C,J100*%
X67505384Y-31500234D03*
%TD*%
%TO.C,J99*%
X67505384Y-34040234D03*
%TD*%
%TO.C,J98*%
X67505384Y-36580234D03*
%TD*%
%TO.C,J97*%
X67505384Y-39120234D03*
%TD*%
%TO.C,J96*%
X67505384Y-41660234D03*
%TD*%
%TO.C,J95*%
X67505384Y-44200234D03*
%TD*%
%TO.C,J94*%
X67505384Y-46740234D03*
%TD*%
%TO.C,J93*%
X67505384Y-49280234D03*
%TD*%
%TO.C,J92*%
X67505384Y-51820234D03*
%TD*%
%TO.C,J91*%
X67505384Y-54360234D03*
%TD*%
%TO.C,J90*%
X67505384Y-56951615D03*
%TD*%
%TO.C,J89*%
X67505384Y-59440234D03*
%TD*%
%TO.C,J88*%
X67505384Y-61980234D03*
%TD*%
%TO.C,J87*%
X67505384Y-64520234D03*
%TD*%
%TO.C,J86*%
X67505384Y-67060234D03*
%TD*%
%TO.C,J85*%
X67505384Y-69600234D03*
%TD*%
%TO.C,J84*%
X67505384Y-72140234D03*
%TD*%
%TO.C,J83*%
X67505384Y-74680234D03*
%TD*%
%TO.C,J82*%
X67505384Y-77220234D03*
%TD*%
%TO.C,J79*%
X67505384Y-84840234D03*
%TD*%
%TO.C,J78*%
X67505384Y-87380234D03*
%TD*%
%TO.C,J77*%
X67505384Y-89920234D03*
%TD*%
%TO.C,J81*%
X67505384Y-79760234D03*
%TD*%
%TO.C,J80*%
X67505384Y-82300234D03*
%TD*%
%TO.C,J67*%
X64965384Y-77220234D03*
%TD*%
%TO.C,J76*%
X64965384Y-54360234D03*
%TD*%
%TO.C,J75*%
X64965384Y-56900234D03*
%TD*%
%TO.C,J74*%
X64965384Y-59440234D03*
%TD*%
%TO.C,J73*%
X64965384Y-61980234D03*
%TD*%
%TO.C,J72*%
X64965384Y-64520234D03*
%TD*%
%TO.C,J71*%
X64965384Y-67060234D03*
%TD*%
%TO.C,J70*%
X64965384Y-69600234D03*
%TD*%
%TO.C,J60*%
X64965384Y-34040234D03*
%TD*%
%TO.C,J68*%
X64965384Y-74680234D03*
%TD*%
%TO.C,J39*%
X105605384Y-61980234D03*
%TD*%
%TO.C,J66*%
X64965384Y-79760234D03*
%TD*%
%TO.C,J65*%
X64965384Y-82300234D03*
%TD*%
%TO.C,J64*%
X64965384Y-84840234D03*
%TD*%
%TO.C,J63*%
X64965384Y-87380234D03*
%TD*%
%TO.C,J62*%
X64965384Y-28960234D03*
%TD*%
%TO.C,J61*%
X64965384Y-31500234D03*
%TD*%
%TO.C,J69*%
X64965384Y-72140234D03*
%TD*%
%TO.C,J57*%
X64965384Y-41660234D03*
%TD*%
%TO.C,J58*%
X64965384Y-39120234D03*
%TD*%
%TO.C,J56*%
X64965384Y-44200234D03*
%TD*%
%TO.C,J55*%
X64965384Y-46740234D03*
%TD*%
%TO.C,J54*%
X64965384Y-49280234D03*
%TD*%
%TO.C,J53*%
X64965384Y-51820234D03*
%TD*%
%TO.C,J52*%
X105605384Y-28960234D03*
%TD*%
%TO.C,J51*%
X105605384Y-31500234D03*
%TD*%
%TO.C,J40*%
X105605384Y-59440234D03*
%TD*%
%TO.C,J49*%
X105605384Y-36580234D03*
%TD*%
%TO.C,J48*%
X105605384Y-39120234D03*
%TD*%
%TO.C,J47*%
X105605384Y-41660234D03*
%TD*%
%TO.C,J46*%
X105605384Y-44200234D03*
%TD*%
%TO.C,J45*%
X105605384Y-46740234D03*
%TD*%
%TO.C,J44*%
X105605384Y-49280234D03*
%TD*%
%TO.C,J43*%
X105605384Y-51820234D03*
%TD*%
%TO.C,J42*%
X105605384Y-54360234D03*
%TD*%
%TO.C,J41*%
X105605384Y-56900234D03*
%TD*%
%TO.C,J50*%
X105605384Y-34040234D03*
%TD*%
%TO.C,J29*%
X105605384Y-87380234D03*
%TD*%
%TO.C,J37*%
X105605384Y-67060234D03*
%TD*%
%TO.C,J36*%
X105605384Y-69600234D03*
%TD*%
%TO.C,J35*%
X105605384Y-72140234D03*
%TD*%
%TO.C,J34*%
X105605384Y-74680234D03*
%TD*%
%TO.C,J33*%
X105605384Y-77220234D03*
%TD*%
%TO.C,J32*%
X105605384Y-79760234D03*
%TD*%
%TO.C,J31*%
X105605384Y-82300234D03*
%TD*%
%TO.C,J59*%
X64965384Y-36580234D03*
%TD*%
%TO.C,J38*%
X105605384Y-64520234D03*
%TD*%
%TO.C,J28*%
X105605384Y-89920234D03*
%TD*%
%TO.C,J27*%
X103065384Y-28960234D03*
%TD*%
%TO.C,J26*%
X103065384Y-31500234D03*
%TD*%
%TO.C,J25*%
X103065384Y-34040234D03*
%TD*%
%TO.C,J24*%
X103065384Y-36580234D03*
%TD*%
%TO.C,J23*%
X103065384Y-39120234D03*
%TD*%
%TO.C,J22*%
X103065384Y-41660234D03*
%TD*%
%TO.C,J21*%
X103065384Y-44200234D03*
%TD*%
%TO.C,J30*%
X105605384Y-84840234D03*
%TD*%
%TO.C,J10*%
X103065384Y-72140234D03*
%TD*%
%TO.C,J19*%
X103065384Y-49280234D03*
%TD*%
%TO.C,J18*%
X103065384Y-51820234D03*
%TD*%
%TO.C,J17*%
X103065384Y-54360234D03*
%TD*%
%TO.C,J16*%
X103065384Y-56900234D03*
%TD*%
%TO.C,J15*%
X103065384Y-59440234D03*
%TD*%
%TO.C,J14*%
X103065384Y-61980234D03*
%TD*%
%TO.C,J13*%
X103065384Y-64520234D03*
%TD*%
%TO.C,J12*%
X103065384Y-67060234D03*
%TD*%
%TO.C,J11*%
X103065384Y-69600234D03*
%TD*%
%TO.C,J20*%
X103065384Y-46740234D03*
%TD*%
%TO.C,J9*%
X103065384Y-74680234D03*
%TD*%
%TO.C,J8*%
X103065384Y-77220234D03*
%TD*%
%TO.C,J7*%
X103065384Y-79760234D03*
%TD*%
%TO.C,J6*%
X103065384Y-82300234D03*
%TD*%
%TO.C,J5*%
X103065384Y-84840234D03*
%TD*%
%TO.C,J4*%
X103065384Y-87380234D03*
%TD*%
%TO.C,J3*%
X103065384Y-89920234D03*
%TD*%
%TO.C,J1*%
X114485384Y-88570234D03*
D11*
X111945384Y-88570234D03*
X114485384Y-86030234D03*
X111945384Y-86030234D03*
X114485384Y-83490234D03*
X111945384Y-83490234D03*
X114485384Y-80950234D03*
X111945384Y-80950234D03*
X114485384Y-78410234D03*
X111945384Y-78410234D03*
X114485384Y-75870234D03*
X111945384Y-75870234D03*
X114485384Y-73330234D03*
X111945384Y-73330234D03*
X114485384Y-70790234D03*
X111945384Y-70790234D03*
X114485384Y-68250234D03*
X111945384Y-68250234D03*
X114485384Y-65710234D03*
X111945384Y-65710234D03*
X114485384Y-63170234D03*
X111945384Y-63170234D03*
X114485384Y-60630234D03*
X111945384Y-60630234D03*
X114485384Y-58090234D03*
X111945384Y-58090234D03*
X114485384Y-55550234D03*
X111945384Y-55550234D03*
X114485384Y-53010234D03*
X111945384Y-53010234D03*
X114485384Y-50470234D03*
X111945384Y-50470234D03*
X114485384Y-47930234D03*
X111945384Y-47930234D03*
X114485384Y-45390234D03*
X111945384Y-45390234D03*
X114485384Y-42850234D03*
X111945384Y-42850234D03*
X114485384Y-40310234D03*
X111945384Y-40310234D03*
X114485384Y-37770234D03*
X111945384Y-37770234D03*
X114485384Y-35230234D03*
X111945384Y-35230234D03*
X114485384Y-32690234D03*
X111945384Y-32690234D03*
X114485384Y-30150234D03*
X111945384Y-30150234D03*
X114485384Y-27610234D03*
X111945384Y-27610234D03*
D10*
X58785384Y-89970234D03*
D11*
X56245384Y-89970234D03*
X58785384Y-87430234D03*
X56245384Y-87430234D03*
X58785384Y-84890234D03*
X56245384Y-84890234D03*
X58785384Y-82350234D03*
X56245384Y-82350234D03*
X58785384Y-79810234D03*
X56245384Y-79810234D03*
X58785384Y-77270234D03*
X56245384Y-77270234D03*
X58785384Y-74730234D03*
X56245384Y-74730234D03*
X58785384Y-72190234D03*
X56245384Y-72190234D03*
X58785384Y-69650234D03*
X56245384Y-69650234D03*
X58785384Y-67110234D03*
X56245384Y-67110234D03*
X58785384Y-64570234D03*
X56245384Y-64570234D03*
X58785384Y-62030234D03*
X56245384Y-62030234D03*
X58785384Y-59490234D03*
X56245384Y-59490234D03*
X58785384Y-56950234D03*
X56245384Y-56950234D03*
X58785384Y-54410234D03*
X56245384Y-54410234D03*
D10*
X58785384Y-50470234D03*
D11*
X56245384Y-50470234D03*
X58785384Y-47930234D03*
X56245384Y-47930234D03*
X58785384Y-45390234D03*
X56245384Y-45390234D03*
X58785384Y-42850234D03*
X56245384Y-42850234D03*
X58785384Y-40310234D03*
X56245384Y-40310234D03*
X58785384Y-37770234D03*
X56245384Y-37770234D03*
X58785384Y-35230234D03*
X56245384Y-35230234D03*
X58785384Y-32690234D03*
X56245384Y-32690234D03*
X58785384Y-30150234D03*
X56245384Y-30150234D03*
X58785384Y-27610234D03*
X56245384Y-27610234D03*
D18*
X68535384Y-15670234D03*
X102535384Y-15670234D03*
X102535384Y-100670234D03*
X68535384Y-100670234D03*
%TD*%
D10*
%TO.C,J2*%
X64965384Y-89920234D03*
%TD*%
%TO.C,J2*%
X72585384Y-23880234D03*
%TD*%
%TO.C,J2*%
X70045384Y-23880234D03*
%TD*%
%TO.C,J2*%
X97985384Y-21340234D03*
%TD*%
%TO.C,J2*%
X80205384Y-23880234D03*
%TD*%
%TO.C,J2*%
X80205384Y-21340234D03*
%TD*%
%TO.C,J2*%
X75125384Y-21340234D03*
%TD*%
%TO.C,J2*%
X75125384Y-23880234D03*
%TD*%
D58*
%TO.C,J2*%
X64965384Y-21340234D03*
%TD*%
%TO.C,J2*%
X67505384Y-21340234D03*
%TD*%
D10*
%TO.C,J2*%
X100525384Y-23880234D03*
%TD*%
%TO.C,J2*%
X77665384Y-23880234D03*
%TD*%
D58*
%TO.C,J2*%
X64965384Y-23880234D03*
%TD*%
%TO.C,J2*%
X103065384Y-21340234D03*
%TD*%
D10*
%TO.C,J2*%
X87825384Y-21340234D03*
%TD*%
D58*
%TO.C,J2*%
X103065384Y-23880234D03*
%TD*%
D10*
%TO.C,J2*%
X97985384Y-23880234D03*
%TD*%
%TO.C,J2*%
X92905384Y-21340234D03*
%TD*%
%TO.C,J2*%
X72585384Y-21340234D03*
%TD*%
D58*
%TO.C,J2*%
X67505384Y-23880234D03*
%TD*%
%TO.C,J2*%
X105605384Y-23880234D03*
%TD*%
%TO.C,J2*%
X105605384Y-21340234D03*
%TD*%
D10*
%TO.C,J2*%
X90365384Y-21340234D03*
%TD*%
%TO.C,J2*%
X82745384Y-21340234D03*
%TD*%
%TO.C,J2*%
X95445384Y-23880234D03*
%TD*%
%TO.C,J2*%
X82745384Y-23880234D03*
%TD*%
%TO.C,J2*%
X70045384Y-21340234D03*
%TD*%
%TO.C,J2*%
X95445384Y-21340234D03*
%TD*%
%TO.C,J2*%
X87825384Y-23880234D03*
%TD*%
%TO.C,J2*%
X85285384Y-23880234D03*
%TD*%
%TO.C,J2*%
X90365384Y-23880234D03*
%TD*%
%TO.C,J2*%
X77665384Y-21340234D03*
%TD*%
%TO.C,J2*%
X100525384Y-21340234D03*
%TD*%
%TO.C,J2*%
X85285384Y-21340234D03*
%TD*%
%TO.C,J2*%
X87825384Y-41660234D03*
%TD*%
%TO.C,J2*%
X87825384Y-44200234D03*
%TD*%
%TO.C,J2*%
X92905384Y-26420234D03*
%TD*%
%TO.C,J2*%
X100525384Y-34040234D03*
%TD*%
%TO.C,J2*%
X70045384Y-44200234D03*
%TD*%
%TO.C,J2*%
X72585384Y-26420234D03*
%TD*%
%TO.C,J2*%
X80205384Y-44200234D03*
%TD*%
%TO.C,J2*%
X82745384Y-36580234D03*
%TD*%
%TO.C,J2*%
X85285384Y-34040234D03*
%TD*%
D58*
%TO.C,J2*%
X105605384Y-26420234D03*
%TD*%
D10*
%TO.C,J2*%
X90365384Y-26420234D03*
%TD*%
%TO.C,J2*%
X95445384Y-41660234D03*
%TD*%
%TO.C,J2*%
X82745384Y-26420234D03*
%TD*%
%TO.C,J2*%
X85285384Y-39120234D03*
%TD*%
%TO.C,J2*%
X95445384Y-28960234D03*
%TD*%
%TO.C,J2*%
X82745384Y-28960234D03*
%TD*%
%TO.C,J2*%
X85285384Y-44200234D03*
%TD*%
%TO.C,J2*%
X70045384Y-26420234D03*
%TD*%
%TO.C,J2*%
X77665384Y-36580234D03*
%TD*%
%TO.C,J2*%
X75125384Y-36580234D03*
%TD*%
%TO.C,J2*%
X95445384Y-26420234D03*
%TD*%
%TO.C,J2*%
X87825384Y-28960234D03*
%TD*%
%TO.C,J2*%
X85285384Y-28960234D03*
%TD*%
%TO.C,J2*%
X82745384Y-44200234D03*
%TD*%
%TO.C,J2*%
X90365384Y-28960234D03*
%TD*%
%TO.C,J2*%
X100525384Y-41660234D03*
%TD*%
%TO.C,J2*%
X97985384Y-31500234D03*
%TD*%
%TO.C,J2*%
X97985384Y-39120234D03*
%TD*%
%TO.C,J2*%
X70045384Y-34040234D03*
%TD*%
%TO.C,J2*%
X77665384Y-26420234D03*
%TD*%
%TO.C,J2*%
X75125384Y-44200234D03*
%TD*%
%TO.C,J2*%
X87825384Y-36580234D03*
%TD*%
%TO.C,J2*%
X95445384Y-39120234D03*
%TD*%
%TO.C,J2*%
X100525384Y-26420234D03*
%TD*%
%TO.C,J2*%
X85285384Y-26420234D03*
%TD*%
%TO.C,J2*%
X80205384Y-31500234D03*
%TD*%
%TO.C,J2*%
X72585384Y-36580234D03*
%TD*%
%TO.C,J2*%
X80205384Y-41660234D03*
%TD*%
%TO.C,J2*%
X70045384Y-31500234D03*
%TD*%
%TO.C,J2*%
X90365384Y-31500234D03*
%TD*%
%TO.C,J2*%
X80205384Y-39120234D03*
%TD*%
%TO.C,J2*%
X72585384Y-44200234D03*
%TD*%
%TO.C,J2*%
X75125384Y-41660234D03*
%TD*%
%TO.C,J2*%
X80205384Y-26420234D03*
%TD*%
%TO.C,J2*%
X95445384Y-44200234D03*
%TD*%
%TO.C,J2*%
X87825384Y-31500234D03*
%TD*%
%TO.C,J2*%
X92905384Y-31500234D03*
%TD*%
%TO.C,J2*%
X70045384Y-39120234D03*
%TD*%
%TO.C,J2*%
X85285384Y-36580234D03*
%TD*%
%TO.C,J2*%
X95445384Y-34040234D03*
%TD*%
%TO.C,J2*%
X90365384Y-41660234D03*
%TD*%
%TO.C,J2*%
X72585384Y-28960234D03*
%TD*%
%TO.C,J2*%
X87825384Y-39120234D03*
%TD*%
%TO.C,J2*%
X90365384Y-34040234D03*
%TD*%
%TO.C,J2*%
X77665384Y-28960234D03*
%TD*%
%TO.C,J2*%
X92905384Y-39120234D03*
%TD*%
%TO.C,J2*%
X82745384Y-39120234D03*
%TD*%
%TO.C,J2*%
X82745384Y-31500234D03*
%TD*%
%TO.C,J2*%
X97985384Y-28960234D03*
%TD*%
%TO.C,J2*%
X75125384Y-39120234D03*
%TD*%
%TO.C,J2*%
X82745384Y-41660234D03*
%TD*%
D58*
%TO.C,J2*%
X64965384Y-26420234D03*
%TD*%
D10*
%TO.C,J2*%
X72585384Y-34040234D03*
%TD*%
%TO.C,J2*%
X70045384Y-28960234D03*
%TD*%
%TO.C,J2*%
X75125384Y-34040234D03*
%TD*%
D58*
%TO.C,J2*%
X67505384Y-26420234D03*
%TD*%
D10*
%TO.C,J2*%
X80205384Y-36580234D03*
%TD*%
%TO.C,J2*%
X82745384Y-34040234D03*
%TD*%
%TO.C,J2*%
X72585384Y-41660234D03*
%TD*%
%TO.C,J2*%
X100525384Y-44200234D03*
%TD*%
%TO.C,J2*%
X87825384Y-34040234D03*
%TD*%
%TO.C,J2*%
X100525384Y-31500234D03*
%TD*%
%TO.C,J2*%
X97985384Y-26420234D03*
%TD*%
%TO.C,J2*%
X100525384Y-28960234D03*
%TD*%
D58*
%TO.C,J2*%
X103065384Y-26420234D03*
%TD*%
D10*
%TO.C,J2*%
X90365384Y-44200234D03*
%TD*%
%TO.C,J2*%
X70045384Y-36580234D03*
%TD*%
%TO.C,J2*%
X77665384Y-34040234D03*
%TD*%
%TO.C,J2*%
X72585384Y-39120234D03*
%TD*%
%TO.C,J2*%
X85285384Y-31500234D03*
%TD*%
%TO.C,J2*%
X70045384Y-41660234D03*
%TD*%
%TO.C,J2*%
X80205384Y-34040234D03*
%TD*%
%TO.C,J2*%
X77665384Y-31500234D03*
%TD*%
%TO.C,J2*%
X75125384Y-31500234D03*
%TD*%
%TO.C,J2*%
X80205384Y-28960234D03*
%TD*%
%TO.C,J2*%
X75125384Y-28960234D03*
%TD*%
%TO.C,J2*%
X90365384Y-39120234D03*
%TD*%
%TO.C,J2*%
X92905384Y-28960234D03*
%TD*%
%TO.C,J2*%
X77665384Y-44200234D03*
%TD*%
%TO.C,J2*%
X77665384Y-41660234D03*
%TD*%
%TO.C,J2*%
X77665384Y-39120234D03*
%TD*%
%TO.C,J2*%
X75125384Y-26420234D03*
%TD*%
%TO.C,J2*%
X97985384Y-44200234D03*
%TD*%
%TO.C,J2*%
X92905384Y-44200234D03*
%TD*%
%TO.C,J2*%
X92905384Y-36580234D03*
%TD*%
%TO.C,J2*%
X92905384Y-41660234D03*
%TD*%
%TO.C,J2*%
X85285384Y-41660234D03*
%TD*%
%TO.C,J2*%
X100525384Y-36580234D03*
%TD*%
%TO.C,J2*%
X87825384Y-26420234D03*
%TD*%
%TO.C,J2*%
X92905384Y-34040234D03*
%TD*%
%TO.C,J2*%
X90365384Y-36580234D03*
%TD*%
%TO.C,J2*%
X97985384Y-36580234D03*
%TD*%
%TO.C,J2*%
X95445384Y-36580234D03*
%TD*%
%TO.C,J2*%
X95445384Y-31500234D03*
%TD*%
%TO.C,J2*%
X97985384Y-34040234D03*
%TD*%
%TO.C,J2*%
X100525384Y-39120234D03*
%TD*%
%TO.C,J2*%
X97985384Y-41660234D03*
%TD*%
%TO.C,J2*%
X72585384Y-31500234D03*
%TD*%
%TO.C,J2*%
X72585384Y-46740234D03*
%TD*%
%TO.C,J2*%
X87825384Y-46740234D03*
%TD*%
%TO.C,J2*%
X92905384Y-54360234D03*
%TD*%
%TO.C,J2*%
X90365384Y-56900234D03*
%TD*%
%TO.C,J2*%
X97985384Y-56900234D03*
%TD*%
%TO.C,J2*%
X95445384Y-56900234D03*
%TD*%
%TO.C,J2*%
X87825384Y-69600234D03*
%TD*%
%TO.C,J2*%
X95445384Y-51820234D03*
%TD*%
%TO.C,J2*%
X97985384Y-54360234D03*
%TD*%
%TO.C,J2*%
X100525384Y-59440234D03*
%TD*%
%TO.C,J2*%
X97985384Y-61980234D03*
%TD*%
%TO.C,J2*%
X72585384Y-51820234D03*
%TD*%
%TO.C,J2*%
X95445384Y-64520234D03*
%TD*%
%TO.C,J2*%
X82745384Y-69600234D03*
%TD*%
%TO.C,J2*%
X87825384Y-51820234D03*
%TD*%
%TO.C,J2*%
X92905384Y-51820234D03*
%TD*%
%TO.C,J2*%
X70045384Y-59440234D03*
%TD*%
%TO.C,J2*%
X92905384Y-67060234D03*
%TD*%
%TO.C,J2*%
X85285384Y-56900234D03*
%TD*%
%TO.C,J2*%
X95445384Y-54360234D03*
%TD*%
%TO.C,J2*%
X100525384Y-69600234D03*
%TD*%
%TO.C,J2*%
X90365384Y-61980234D03*
%TD*%
%TO.C,J2*%
X72585384Y-49280234D03*
%TD*%
%TO.C,J2*%
X75125384Y-46740234D03*
%TD*%
%TO.C,J2*%
X97985384Y-64520234D03*
%TD*%
%TO.C,J2*%
X92905384Y-64520234D03*
%TD*%
%TO.C,J2*%
X92905384Y-56900234D03*
%TD*%
%TO.C,J2*%
X92905384Y-61980234D03*
%TD*%
%TO.C,J2*%
X87825384Y-67060234D03*
%TD*%
%TO.C,J2*%
X85285384Y-61980234D03*
%TD*%
%TO.C,J2*%
X100525384Y-56900234D03*
%TD*%
%TO.C,J2*%
X97985384Y-67060234D03*
%TD*%
%TO.C,J2*%
X85285384Y-54360234D03*
%TD*%
%TO.C,J2*%
X82745384Y-67060234D03*
%TD*%
%TO.C,J2*%
X90365384Y-46740234D03*
%TD*%
%TO.C,J2*%
X95445384Y-61980234D03*
%TD*%
%TO.C,J2*%
X82745384Y-46740234D03*
%TD*%
%TO.C,J2*%
X85285384Y-59440234D03*
%TD*%
%TO.C,J2*%
X95445384Y-49280234D03*
%TD*%
%TO.C,J2*%
X92905384Y-69600234D03*
%TD*%
%TO.C,J2*%
X87825384Y-56900234D03*
%TD*%
%TO.C,J2*%
X85285384Y-69600234D03*
%TD*%
%TO.C,J2*%
X95445384Y-59440234D03*
%TD*%
%TO.C,J2*%
X100525384Y-46740234D03*
%TD*%
%TO.C,J2*%
X97985384Y-69600234D03*
%TD*%
%TO.C,J2*%
X75125384Y-69600234D03*
%TD*%
%TO.C,J2*%
X85285384Y-67060234D03*
%TD*%
%TO.C,J2*%
X85285384Y-46740234D03*
%TD*%
%TO.C,J2*%
X80205384Y-51820234D03*
%TD*%
%TO.C,J2*%
X72585384Y-56900234D03*
%TD*%
%TO.C,J2*%
X90365384Y-69600234D03*
%TD*%
%TO.C,J2*%
X82745384Y-54360234D03*
%TD*%
%TO.C,J2*%
X72585384Y-61980234D03*
%TD*%
%TO.C,J2*%
X100525384Y-64520234D03*
%TD*%
%TO.C,J2*%
X87825384Y-54360234D03*
%TD*%
%TO.C,J2*%
X95445384Y-69600234D03*
%TD*%
%TO.C,J2*%
X100525384Y-51820234D03*
%TD*%
%TO.C,J2*%
X97985384Y-46740234D03*
%TD*%
%TO.C,J2*%
X100525384Y-49280234D03*
%TD*%
%TO.C,J2*%
X95445384Y-46740234D03*
%TD*%
%TO.C,J2*%
X87825384Y-49280234D03*
%TD*%
%TO.C,J2*%
X85285384Y-49280234D03*
%TD*%
%TO.C,J2*%
X82745384Y-64520234D03*
%TD*%
%TO.C,J2*%
X90365384Y-49280234D03*
%TD*%
%TO.C,J2*%
X100525384Y-61980234D03*
%TD*%
%TO.C,J2*%
X97985384Y-51820234D03*
%TD*%
%TO.C,J2*%
X97985384Y-59440234D03*
%TD*%
%TO.C,J2*%
X70045384Y-54360234D03*
%TD*%
%TO.C,J2*%
X70045384Y-69600234D03*
%TD*%
%TO.C,J2*%
X87825384Y-59440234D03*
%TD*%
%TO.C,J2*%
X90365384Y-54360234D03*
%TD*%
%TO.C,J2*%
X77665384Y-49280234D03*
%TD*%
%TO.C,J2*%
X92905384Y-59440234D03*
%TD*%
%TO.C,J2*%
X82745384Y-59440234D03*
%TD*%
%TO.C,J2*%
X82745384Y-51820234D03*
%TD*%
%TO.C,J2*%
X97985384Y-49280234D03*
%TD*%
%TO.C,J2*%
X75125384Y-59440234D03*
%TD*%
%TO.C,J2*%
X100525384Y-67060234D03*
%TD*%
%TO.C,J2*%
X82745384Y-61980234D03*
%TD*%
%TO.C,J2*%
X87825384Y-61980234D03*
%TD*%
%TO.C,J2*%
X87825384Y-64520234D03*
%TD*%
%TO.C,J2*%
X92905384Y-46740234D03*
%TD*%
%TO.C,J2*%
X95445384Y-67060234D03*
%TD*%
%TO.C,J2*%
X100525384Y-54360234D03*
%TD*%
%TO.C,J2*%
X70045384Y-64520234D03*
%TD*%
%TO.C,J2*%
X82745384Y-49280234D03*
%TD*%
%TO.C,J2*%
X85285384Y-64520234D03*
%TD*%
%TO.C,J2*%
X70045384Y-46740234D03*
%TD*%
%TO.C,J2*%
X77665384Y-56900234D03*
%TD*%
%TO.C,J2*%
X75125384Y-56900234D03*
%TD*%
%TO.C,J2*%
X80205384Y-46740234D03*
%TD*%
%TO.C,J2*%
X77665384Y-69600234D03*
%TD*%
%TO.C,J2*%
X80205384Y-69600234D03*
%TD*%
%TO.C,J2*%
X80205384Y-67060234D03*
%TD*%
%TO.C,J2*%
X80205384Y-56900234D03*
%TD*%
%TO.C,J2*%
X72585384Y-69600234D03*
%TD*%
%TO.C,J2*%
X72585384Y-54360234D03*
%TD*%
%TO.C,J2*%
X80205384Y-64520234D03*
%TD*%
%TO.C,J2*%
X77665384Y-59440234D03*
%TD*%
%TO.C,J2*%
X90365384Y-67060234D03*
%TD*%
%TO.C,J2*%
X77665384Y-67060234D03*
%TD*%
%TO.C,J2*%
X77665384Y-46740234D03*
%TD*%
%TO.C,J2*%
X75125384Y-64520234D03*
%TD*%
%TO.C,J2*%
X72585384Y-59440234D03*
%TD*%
%TO.C,J2*%
X75125384Y-67060234D03*
%TD*%
%TO.C,J2*%
X72585384Y-67060234D03*
%TD*%
%TO.C,J2*%
X90365384Y-59440234D03*
%TD*%
%TO.C,J2*%
X92905384Y-49280234D03*
%TD*%
%TO.C,J2*%
X70045384Y-49280234D03*
%TD*%
%TO.C,J2*%
X75125384Y-54360234D03*
%TD*%
%TO.C,J2*%
X90365384Y-51820234D03*
%TD*%
%TO.C,J2*%
X85285384Y-51820234D03*
%TD*%
%TO.C,J2*%
X82745384Y-56900234D03*
%TD*%
%TO.C,J2*%
X90365384Y-64520234D03*
%TD*%
%TO.C,J2*%
X80205384Y-54360234D03*
%TD*%
%TO.C,J2*%
X70045384Y-56900234D03*
%TD*%
%TO.C,J2*%
X77665384Y-54360234D03*
%TD*%
%TO.C,J2*%
X80205384Y-61980234D03*
%TD*%
%TO.C,J2*%
X77665384Y-61980234D03*
%TD*%
%TO.C,J2*%
X75125384Y-51820234D03*
%TD*%
%TO.C,J2*%
X70045384Y-61980234D03*
%TD*%
%TO.C,J2*%
X77665384Y-51820234D03*
%TD*%
%TO.C,J2*%
X80205384Y-49280234D03*
%TD*%
%TO.C,J2*%
X75125384Y-61980234D03*
%TD*%
%TO.C,J2*%
X80205384Y-59440234D03*
%TD*%
%TO.C,J2*%
X70045384Y-51820234D03*
%TD*%
%TO.C,J2*%
X70045384Y-67060234D03*
%TD*%
%TO.C,J2*%
X75125384Y-49280234D03*
%TD*%
%TO.C,J2*%
X72585384Y-64520234D03*
%TD*%
%TO.C,J2*%
X77665384Y-64520234D03*
%TD*%
D58*
%TO.C,J2*%
X105605384Y-92460234D03*
%TD*%
%TO.C,J2*%
X105605384Y-95000234D03*
%TD*%
%TO.C,J2*%
X103065384Y-95000234D03*
%TD*%
%TO.C,J2*%
X103065384Y-92460234D03*
%TD*%
D10*
%TO.C,J2*%
X87825384Y-89920234D03*
%TD*%
%TO.C,J2*%
X92905384Y-72140234D03*
%TD*%
%TO.C,J2*%
X82745384Y-95000234D03*
%TD*%
%TO.C,J2*%
X87825384Y-77220234D03*
%TD*%
%TO.C,J2*%
X92905384Y-77220234D03*
%TD*%
%TO.C,J2*%
X90365384Y-84840234D03*
%TD*%
%TO.C,J2*%
X92905384Y-74680234D03*
%TD*%
%TO.C,J2*%
X95445384Y-72140234D03*
%TD*%
%TO.C,J2*%
X87825384Y-74680234D03*
%TD*%
%TO.C,J2*%
X85285384Y-74680234D03*
%TD*%
%TO.C,J2*%
X87825384Y-79760234D03*
%TD*%
%TO.C,J2*%
X95445384Y-95000234D03*
%TD*%
%TO.C,J2*%
X100525384Y-77220234D03*
%TD*%
%TO.C,J2*%
X92905384Y-82300234D03*
%TD*%
%TO.C,J2*%
X92905384Y-87380234D03*
%TD*%
%TO.C,J2*%
X87825384Y-92460234D03*
%TD*%
%TO.C,J2*%
X87825384Y-84840234D03*
%TD*%
%TO.C,J2*%
X90365384Y-79760234D03*
%TD*%
%TO.C,J2*%
X90365384Y-95000234D03*
%TD*%
%TO.C,J2*%
X82745384Y-79760234D03*
%TD*%
%TO.C,J2*%
X82745384Y-77220234D03*
%TD*%
%TO.C,J2*%
X97985384Y-74680234D03*
%TD*%
%TO.C,J2*%
X95445384Y-84840234D03*
%TD*%
%TO.C,J2*%
X82745384Y-82300234D03*
%TD*%
%TO.C,J2*%
X90365384Y-89920234D03*
%TD*%
%TO.C,J2*%
X82745384Y-92460234D03*
%TD*%
%TO.C,J2*%
X90365384Y-72140234D03*
%TD*%
%TO.C,J2*%
X97985384Y-82300234D03*
%TD*%
%TO.C,J2*%
X95445384Y-82300234D03*
%TD*%
%TO.C,J2*%
X100525384Y-72140234D03*
%TD*%
%TO.C,J2*%
X97985384Y-95000234D03*
%TD*%
%TO.C,J2*%
X100525384Y-95000234D03*
%TD*%
%TO.C,J2*%
X100525384Y-92460234D03*
%TD*%
%TO.C,J2*%
X82745384Y-74680234D03*
%TD*%
%TO.C,J2*%
X87825384Y-72140234D03*
%TD*%
%TO.C,J2*%
X87825384Y-82300234D03*
%TD*%
%TO.C,J2*%
X100525384Y-82300234D03*
%TD*%
%TO.C,J2*%
X92905384Y-95000234D03*
%TD*%
%TO.C,J2*%
X85285384Y-72140234D03*
%TD*%
%TO.C,J2*%
X92905384Y-79760234D03*
%TD*%
%TO.C,J2*%
X85285384Y-87380234D03*
%TD*%
%TO.C,J2*%
X100525384Y-89920234D03*
%TD*%
%TO.C,J2*%
X97985384Y-84840234D03*
%TD*%
%TO.C,J2*%
X85285384Y-92460234D03*
%TD*%
%TO.C,J2*%
X82745384Y-89920234D03*
%TD*%
%TO.C,J2*%
X87825384Y-87380234D03*
%TD*%
%TO.C,J2*%
X85285384Y-84840234D03*
%TD*%
%TO.C,J2*%
X97985384Y-92460234D03*
%TD*%
%TO.C,J2*%
X97985384Y-72140234D03*
%TD*%
%TO.C,J2*%
X95445384Y-89920234D03*
%TD*%
%TO.C,J2*%
X85285384Y-82300234D03*
%TD*%
%TO.C,J2*%
X85285384Y-89920234D03*
%TD*%
%TO.C,J2*%
X92905384Y-84840234D03*
%TD*%
%TO.C,J2*%
X95445384Y-92460234D03*
%TD*%
%TO.C,J2*%
X92905384Y-92460234D03*
%TD*%
%TO.C,J2*%
X90365384Y-74680234D03*
%TD*%
%TO.C,J2*%
X95445384Y-79760234D03*
%TD*%
%TO.C,J2*%
X82745384Y-72140234D03*
%TD*%
%TO.C,J2*%
X85285384Y-77220234D03*
%TD*%
%TO.C,J2*%
X100525384Y-79760234D03*
%TD*%
%TO.C,J2*%
X85285384Y-95000234D03*
%TD*%
%TO.C,J2*%
X82745384Y-87380234D03*
%TD*%
%TO.C,J2*%
X87825384Y-95000234D03*
%TD*%
%TO.C,J2*%
X90365384Y-82300234D03*
%TD*%
%TO.C,J2*%
X97985384Y-79760234D03*
%TD*%
%TO.C,J2*%
X82745384Y-84840234D03*
%TD*%
%TO.C,J2*%
X100525384Y-87380234D03*
%TD*%
%TO.C,J2*%
X97985384Y-87380234D03*
%TD*%
%TO.C,J2*%
X95445384Y-77220234D03*
%TD*%
%TO.C,J2*%
X90365384Y-87380234D03*
%TD*%
%TO.C,J2*%
X97985384Y-77220234D03*
%TD*%
%TO.C,J2*%
X100525384Y-74680234D03*
%TD*%
%TO.C,J2*%
X95445384Y-87380234D03*
%TD*%
%TO.C,J2*%
X100525384Y-84840234D03*
%TD*%
%TO.C,J2*%
X90365384Y-77220234D03*
%TD*%
%TO.C,J2*%
X90365384Y-92460234D03*
%TD*%
%TO.C,J2*%
X95445384Y-74680234D03*
%TD*%
%TO.C,J2*%
X85285384Y-79760234D03*
%TD*%
%TO.C,J2*%
X92905384Y-89920234D03*
%TD*%
%TO.C,J2*%
X97985384Y-89920234D03*
%TD*%
%TO.C,J2*%
X70045384Y-72140234D03*
%TD*%
%TO.C,J2*%
X75125384Y-82300234D03*
%TD*%
%TO.C,J2*%
X72585384Y-74680234D03*
%TD*%
%TO.C,J2*%
X70045384Y-82300234D03*
%TD*%
%TO.C,J2*%
X75125384Y-72140234D03*
%TD*%
%TO.C,J2*%
X70045384Y-77220234D03*
%TD*%
%TO.C,J2*%
X77665384Y-82300234D03*
%TD*%
%TO.C,J2*%
X80205384Y-82300234D03*
%TD*%
%TO.C,J2*%
X80205384Y-79760234D03*
%TD*%
%TO.C,J2*%
X72585384Y-82300234D03*
%TD*%
%TO.C,J2*%
X80205384Y-77220234D03*
%TD*%
%TO.C,J2*%
X77665384Y-72140234D03*
%TD*%
%TO.C,J2*%
X77665384Y-79760234D03*
%TD*%
%TO.C,J2*%
X75125384Y-77220234D03*
%TD*%
%TO.C,J2*%
X72585384Y-72140234D03*
%TD*%
%TO.C,J2*%
X75125384Y-79760234D03*
%TD*%
%TO.C,J2*%
X72585384Y-79760234D03*
%TD*%
%TO.C,J2*%
X80205384Y-74680234D03*
%TD*%
%TO.C,J2*%
X77665384Y-74680234D03*
%TD*%
%TO.C,J2*%
X70045384Y-74680234D03*
%TD*%
%TO.C,J2*%
X75125384Y-74680234D03*
%TD*%
%TO.C,J2*%
X80205384Y-72140234D03*
%TD*%
%TO.C,J2*%
X70045384Y-79760234D03*
%TD*%
%TO.C,J2*%
X72585384Y-77220234D03*
%TD*%
%TO.C,J2*%
X77665384Y-77220234D03*
%TD*%
%TO.C,J2*%
X77665384Y-89920234D03*
%TD*%
%TO.C,J2*%
X72585384Y-95000234D03*
%TD*%
%TO.C,J2*%
X80205384Y-84840234D03*
%TD*%
%TO.C,J2*%
X77665384Y-92460234D03*
%TD*%
%TO.C,J2*%
X77665384Y-84840234D03*
%TD*%
%TO.C,J2*%
X80205384Y-95000234D03*
%TD*%
%TO.C,J2*%
X80205384Y-89920234D03*
%TD*%
%TO.C,J2*%
X72585384Y-92460234D03*
%TD*%
%TO.C,J2*%
X75125384Y-87380234D03*
%TD*%
%TO.C,J2*%
X75125384Y-92460234D03*
%TD*%
%TO.C,J2*%
X72585384Y-89920234D03*
%TD*%
%TO.C,J2*%
X77665384Y-87380234D03*
%TD*%
%TO.C,J2*%
X75125384Y-84840234D03*
%TD*%
%TO.C,J2*%
X75125384Y-89920234D03*
%TD*%
%TO.C,J2*%
X75125384Y-95000234D03*
%TD*%
%TO.C,J2*%
X72585384Y-87380234D03*
%TD*%
%TO.C,J2*%
X77665384Y-95000234D03*
%TD*%
%TO.C,J2*%
X72585384Y-84840234D03*
%TD*%
%TO.C,J2*%
X80205384Y-87380234D03*
%TD*%
%TO.C,J2*%
X80205384Y-92460234D03*
%TD*%
D58*
%TO.C,J2*%
X67505384Y-95000234D03*
%TD*%
%TO.C,J2*%
X67505384Y-92460234D03*
%TD*%
D10*
%TO.C,J2*%
X70045384Y-87380234D03*
%TD*%
%TO.C,J2*%
X70045384Y-92460234D03*
%TD*%
%TO.C,J2*%
X70045384Y-84840234D03*
%TD*%
%TO.C,J2*%
X70045384Y-89920234D03*
%TD*%
%TO.C,J2*%
X70045384Y-95000234D03*
%TD*%
D58*
%TO.C,J2*%
X64965384Y-95000234D03*
%TD*%
%TO.C,J2*%
X64965384Y-92460234D03*
%TD*%
M02*
