M48
INCH,TZ
T1C0.0060
T2C0.0118
T3C0.0120
T4C0.0180
T5C0.0197
T6C0.0315
T7C0.0354
T8C0.0390
T9C0.0394
T10C0.0512
T11C0.0591
T12C0.0787
T13C0.1181
T14C0.1220
%
G90
G05
T1
X49272Y-30053
X49572Y-29753
X50834Y-24206
X50972Y-20453
X51002Y-24377
X51372Y-20453
X51572Y-21453
X51572Y-21753
X51772Y-14553
X51772Y-14853
X51772Y-15153
X51772Y-15453
X51772Y-20453
X51872Y-21253
X51872Y-21553
X51872Y-21853
X52072Y-15753
X52072Y-16053
X52072Y-16353
X52172Y-12853
X52172Y-13153
X52172Y-13453
X52172Y-24953
X52372Y-12653
X52372Y-24353
X52372Y-29353
X52522Y-24953
X52572Y-23153
X52672Y-12653
X52672Y-22453
X52772Y-24353
X52872Y-24953
X53072Y-24353
X53072Y-31053
X53572Y-20553
X53772Y-16753
X53772Y-17053
X54172Y-17253
X54172Y-17553
X54172Y-17853
X54172Y-18153
X54172Y-27353
X54172Y-27653
X54172Y-27953
X54172Y-28253
X54172Y-28553
X54172Y-28853
X54172Y-29153
X54172Y-29453
X54172Y-29753
X54172Y-30053
X54172Y-30353
X54272Y-30653
X54472Y-22077
X54572Y-30653
X54972Y-40053
X54972Y-40353
X55172Y-31053
X55172Y-40653
X55472Y-19153
X55472Y-22653
X55472Y-40653
X55570Y-23012
X55772Y-23253
X55772Y-26153
X55772Y-40653
X55872Y-17553
X55872Y-17953
X55872Y-27553
X55872Y-28053
X55872Y-29753
X55872Y-30153
X55972Y-23453
X55972Y-40153
X55972Y-40453
X56072Y-22153
X56072Y-22653
X56072Y-26053
X56312Y-22153
X56372Y-27053
X56672Y-31053
X56772Y-6353
X57072Y-6353
X57272Y-22253
X57372Y-6353
X57372Y-10353
X57537Y-30442
X57672Y-6353
X57672Y-17553
X57672Y-17953
X57752Y-29453
X57752Y-29453
X57772Y-27653
X57872Y-7253
X57872Y-25453
X57972Y-6353
X57972Y-29453
X58172Y-28953
X58172Y-29253
X58272Y-25953
X58372Y-10353
X58472Y-26253
X58572Y-25653
X58772Y-25953
X58872Y-19453
X58872Y-7553
X59372Y-10253
X59372Y-15653
X59572Y-25253
X59672Y-15653
X59672Y-31653
X59672Y-31953
X59672Y-32253
X59672Y-32553
X59872Y-24853
X59972Y-15653
X60172Y-15953
X60172Y-16253
X60172Y-24453
X60172Y-25253
X60372Y-17453
X60672Y-24553
X60772Y-21253
X61172Y-29653
X61372Y-29153
X61372Y-29453
X61372Y-34253
X61637Y-25269
X61672Y-22453
X61672Y-22853
X61672Y-23253
X61672Y-26453
X61672Y-34253
X61860Y-25179
X61958Y-24960
X62072Y-34253
X62172Y-22853
X62172Y-24853
X62372Y-24653
X62572Y-15653
X62572Y-15953
X62572Y-16253
X62572Y-16553
X62572Y-16853
X62572Y-17153
X62572Y-17453
X62572Y-17753
X62572Y-20453
X62572Y-24853
X62772Y-24653
X62772Y-32753
X62865Y-21893
X62972Y-29153
X62972Y-29453
X63072Y-24853
X63172Y-24553
X63172Y-33153
X63272Y-29653
X63472Y-24653
X63472Y-25253
X63472Y-33453
X63572Y-25753
X63572Y-29653
X63872Y-29653
X63972Y-29053
X63972Y-29353
X64070Y-17300
X64572Y-15753
X64572Y-16253
X64572Y-16753
X64572Y-19953
X64972Y-27553
X65072Y-15753
X65072Y-19953
X65072Y-23153
X65072Y-23453
X65072Y-23753
X65272Y-26153
X65372Y-19453
X65372Y-19853
X65372Y-20153
X65372Y-20453
X65372Y-27553
X65372Y-27853
X65572Y-26553
X65772Y-27853
X66172Y-17953
X66253Y-30113
X66272Y-13953
X66272Y-28853
X66272Y-29153
X66272Y-29453
X66272Y-29753
X66272Y-30353
X66272Y-30653
X66272Y-30953
X66272Y-31253
X66272Y-31553
X66572Y-12953
X66672Y-14253
X66672Y-15953
X66772Y-13853
X67072Y-12153
X67172Y-14153
X67172Y-15553
X67172Y-15953
X67472Y-11653
X67872Y-27653
X67872Y-28653
X67972Y-11053
X68072Y-10653
X68272Y-28053
X68272Y-28953
X78820Y-22314
X81020Y-23364
X81270Y-18471
X85320Y-28971
X85920Y-26221
X86020Y-29871
X86401Y-20441
X86620Y-22721
X87770Y-30371
X87823Y-20079
X88020Y-21321
X88107Y-22984
X88197Y-25048
X88270Y-27321
X88320Y-19371
X88330Y-20304
X88670Y-22921
X88811Y-25015
X88906Y-22963
X89010Y-25150
X89370Y-25171
X89420Y-29521
X89420Y-30871
X89470Y-26971
X89503Y-24971
X89545Y-20006
X89720Y-20571
X89820Y-24591
X89870Y-19221
X89970Y-20621
X90100Y-23489
X90119Y-24781
X90220Y-24421
X90220Y-25171
X90620Y-19171
X90772Y-26369
X90820Y-21671
X91120Y-23171
X91170Y-20521
X91319Y-24361
X91320Y-29721
X91320Y-30771
X91820Y-29521
X91820Y-30921
X92120Y-25321
X92170Y-23721
X92370Y-23271
X92720Y-24421
X93070Y-22421
X93370Y-24471
T2
X88226Y-23774
X88226Y-24168
X88620Y-23774
X88620Y-24168
X89014Y-23774
X89014Y-24168
X79590Y-22324
X79590Y-22718
X79787Y-22521
X79984Y-22324
X79984Y-22718
T3
X79670Y-16521
X79670Y-19621
X80070Y-20671
X82570Y-19871
X82920Y-21071
X83220Y-25571
X83670Y-28871
X86120Y-24821
X86620Y-31571
T4
X51872Y-14053
X53372Y-16653
X55272Y-18553
X55672Y-8253
X55772Y-6653
X57772Y-6953
X59672Y-6453
T5
X61772Y-28653
X62520Y-28653
T6
X66072Y-23932
X66072Y-25853
X52648Y-33153
X53435Y-33153
X54223Y-33153
X55010Y-33153
X55797Y-33153
X56585Y-33153
X57372Y-33153
T7
X80295Y-5771
X81082Y-5771
X81870Y-5771
T8
X60951Y-39903
X62722Y-39903
T9
X38577Y-26402
X30577Y-22402
X34577Y-17402
X38577Y-11402
X25577Y-16402
X35577Y-37402
X35577Y-36402
X25577Y-37402
X29577Y-27402
X29577Y-25402
X32577Y-11402
X38577Y-10402
X41577Y-19402
X26577Y-25402
X39577Y-36402
X28577Y-32402
X35577Y-15402
X36577Y-21402
X37577Y-18402
X30577Y-21402
X26577Y-18402
X29577Y-8402
X30577Y-10402
X41577Y-25402
X33577Y-33402
X28577Y-30402
X27577Y-23402
X32577Y-23402
X41577Y-36402
X41577Y-9402
X31577Y-10402
X25577Y-23402
X40577Y-22402
X34577Y-30402
X33577Y-37402
X29577Y-33402
X39577Y-22402
X27577Y-18402
X34577Y-16402
X32577Y-12402
X25577Y-28402
X22144Y-10870
X22144Y-11870
X22144Y-12870
X22144Y-13870
X22144Y-14870
X22144Y-15870
X22144Y-16870
X22144Y-17870
X22144Y-18870
X22144Y-19870
X22144Y-21421
X22144Y-22421
X22144Y-23421
X22144Y-24421
X22144Y-25421
X22144Y-26421
X22144Y-27421
X22144Y-28421
X22144Y-29421
X22144Y-30421
X22144Y-31421
X22144Y-32421
X22144Y-33421
X22144Y-34421
X22144Y-35421
X23144Y-10870
X23144Y-11870
X23144Y-12870
X23144Y-13870
X23144Y-14870
X23144Y-15870
X23144Y-16870
X23144Y-17870
X23144Y-18870
X23144Y-19870
X23144Y-21421
X23144Y-22421
X23144Y-23421
X23144Y-24421
X23144Y-25421
X23144Y-26421
X23144Y-27421
X23144Y-28421
X23144Y-29421
X23144Y-30421
X23144Y-31421
X23144Y-32421
X23144Y-33421
X23144Y-34421
X23144Y-35421
X44073Y-10870
X44073Y-11870
X44073Y-12870
X44073Y-13870
X44073Y-14870
X44073Y-15870
X44073Y-16870
X44073Y-17870
X44073Y-18870
X44073Y-19870
X44073Y-20870
X44073Y-21870
X44073Y-22870
X44073Y-23870
X44073Y-24870
X44073Y-25870
X44073Y-26870
X44073Y-27870
X44073Y-28870
X44073Y-29870
X44073Y-30870
X44073Y-31870
X44073Y-32870
X44073Y-33870
X44073Y-34870
X45073Y-10870
X45073Y-11870
X45073Y-12870
X45073Y-13870
X45073Y-14870
X45073Y-15870
X45073Y-16870
X45073Y-17870
X45073Y-18870
X45073Y-19870
X45073Y-20870
X45073Y-21870
X45073Y-22870
X45073Y-23870
X45073Y-24870
X45073Y-25870
X45073Y-26870
X45073Y-27870
X45073Y-28870
X45073Y-29870
X45073Y-30870
X45073Y-31870
X45073Y-32870
X45073Y-33870
X45073Y-34870
X35577Y-31402
X35577Y-30402
X27577Y-37402
X38577Y-27402
X30577Y-18402
X37577Y-11402
X39577Y-12402
X41577Y-18402
X39577Y-37402
X31577Y-31402
X29577Y-11402
X34577Y-18402
X39577Y-19402
X27577Y-22402
X26577Y-17402
X31577Y-8402
X27577Y-13402
X25577Y-14402
X34577Y-34402
X27577Y-31402
X47389Y-21423
X47389Y-22423
X47389Y-23423
X47389Y-24423
X47389Y-25423
X47389Y-26423
X47389Y-27423
X47389Y-28423
X47389Y-29423
X47389Y-30423
X47389Y-31423
X47389Y-32423
X47389Y-33423
X47389Y-34423
X47389Y-35423
X47399Y-10359
X47399Y-11359
X47399Y-12359
X47399Y-13359
X47399Y-14359
X47399Y-15359
X47399Y-16359
X47399Y-17359
X47399Y-18359
X47399Y-19359
X48389Y-21423
X48389Y-22423
X48389Y-23423
X48389Y-24423
X48389Y-25423
X48389Y-26423
X48389Y-27423
X48389Y-28423
X48389Y-29423
X48389Y-30423
X48389Y-31423
X48389Y-32423
X48389Y-33423
X48389Y-34423
X48389Y-35423
X48399Y-10359
X48399Y-11359
X48399Y-12359
X48399Y-13359
X48399Y-14359
X48399Y-15359
X48399Y-16359
X48399Y-17359
X48399Y-18359
X48399Y-19359
X69318Y-10871
X69318Y-11871
X69318Y-12871
X69318Y-13871
X69318Y-14871
X69318Y-15871
X69318Y-16871
X69318Y-17871
X69318Y-18871
X69318Y-19871
X69318Y-20871
X69318Y-21871
X69318Y-22871
X69318Y-23871
X69318Y-24871
X69318Y-25871
X69318Y-26871
X69318Y-27871
X69318Y-28871
X69318Y-29871
X69318Y-30871
X69318Y-31871
X69318Y-32871
X69318Y-33871
X69318Y-34871
X70318Y-10871
X70318Y-11871
X70318Y-12871
X70318Y-13871
X70318Y-14871
X70318Y-15871
X70318Y-16871
X70318Y-17871
X70318Y-18871
X70318Y-19871
X70318Y-20871
X70318Y-21871
X70318Y-22871
X70318Y-23871
X70318Y-24871
X70318Y-25871
X70318Y-26871
X70318Y-27871
X70318Y-28871
X70318Y-29871
X70318Y-30871
X70318Y-31871
X70318Y-32871
X70318Y-33871
X70318Y-34871
X36577Y-20402
X36577Y-23402
X30577Y-25402
X26577Y-9402
X29577Y-16402
X25577Y-22402
X40577Y-21402
X32577Y-37402
X39577Y-31402
X30577Y-34402
X33577Y-24402
X33577Y-25402
X33577Y-8402
X32577Y-15402
X25577Y-12402
X40577Y-35402
X34577Y-33402
X39577Y-33402
X27577Y-35402
X39577Y-18402
X30577Y-26402
X33577Y-15402
X34577Y-13402
X41577Y-17402
X38577Y-37402
X31577Y-32402
X31577Y-11402
X28577Y-18402
X38577Y-18402
X31577Y-21402
X26577Y-16402
X31577Y-9402
X38577Y-15402
X41577Y-32402
X32577Y-35402
X31577Y-28402
X34577Y-20402
X30577Y-19402
X28577Y-25402
X28577Y-8402
X28577Y-17402
X25577Y-21402
X40577Y-20402
X36577Y-28402
X33577Y-30402
X28577Y-35402
X34577Y-26402
X32577Y-19402
X26577Y-11402
X39577Y-8402
X36577Y-15402
X25577Y-11402
X40577Y-34402
X34577Y-36402
X37577Y-34402
X27577Y-33402
X37577Y-23402
X35577Y-26402
X32577Y-10402
X39577Y-17402
X41577Y-16402
X39577Y-28402
X30577Y-32402
X29577Y-12402
X28577Y-12402
X39577Y-20402
X35577Y-25402
X26577Y-15402
X38577Y-8402
X38577Y-12402
X41577Y-31402
X33577Y-36402
X29577Y-29402
X32577Y-27402
X35577Y-21402
X29577Y-19402
X36577Y-8402
X31577Y-15402
X25577Y-30402
X40577Y-19402
X34577Y-35402
X32577Y-28402
X29577Y-36402
X36577Y-24402
X27577Y-25402
X30577Y-8402
X30577Y-11402
X25577Y-34402
X40577Y-33402
X36577Y-34402
X39577Y-29402
X27577Y-36402
X33577Y-27402
X30577Y-23402
X26577Y-12402
X37577Y-16402
X28577Y-16402
X41577Y-15402
X37577Y-32402
X27577Y-30402
X30577Y-12402
X38577Y-16402
X37577Y-27402
X32577Y-22402
X26577Y-14402
X27577Y-9402
X39577Y-16402
X41577Y-30402
X38577Y-33402
X27577Y-29402
X37577Y-25402
X34577Y-23402
X27577Y-26402
X38577Y-9402
X35577Y-12402
X26577Y-32402
X40577Y-28402
X40577Y-36402
X37577Y-31402
X29577Y-34402
X36577Y-22402
X39577Y-21402
X35577Y-9402
X35577Y-13402
X25577Y-33402
X40577Y-32402
X36577Y-32402
X38577Y-30402
X27577Y-34402
X34577Y-22402
X31577Y-25402
X35577Y-10402
X32577Y-13402
X41577Y-14402
X38577Y-32402
X29577Y-28402
X31577Y-13402
X39577Y-15402
X34577Y-21402
X33577Y-20402
X26577Y-13402
X28577Y-9402
X35577Y-11402
X41577Y-29402
X39577Y-35402
X30577Y-29402
X28577Y-20402
X27577Y-27402
X27577Y-20402
X36577Y-9402
X40577Y-9402
X27577Y-12402
X26577Y-31402
X41577Y-33402
X35577Y-29402
X28577Y-36402
X36577Y-25402
X37577Y-26402
X33577Y-9402
X34577Y-15402
X25577Y-32402
X40577Y-31402
X39577Y-30402
X35577Y-34402
X26577Y-36402
X36577Y-27402
X28577Y-21402
X41577Y-10402
X31577Y-14402
X41577Y-23402
X35577Y-28402
X27577Y-32402
X27577Y-16402
X38577Y-13402
X39577Y-25402
X35577Y-20402
X32577Y-17402
X41577Y-28402
X33577Y-34402
X31577Y-29402
X38577Y-24402
X27577Y-21402
X31577Y-23402
X34577Y-8402
X31577Y-16402
X26577Y-35402
X40577Y-17402
X36577Y-36402
X31577Y-35402
X38577Y-25402
X36577Y-18402
X34577Y-9402
X28577Y-11402
X25577Y-31402
X40577Y-30402
X37577Y-37402
X37577Y-30402
X26577Y-37402
X37577Y-19402
X28577Y-27402
X33577Y-13402
X26577Y-10402
X41577Y-12402
X32577Y-36402
X28577Y-29402
X83770Y-39371
X83770Y-40371
X33577Y-12402
X37577Y-12402
X28577Y-24402
X29577Y-21402
X33577Y-11402
X41577Y-27402
X36577Y-31402
X28577Y-31402
X39577Y-23402
X38577Y-23402
X29577Y-24402
X40577Y-8402
X28577Y-14402
X26577Y-34402
X40577Y-16402
X37577Y-36402
X31577Y-37402
X29577Y-18402
X34577Y-25402
X37577Y-8402
X35577Y-16402
X41577Y-24402
X40577Y-29402
X34577Y-31402
X38577Y-34402
X31577Y-36402
X33577Y-16402
X33577Y-23402
X31577Y-22402
X32577Y-14402
X29577Y-13402
X26577Y-24402
X41577Y-11402
X35577Y-35402
X29577Y-32402
X28577Y-15402
X37577Y-14402
X32577Y-21402
X27577Y-19402
X34577Y-11402
X41577Y-26402
X33577Y-28402
X29577Y-31402
X38577Y-17402
X38577Y-21402
X38577Y-20402
X31577Y-19402
X25577Y-9402
X31577Y-12402
X26577Y-33402
X40577Y-15402
X36577Y-33402
X30577Y-33402
X93570Y-19971
X93570Y-20971
X28577Y-19402
X34577Y-24402
X27577Y-8402
X37577Y-13402
X25577Y-29402
X40577Y-18402
X33577Y-29402
X39577Y-34402
X31577Y-34402
X32577Y-18402
X31577Y-26402
X31577Y-17402
X27577Y-11402
X25577Y-20402
X32577Y-32402
X27577Y-28402
X30577Y-13402
X38577Y-14402
X35577Y-27402
X36577Y-19402
X25577Y-35402
X37577Y-10402
X41577Y-34402
X36577Y-37402
X28577Y-28402
X29577Y-10402
X37577Y-20402
X39577Y-24402
X30577Y-20402
X26577Y-23402
X30577Y-9402
X33577Y-10402
X26577Y-30402
X40577Y-14402
X33577Y-35402
X30577Y-36402
X35577Y-24402
X32577Y-24402
X32577Y-9402
X33577Y-14402
X25577Y-13402
X40577Y-27402
X34577Y-29402
X32577Y-33402
X28577Y-33402
X37577Y-24402
X31577Y-27402
X28577Y-10402
X28577Y-13402
X25577Y-19402
X37577Y-33402
X38577Y-35402
X27577Y-14402
X35577Y-14402
X28577Y-22402
X35577Y-23402
X29577Y-14402
X41577Y-13402
X39577Y-32402
X29577Y-30402
X30577Y-15402
X34577Y-27402
X35577Y-19402
X27577Y-24402
X26577Y-22422
X39577Y-9402
X39577Y-10402
X26577Y-29402
X40577Y-13402
X33577Y-32402
X31577Y-33402
X36577Y-16402
X39577Y-27402
X39577Y-26402
X37577Y-9402
X27577Y-15402
X25577Y-27402
X40577Y-26402
X37577Y-28402
X38577Y-31402
X30577Y-37402
X35577Y-18402
X30577Y-27402
X27577Y-17402
X25577Y-10402
X25577Y-18402
X38577Y-29402
X36577Y-35402
X36577Y-13402
X31577Y-20402
X28577Y-26402
X30577Y-14402
X35577Y-17402
X41577Y-22402
X34577Y-32402
X30577Y-31402
X30577Y-16402
X37577Y-22402
X32577Y-25402
X29577Y-20402
X26577Y-21402
X26577Y-8402
X37577Y-15402
X26577Y-28402
X40577Y-12402
X37577Y-35402
X28577Y-37402
X75070Y-20371
X75070Y-21371
X36577Y-14402
X37577Y-21402
X29577Y-23402
X32577Y-8402
X36577Y-12402
X25577Y-26402
X40577Y-25402
X36577Y-29402
X35577Y-32402
X28577Y-34402
X32577Y-26402
X31577Y-18402
X39577Y-13402
X32577Y-16402
X25577Y-17402
X32577Y-30402
X33577Y-31402
X72831Y-10384
X72831Y-11384
X72831Y-12384
X72831Y-13384
X72831Y-14384
X72831Y-15384
X72831Y-16384
X72831Y-17384
X72831Y-18384
X72831Y-19384
X72831Y-20384
X72831Y-21384
X72831Y-22384
X72831Y-23384
X72831Y-24384
X72831Y-25935
X72831Y-26935
X72831Y-27935
X72831Y-28935
X72831Y-29935
X72831Y-30935
X72831Y-31935
X72831Y-32935
X72831Y-33935
X72831Y-34935
X73831Y-10384
X73831Y-11384
X73831Y-12384
X73831Y-13384
X73831Y-14384
X73831Y-15384
X73831Y-16384
X73831Y-17384
X73831Y-18384
X73831Y-19384
X73831Y-20384
X73831Y-21384
X73831Y-22384
X73831Y-23384
X73831Y-24384
X73831Y-25935
X73831Y-26935
X73831Y-27935
X73831Y-28935
X73831Y-29935
X73831Y-30935
X73831Y-31935
X73831Y-32935
X73831Y-33935
X73831Y-34935
X94760Y-10935
X94760Y-11935
X94760Y-12935
X94760Y-13935
X94760Y-14935
X94760Y-15935
X94760Y-16935
X94760Y-17935
X94760Y-18935
X94760Y-19935
X94760Y-20935
X94760Y-21935
X94760Y-22935
X94760Y-23935
X94760Y-24935
X94760Y-25935
X94760Y-26935
X94760Y-27935
X94760Y-28935
X94760Y-29935
X94760Y-30935
X94760Y-31935
X94760Y-32935
X94760Y-33935
X94760Y-34935
X95760Y-10935
X95760Y-11935
X95760Y-12935
X95760Y-13935
X95760Y-14935
X95760Y-15935
X95760Y-16935
X95760Y-17935
X95760Y-18935
X95760Y-19935
X95760Y-20935
X95760Y-21935
X95760Y-22935
X95760Y-23935
X95760Y-24935
X95760Y-25935
X95760Y-26935
X95760Y-27935
X95760Y-28935
X95760Y-29935
X95760Y-30935
X95760Y-31935
X95760Y-32935
X95760Y-33935
X95760Y-34935
X34577Y-10402
X33577Y-18402
X29577Y-26402
X27577Y-10402
X40577Y-10402
X41577Y-21402
X34577Y-28402
X30577Y-28402
X30577Y-17402
X38577Y-22402
X33577Y-19402
X30577Y-24402
X26577Y-20402
X25577Y-8402
X34577Y-14402
X26577Y-27402
X40577Y-11402
X38577Y-28402
X30577Y-35402
X36577Y-17402
X33577Y-22402
X38577Y-19402
X40577Y-37402
X35577Y-8402
X34577Y-12402
X25577Y-25402
X40577Y-24402
X35577Y-33402
X34577Y-37402
X29577Y-37402
X33577Y-21402
X29577Y-22402
X36577Y-10402
X29577Y-15402
X25577Y-15402
X32577Y-31402
X37577Y-29402
X25577Y-36402
X39577Y-14402
X33577Y-26402
X28577Y-23402
X33577Y-17402
X39577Y-11402
X41577Y-20402
X26577Y-26402
X32577Y-29402
X31577Y-30402
X36577Y-11402
X35577Y-22402
X34577Y-19402
X31577Y-24402
X26577Y-19402
X29577Y-9402
X29577Y-17402
X41577Y-35402
X38577Y-36402
X30577Y-30402
X36577Y-26402
X32577Y-20402
X41577Y-37402
X41577Y-8402
X37577Y-17402
X25577Y-24402
X40577Y-23402
X36577Y-30402
X32577Y-34402
X29577Y-35402
T10
X60454Y-38923
X63214Y-38923
T11
X79468Y-5771
X82697Y-5771
T12
X92438Y-8677
X92438Y-37023
X84266Y-8682
X84266Y-37028
X76066Y-8677
X76066Y-37023
T13
X92438Y-11826
X92438Y-33873
X84266Y-11831
X84266Y-33879
X76066Y-11826
X76066Y-33873
T14
X77670Y-6171
X77670Y-39636
X91056Y-6171
X91056Y-39636
X26982Y-6169
X26982Y-39634
X40368Y-6169
X40368Y-39634
X52228Y-6171
X52228Y-39635
X65614Y-6171
X65614Y-39635
T9
X86876Y-35571G85X87664Y-35571
G05
X86876Y-37933G85X87664Y-37933
G05
X89120Y-37146G85X89120Y-36359
G05
T0
M30
